<svg xmlns="http://www.w3.org/2000/svg" width="318" height="20" viewBox="0 0 318 20">
    <defs>
        <radialGradient id="prefix__a" cx="50.001%" cy="49.999%" r="50.575%" fx="50.001%" fy="49.999%" gradientTransform="matrix(.97762 0 0 1 .011 0)">
            <stop offset=".56%" stop-color="#FFF2E8"/>
            <stop offset="9.61%" stop-color="#FEEDDF"/>
            <stop offset="24.38%" stop-color="#FDE1C7"/>
            <stop offset="43.03%" stop-color="#FACD9F"/>
            <stop offset="64.84%" stop-color="#F6B168"/>
            <stop offset="89.01%" stop-color="#F08E22"/>
            <stop offset="100%" stop-color="#EE7D00"/>
        </radialGradient>
        <radialGradient id="prefix__b" cx="-261.467%" cy="-190.486%" r="1050.482%" fx="-261.467%" fy="-190.486%" gradientTransform="matrix(1 0 0 .93623 0 -.121)">
            <stop offset="0%" stop-color="#00B1E7"/>
            <stop offset="42.7%" stop-color="#0098CD"/>
            <stop offset="52.44%" stop-color="#008DBE"/>
            <stop offset="84.03%" stop-color="#006C91"/>
            <stop offset="100%" stop-color="#005F80"/>
        </radialGradient>
        <radialGradient id="prefix__c" cx="-145.749%" cy="-188.432%" r="976.475%" fx="-145.749%" fy="-188.432%" gradientTransform="matrix(.38326 0 0 1 -.899 0)">
            <stop offset="0%" stop-color="#00B1E7"/>
            <stop offset="42.7%" stop-color="#0098CD"/>
            <stop offset="52.44%" stop-color="#008DBE"/>
            <stop offset="84.03%" stop-color="#006C91"/>
            <stop offset="100%" stop-color="#005F80"/>
        </radialGradient>
        <radialGradient id="prefix__d" cx="45.039%" cy="-190.88%" r="984.822%" fx="45.039%" fy="-190.88%" gradientTransform="matrix(.39632 0 0 1 .272 0)">
            <stop offset="0%" stop-color="#00B1E7"/>
            <stop offset="42.7%" stop-color="#0098CD"/>
            <stop offset="52.44%" stop-color="#008DBE"/>
            <stop offset="84.03%" stop-color="#006C91"/>
            <stop offset="100%" stop-color="#005F80"/>
        </radialGradient>
        <radialGradient id="prefix__e" cx="-192.846%" cy="-190.886%" r="1243.351%" fx="-192.846%" fy="-190.886%" gradientTransform="matrix(1 0 0 .79214 0 -.397)">
            <stop offset="0%" stop-color="#00B1E7"/>
            <stop offset="42.7%" stop-color="#0098CD"/>
            <stop offset="52.44%" stop-color="#008DBE"/>
            <stop offset="84.03%" stop-color="#006C91"/>
            <stop offset="100%" stop-color="#005F80"/>
        </radialGradient>
        <radialGradient id="prefix__f" cx="-1367.889%" cy="-190.234%" r="3855.85%" fx="-1367.889%" fy="-190.234%" gradientTransform="matrix(1 0 0 .30573 0 -1.32)">
            <stop offset="0%" stop-color="#00B1E7"/>
            <stop offset="42.7%" stop-color="#0098CD"/>
            <stop offset="52.44%" stop-color="#008DBE"/>
            <stop offset="84.03%" stop-color="#006C91"/>
            <stop offset="100%" stop-color="#005F80"/>
        </radialGradient>
        <radialGradient id="prefix__g" cx="-365.943%" cy="-359.756%" r="1050.388%" fx="-365.943%" fy="-359.756%" gradientTransform="matrix(1 0 0 .93616 0 -.23)">
            <stop offset="0%" stop-color="#00B1E7"/>
            <stop offset="42.7%" stop-color="#0098CD"/>
            <stop offset="52.44%" stop-color="#008DBE"/>
            <stop offset="84.03%" stop-color="#006C91"/>
            <stop offset="100%" stop-color="#005F80"/>
        </radialGradient>
        <radialGradient id="prefix__h" cx="-26.629%" cy="-358.982%" r="982.03%" fx="-26.629%" fy="-358.982%" gradientTransform="matrix(.37989 0 0 1 -.165 0)">
            <stop offset="0%" stop-color="#00B1E7"/>
            <stop offset="42.7%" stop-color="#0098CD"/>
            <stop offset="52.44%" stop-color="#008DBE"/>
            <stop offset="84.03%" stop-color="#006C91"/>
            <stop offset="100%" stop-color="#005F80"/>
        </radialGradient>
        <radialGradient id="prefix__i" cx="-631.474%" cy="-360.268%" r="1161.668%" fx="-631.474%" fy="-360.268%" gradientTransform="matrix(1 0 0 .84781 0 -.548)">
            <stop offset="0%" stop-color="#00B1E7"/>
            <stop offset="42.7%" stop-color="#0098CD"/>
            <stop offset="52.44%" stop-color="#008DBE"/>
            <stop offset="84.03%" stop-color="#006C91"/>
            <stop offset="100%" stop-color="#005F80"/>
        </radialGradient>
        <radialGradient id="prefix__j" cx="-565.005%" cy="-361.006%" r="1243.844%" fx="-565.005%" fy="-361.006%" gradientTransform="matrix(1 0 0 .79302 0 -.747)">
            <stop offset="0%" stop-color="#00B1E7"/>
            <stop offset="42.7%" stop-color="#0098CD"/>
            <stop offset="52.44%" stop-color="#008DBE"/>
            <stop offset="84.03%" stop-color="#006C91"/>
            <stop offset="100%" stop-color="#005F80"/>
        </radialGradient>
        <radialGradient id="prefix__k" cx="-737.045%" cy="-360.268%" r="1161.613%" fx="-737.045%" fy="-360.268%" gradientTransform="matrix(1 0 0 .84783 0 -.548)">
            <stop offset="0%" stop-color="#00B1E7"/>
            <stop offset="42.7%" stop-color="#0098CD"/>
            <stop offset="52.44%" stop-color="#008DBE"/>
            <stop offset="84.03%" stop-color="#006C91"/>
            <stop offset="100%" stop-color="#005F80"/>
        </radialGradient>
    </defs>
    <g fill="none" fill-rule="evenodd">
        <g>
            <path fill="#F90" d="M30.21.357c.869 0 1.576.707 1.576 1.576v16.169c0 .868-.707 1.575-1.576 1.575H1.89c-.869 0-1.576-.707-1.576-1.575V1.932c0-.868.707-1.575 1.576-1.575H30.21zm0-.313H1.89C.846.044 0 .889 0 1.933v16.169c0 1.043.846 1.888 1.889 1.888H30.21c1.044 0 1.889-.845 1.889-1.888V1.932c0-1.043-.846-1.888-1.889-1.888z" transform="translate(143)"/>
            <g>
                <g fill="#F90">
                    <path d="M13.123 1.516C11.538 2.686 9.24 3.308 7.26 3.308c-2.773 0-5.27-1.025-7.16-2.731C-.047.443.085.26.264.364c2.038 1.186 4.56 1.9 7.164 1.9 1.757 0 3.688-.364 5.465-1.118.268-.114.492.177.23.37z" transform="translate(143) translate(2.32 7.085) translate(3.824 4.953)"/>
                    <path d="M13.783.764C13.58.504 12.443.64 11.93.702c-.154.018-.178-.117-.039-.215.908-.637 2.394-.453 2.567-.24.174.215-.046 1.706-.896 2.417-.13.11-.255.051-.197-.093.191-.478.62-1.548.417-1.807z" transform="translate(143) translate(2.32 7.085) translate(3.824 4.953)"/>
                </g>
                <g fill="#000">
                    <path d="M15.792.938V.32c0-.094.071-.157.157-.157h2.775c.089 0 .16.065.16.156V.85c0 .09-.076.206-.209.39l-1.437 2.053c.533-.013 1.098.067 1.583.34.109.061.138.152.147.241v.66c0 .092-.1.197-.204.143-.855-.448-1.988-.497-2.933.005-.096.051-.197-.052-.197-.143v-.629c0-.1.002-.272.103-.425l1.665-2.39h-1.45c-.088 0-.16-.063-.16-.156zM5.669 4.806h-.845c-.08-.006-.144-.066-.15-.143V.33c0-.087.073-.156.163-.156h.786c.082.004.148.066.154.145v.566h.015c.205-.547.592-.803 1.112-.803.528 0 .859.256 1.095.803.205-.547.67-.803 1.167-.803.354 0 .74.146.977.474.268.365.213.894.213 1.36l-.001 2.734c0 .086-.073.156-.163.156H9.35c-.085-.006-.152-.073-.152-.156V2.353c0-.183.016-.639-.024-.812-.063-.292-.252-.374-.496-.374-.205 0-.418.137-.505.356-.086.219-.078.584-.078.83V4.65c0 .086-.073.156-.163.156h-.843c-.085-.006-.152-.073-.152-.156V2.353c0-.483.078-1.195-.52-1.195-.608 0-.584.693-.584 1.195V4.65c0 .086-.073.156-.163.156zM21.273.082c1.253 0 1.931 1.076 1.931 2.444 0 1.322-.748 2.371-1.93 2.371-1.23 0-1.9-1.076-1.9-2.417 0-1.35.678-2.398 1.9-2.398zm.008.885c-.623 0-.662.848-.662 1.377s-.008 1.66.654 1.66c.655 0 .686-.913.686-1.469 0-.364-.016-.802-.126-1.149-.095-.3-.284-.42-.552-.42zM24.83 4.806h-.842c-.085-.006-.151-.073-.151-.156L23.835.315c.007-.08.077-.141.162-.141h.784c.073.003.134.054.15.12v.664h.016c.236-.593.567-.876 1.15-.876.378 0 .749.137.985.51.221.347.221.93.221 1.35V4.67c-.01.077-.078.137-.162.137h-.846c-.078-.005-.141-.063-.15-.137V2.316c0-.474.055-1.167-.529-1.167-.205 0-.394.137-.488.347-.118.264-.134.529-.134.82V4.65c-.002.086-.075.156-.165.156zM13.58 2.736c0 .33.007.603-.158.896-.135.238-.348.384-.585.384-.324 0-.513-.247-.513-.613 0-.719.645-.85 1.256-.85v.183zm.85 2.059c-.055.05-.136.053-.199.02-.28-.234-.33-.341-.484-.563-.463.472-.791.613-1.392.613-.71 0-1.263-.438-1.263-1.315 0-.686.37-1.152.9-1.38.458-.201 1.098-.238 1.588-.293v-.11c0-.2.015-.438-.103-.612-.103-.155-.3-.22-.474-.22-.322 0-.608.166-.679.508-.014.076-.07.151-.146.155l-.819-.088c-.069-.016-.146-.072-.126-.177C11.421.34 12.318.04 13.121.04c.411 0 .948.11 1.272.42.41.385.371.896.371 1.454v1.315c0 .396.165.57.319.783.054.076.066.168-.003.224-.172.144-.479.41-.647.56l-.002-.001zM2.511 2.736c0 .33.008.603-.158.896-.134.238-.347.384-.584.384-.324 0-.513-.247-.513-.613 0-.719.645-.85 1.255-.85v.183zm.852 2.059c-.056.05-.137.053-.2.02-.28-.234-.33-.341-.484-.563-.463.472-.791.613-1.392.613-.71 0-1.263-.438-1.263-1.315 0-.686.37-1.152.9-1.38.458-.201 1.098-.238 1.587-.293v-.11c0-.2.016-.438-.102-.612-.103-.155-.3-.22-.474-.22-.322 0-.608.166-.679.508-.014.076-.07.151-.146.155L.29 1.51c-.069-.016-.146-.072-.126-.177C.353.34 1.25.04 2.053.04c.411 0 .948.11 1.272.42.41.385.371.896.371 1.454v1.315c0 .396.165.57.319.783.054.076.066.168-.003.224-.172.144-.479.41-.647.56l-.002-.001z" transform="translate(143) translate(2.32 7.085)"/>
                </g>
            </g>
        </g>
        <g>
            <path fill="#005098" d="M30.264.326c.87 0 1.576.707 1.576 1.575v16.17c0 .868-.707 1.575-1.576 1.575H1.943c-.869 0-1.575-.707-1.575-1.576V1.901c0-.868.706-1.575 1.575-1.575h28.321zm0-.314H1.943C.9.012.054.858.054 1.902V18.07c0 1.044.846 1.89 1.889 1.89h28.321c1.044 0 1.89-.846 1.89-1.89V1.901c0-1.043-.846-1.889-1.89-1.889z" transform="translate(178)"/>
            <g>
                <path fill="#005098" d="M9.459 8.157L10.817.189 12.989.189 11.63 8.157zM19.507.386C19.077.224 18.403.05 17.56.05c-2.145 0-3.657 1.08-3.67 2.63-.012 1.144 1.079 1.783 1.903 2.164.845.39 1.13.64 1.126.989-.006.534-.676.777-1.3.777-.869 0-1.33-.12-2.044-.418l-.28-.126-.304 1.784c.506.222 1.444.415 2.419.424 2.283 0 3.764-1.068 3.781-2.722.009-.906-.57-1.596-1.822-2.165-.76-.368-1.225-.614-1.22-.987 0-.332.393-.686 1.244-.686.71-.01 1.225.144 1.624.306l.196.092.294-1.727zM25.076.197h-1.678c-.52 0-.909.142-1.137.66L19.036 8.16h2.28s.372-.982.457-1.198l2.782.004c.064.279.263 1.194.263 1.194h2.016L25.076.197zm-2.678 5.136c.18-.46.865-2.228.865-2.228-.012.022.179-.461.288-.76l.147.687.503 2.301h-1.803zM7.638.195L5.512 5.63l-.228-1.104C4.89 3.252 3.656 1.872 2.277 1.182l1.944 6.969 2.298-.003L9.939.195h-2.3z" transform="translate(178) translate(2.508 5.83)"/>
                <path fill="#F6A500" d="M3.54.19H.036L.01.356c2.724.66 4.527 2.254 5.274 4.169L4.524.863C4.393.358 4.01.208 3.54.19z" transform="translate(178) translate(2.508 5.83)"/>
            </g>
        </g>
        <path fill="#1B557D" d="M30.211.357c.869 0 1.576.707 1.576 1.576v16.169c0 .868-.707 1.575-1.576 1.575H1.89c-.869 0-1.575-.707-1.575-1.575V1.932c0-.868.706-1.575 1.575-1.575H30.21zm0-.313H1.89C.847.044 0 .889 0 1.933v16.169c0 1.043.846 1.888 1.889 1.888H30.21c1.044 0 1.89-.845 1.89-1.888V1.932C32.1.89 31.254.045 30.21.045z"/>
        <g>
            <path fill="#107DB0" d="M21.123 1.165c-.676 0-1.21.18-1.62.26l-.126 1.029c.205-.098.85-.278 1.384-.294.535-.016.85.098.74.555-1.589 0-2.658.326-2.879 1.354-.314 1.762 1.62 1.713 2.391.946l-.094.424h1.415l.614-2.806c.25-1.191-.834-1.484-1.825-1.468zm.094 2.871c-.078.375-.377.539-.739.555-.314.016-.597-.261-.393-.588.158-.277.598-.342.865-.342h.346c-.032.13-.048.245-.079.375zM24.158.055L22.987 5.439 24.425 5.439 25.611.055zM17.553.072H14.92l-1.166 5.367h1.529l.394-1.778h1.088c1.071 0 1.954-.653 2.19-1.762C19.224.643 18.31.072 17.554.072zm-.047 1.827c-.095.408-.505.734-.9.734h-.709l.316-1.468h.756c.395 0 .631.326.537.734z" transform="translate(2.759 6.52)"/>
            <path fill="#1B557D" d="M7.338 1.165c-.668 0-1.197.18-1.585.26L5.63 2.455c.186-.098.823-.278 1.351-.294.529-.016.84.098.746.555-1.569 0-2.625.326-2.843 1.354-.31 1.762 1.6 1.713 2.346.946l-.093.424H8.55l.605-2.806c.25-1.191-.839-1.484-1.817-1.468zm.108 2.871c-.077.375-.388.539-.745.555-.311.016-.575-.261-.373-.588.155-.277.59-.342.839-.342h.357c-.03.13-.062.245-.078.375zM9.771 1.242L11.185 1.242 11.413 3.742 12.796 1.242 14.255 1.242 10.896 7.224 9.315 7.224 10.349 5.465zM3.822.072h-2.64L.013 5.439h1.549l.38-1.778h1.105c1.059 0 1.944-.653 2.181-1.762C5.497.643 4.596.072 3.822.072zm-.048 1.827c-.095.408-.49.734-.885.734h-.727l.332-1.468h.759c.38 0 .632.326.521.734zM25.921.751L25.921.116 25.684.116 25.684.031 26.255.031 26.255.116 26.017.116 26.017.751 25.921.751zM26.349.751v-.72h.143l.17.51.035.106c.008-.026.02-.064.038-.115l.173-.5h.128V.75h-.092V.149l-.21.602h-.085L26.44.139V.75h-.092z" transform="translate(2.759 6.52)"/>
        </g>
        <g>
            <path fill="#EF7D00" d="M30.258.326c.869 0 1.576.707 1.576 1.575v16.17c0 .868-.707 1.575-1.576 1.575H1.937c-.869 0-1.575-.707-1.575-1.576V1.901c0-.868.706-1.575 1.575-1.575h28.321zm0-.314H1.937C.894.012.048.858.048 1.902V18.07c0 1.044.846 1.89 1.889 1.89h28.321c1.044 0 1.89-.846 1.89-1.89V1.901c0-1.043-.846-1.889-1.89-1.889z" transform="translate(250)"/>
            <g>
                <path fill="#EF7D00" d="M29.362 13.796V6.168s-8.566 6.044-24.255 8.75h22.54c.963-.029 1.526-.342 1.715-1.122z" transform="translate(250) translate(2.57 4.953)"/>
                <path fill="url(#prefix__a)" d="M14.55.074c-1.288 0-2.332 1.005-2.332 2.246 0 1.32.999 2.306 2.331 2.306 1.3 0 2.325-1 2.325-2.28 0-1.273-1.019-2.272-2.325-2.272z" transform="translate(250) translate(2.57 4.953)"/>
                <path fill="#05171D" d="M1.315.156H.062v4.37h1.247c.661 0 1.14-.156 1.56-.503.497-.413.792-1.036.792-1.68 0-1.29-.964-2.187-2.346-2.187zm.997 3.283c-.27.243-.617.348-1.168.348H.915V.896h.23c.55 0 .884.098 1.167.354.295.262.47.668.47 1.087 0 .42-.175.84-.47 1.102zM4.055.156L4.906.156 4.906 4.527 4.055 4.527zM6.992 1.833c-.512-.19-.663-.315-.663-.55 0-.276.268-.485.636-.485.256 0 .465.104.689.353l.445-.583C7.732.246 7.293.083 6.814.083c-.773 0-1.363.537-1.363 1.251 0 .604.275.912 1.075 1.2.334.118.504.196.59.25.17.111.256.268.256.452 0 .354-.282.616-.663.616-.406 0-.734-.203-.93-.583l-.55.531c.392.576.864.833 1.514.833.884 0 1.507-.591 1.507-1.436 0-.695-.288-1.01-1.258-1.364zM8.518 2.343c0 1.286 1.01 2.282 2.308 2.282.367 0 .682-.072 1.069-.255V3.367c-.341.34-.643.478-1.03.478-.858 0-1.468-.623-1.468-1.508 0-.838.629-1.5 1.43-1.5.405 0 .714.144 1.068.491V.325c-.374-.19-.682-.268-1.05-.268-1.29 0-2.327 1.016-2.327 2.286zM18.803 3.092L17.636.156 16.706.156 18.561 4.639 19.02 4.639 20.908.156 19.984.156zM21.295 4.527L23.714 4.527 23.714 3.787 22.147 3.787 22.147 2.606 23.654 2.606 23.654 1.866 22.147 1.866 22.147.896 23.714.896 23.714.156 21.295.156zM27.089 1.446c0-.82-.563-1.29-1.547-1.29h-1.265v4.37h.853V2.77h.111l1.18 1.757h1.048l-1.377-1.841c.643-.132.997-.571.997-1.24zm-1.711.722h-.248V.843h.261c.533 0 .82.224.82.649 0 .439-.287.676-.833.676z" transform="translate(250) translate(2.57 4.953)"/>
                <path fill="#1D1D1B" d="M27.85.517c0-.1-.081-.154-.23-.154h-.199v.5h.146V.67l.172.194h.182l-.204-.206c.086-.02.133-.07.133-.14zm-.256.068h-.027v-.13h.028c.073 0 .11.021.11.063 0 .044-.039.067-.111.067z" transform="translate(250) translate(2.57 4.953)"/>
                <path fill="#1D1D1B" d="M27.563.218c-.186 0-.336.15-.336.337 0 .186.15.336.336.336.183 0 .333-.151.333-.336 0-.185-.15-.337-.333-.337zm0 .613c-.15 0-.27-.123-.27-.276 0-.153.12-.275.27-.275.145 0 .265.124.265.275 0 .152-.12.276-.265.276zM7.704 5.676L8.844 6.871 8.844 5.738 9.007 5.738 9.007 7.266 7.867 6.074 7.867 7.201 7.704 7.201z" transform="translate(250) translate(2.57 4.953)"/>
                <path fill="#1D1D1B" d="M7.688 5.676v1.54h.194V6.112l1.14 1.192V5.723h-.193v1.11l-1.14-1.195v.038zm.03.038L8.86 6.909V5.753h.132v1.476l-1.14-1.193v1.15h-.133V5.713zM9.797 5.738L10.555 5.738 10.555 5.889 9.96 5.889 9.96 6.324 10.538 6.324 10.538 6.475 9.96 6.475 9.96 7.049 10.555 7.049 10.555 7.201 9.797 7.201z" transform="translate(250) translate(2.57 4.953)"/>
                <path fill="#1D1D1B" d="M10.555 5.723h-.773v1.493h.788v-.182h-.595V6.49h.578v-.18h-.578v-.405h.595v-.182h-.015zm-.015.03v.12h-.596v.466h.578v.12h-.578v.605h.596v.121h-.728V5.753h.728zM11.706 7.201L11.543 7.201 11.543 5.889 11.19 5.889 11.19 5.738 12.063 5.738 12.063 5.889 11.706 5.889z" transform="translate(250) translate(2.57 4.953)"/>
                <path fill="#1D1D1B" d="M12.063 5.723h-.89v.182h.354v1.311h.193v-1.31h.358v-.183h-.015zm-.016.03v.12h-.357v1.312h-.132V5.874h-.353v-.121h.842zM13.152 6.834L13.626 5.662 14.099 6.834 14.483 5.738 14.66 5.738 14.099 7.276 13.626 6.098 13.152 7.276 12.592 5.738 12.769 5.738z" transform="translate(250) translate(2.57 4.953)"/>
                <path fill="#1D1D1B" d="M13.612 5.657l-.459 1.134-.374-1.068h-.209l.582 1.597.474-1.18.473 1.18.583-1.597h-.21l-.374 1.068-.472-1.17-.014.036zm-.446 1.183l.46-1.136.474 1.173.394-1.124h.144l-.54 1.48-.472-1.175-.473 1.176-.54-1.481h.145l.394 1.124.014-.037zM16.766 6.471c0 .42-.345.755-.762.755-.417 0-.762-.334-.762-.755 0-.419.345-.758.762-.758.417 0 .762.34.762.758zm-1.362-.002c0 .33.268.605.6.605.332 0 .599-.275.599-.605 0-.332-.263-.605-.599-.605-.335 0-.6.273-.6.605z" transform="translate(250) translate(2.57 4.953)"/>
                <path fill="#1D1D1B" d="M15.226 6.471c0 .424.35.77.778.77.429 0 .778-.346.778-.77 0-.427-.35-.773-.778-.773-.429 0-.778.346-.778.773zm.03 0c0-.41.336-.743.748-.743s.748.333.748.743c0 .408-.336.74-.748.74s-.748-.332-.748-.74z" transform="translate(250) translate(2.57 4.953)"/>
                <path fill="#1D1D1B" d="M15.389 6.47c0 .342.276.62.615.62.339 0 .614-.278.614-.62 0-.343-.275-.621-.614-.621-.339 0-.615.278-.615.62zm.03 0c0-.326.263-.59.585-.59.323 0 .584.264.584.59 0 .324-.261.59-.584.59-.322 0-.584-.266-.584-.59zM17.635 7.2h-.162V5.739h.211c.277 0 .535.074.535.404 0 .225-.14.384-.366.403l.465.656h-.2l-.441-.643h-.042v.643zm0-.785h.051c.184 0 .37-.035.37-.262 0-.24-.176-.264-.372-.264h-.049v.526z" transform="translate(250) translate(2.57 4.953)"/>
                <path fill="#1D1D1B" d="M17.473 5.723h-.015v1.493h.193v-.642h.025c0 .01.43.635.43.635l.212.007h.03l-.47-.662c.216-.03.356-.187.356-.413 0-.282-.18-.418-.55-.418h-.211zm.211.03c.354 0 .52.123.52.389 0 .217-.138.37-.353.388l-.026.003.464.652h-.171c0-.01-.43-.635-.43-.635l-.053-.007h-.015v.642h-.132V5.753h.196z" transform="translate(250) translate(2.57 4.953)"/>
                <path fill="#1D1D1B" d="M17.637 5.874h-.017v.556h.073c.199 0 .427-.032.427-.277 0-.258-.221-.28-.429-.28h-.054zm.054.031c.208 0 .395.018.395.248 0 .217-.198.246-.393.246h-.039v-.494h.037zM19.795 5.738L20.014 5.738 19.327 6.42 20.037 7.201 19.812 7.201 19.212 6.53 19.172 6.569 19.172 7.201 19.009 7.201 19.009 5.738 19.172 5.738 19.172 6.364z" transform="translate(250) translate(2.57 4.953)"/>
                <path fill="#1D1D1B" d="M20.014 5.723h-.225s-.555.556-.602.605v-.605h-.193v1.493h.193v-.644c.002 0 .015-.011.024-.02l.59.659.236.005h.035s-.704-.775-.725-.796c.022-.02.703-.697.703-.697h-.036zm-.037.03l-.671.666.697.766h-.191c0-.007-.589-.666-.589-.666l-.01-.012-.052.052-.004.626h-.132V5.753h.132v.649l.644-.65h.176z" transform="translate(250) translate(2.57 4.953)"/>
            </g>
        </g>
        <g>
            <path fill="#9B0033" d="M30.211.357c.869 0 1.576.707 1.576 1.576v16.169c0 .868-.707 1.575-1.576 1.575H1.89c-.869 0-1.575-.707-1.575-1.575V1.932c0-.868.706-1.575 1.575-1.575H30.21zm0-.313H1.89C.847.044 0 .889 0 1.933v16.169c0 1.043.846 1.888 1.889 1.888H30.21c1.044 0 1.89-.845 1.89-1.888V1.932C32.1.89 31.254.045 30.21.045z" transform="translate(285)"/>
            <g>
                <path fill="#9B0033" d="M9.41 3.419H22.23c1.287.002 2.358.408 3.263 1.242.89.825 1.325 1.808 1.339 3.007l.184-.002-.184-.002c-.014 1.175-.448 2.146-1.34 2.984h.001c-.905.834-1.977 1.252-3.263 1.253H9.41c-.102 0-.184.082-.184.184 0 .101.082.183.184.183h12.818c1.367.002 2.546-.456 3.512-1.351l.001-.001c.956-.892 1.446-1.982 1.456-3.248v-.004c-.01-1.288-.499-2.39-1.457-3.272-.967-.896-2.147-1.342-3.512-1.34H9.41c-.102 0-.184.082-.184.183 0 .102.082.184.184.184zm0 0H22.23c1.287.002 2.358.408 3.263 1.242.89.825 1.325 1.808 1.339 3.007l.184-.002-.184-.002c-.014 1.175-.448 2.146-1.34 2.984h.001c-.905.834-1.977 1.252-3.263 1.253H9.41c-.102 0-.184.082-.184.184 0 .101.082.183.184.183h12.818c1.367.002 2.546-.456 3.512-1.351l.001-.001c.956-.892 1.446-1.982 1.456-3.248v-.004c-.01-1.288-.499-2.39-1.457-3.272-.967-.896-2.147-1.342-3.512-1.34H9.41c-.102 0-.184.082-.184.183 0 .102.082.184.184.184z" transform="translate(285) translate(2.633 2.759)"/>
                <path fill="#9B0033" d="M8.273 3.318c.735.427 1.315 1.007 1.742 1.73.426.735.64 1.552.651 2.44-.012.9-.225 1.718-.651 2.44-.427.723-1.007 1.304-1.742 1.742-.722.427-1.528.64-2.44.652-.889-.012-1.706-.225-2.429-.652-.734-.438-1.315-1.019-1.73-1.741-.438-.723-.65-1.528-.663-2.44.012-.89.225-1.706.664-2.44.414-.724.995-1.304 1.73-1.73.722-.427 1.54-.652 2.428-.664.9.012 1.718.237 2.44.663zm-2.44-1.646c-1.078.012-2.061.272-2.938.793C2.03 2.987 1.343 3.685.81 4.55.289 5.427.028 6.41.016 7.488.028 8.566.29 9.55.81 10.426c.533.877 1.22 1.576 2.085 2.109.877.51 1.86.77 2.938.794 1.09-.012 2.073-.273 2.95-.794.876-.533 1.575-1.232 2.097-2.109.509-.876.781-1.86.793-2.938-.012-1.078-.272-2.06-.793-2.938-.522-.864-1.22-1.563-2.097-2.085-.877-.52-1.86-.781-2.95-.793zM13.142 5.806L13.545 5.806 13.971 6.979 14.41 5.806 14.801 5.806 14.138 7.477 13.818 7.477 13.142 5.806M17.774 6.197h.367v1.268h-.367V6.197zm-.012-.462h.38v.32h-.38v-.32zm-1.137.462h.356v.249c.035-.083.094-.154.153-.202.06-.059.143-.082.25-.07v.379h-.012c-.13 0-.226.035-.285.106-.07.071-.106.19-.106.344v.462h-.356V6.197zm-.77.533c-.012-.083-.035-.142-.083-.201-.047-.048-.106-.071-.178-.071-.082 0-.142.023-.189.071-.047.06-.083.118-.095.201h.545zm-.237.77c-.083 0-.178-.023-.26-.059-.083-.024-.154-.071-.214-.13-.059-.06-.094-.119-.13-.202-.036-.083-.06-.177-.06-.272 0-.095.013-.178.048-.26.036-.084.071-.155.13-.214.06-.06.119-.107.202-.142.083-.036.166-.048.26-.048.107 0 .19.024.273.06.083.035.142.083.19.154.047.059.082.13.118.213.024.083.036.178.036.26l-.012.048v.047h-.877c.012.083.047.143.107.19.059.035.118.06.201.06.06 0 .107-.013.166-.037.036-.011.083-.047.142-.094l.201.177c-.059.083-.13.143-.213.178-.083.048-.19.071-.308.071zM19.255 7.488c-.13 0-.249-.023-.379-.07-.118-.036-.225-.107-.332-.202l.225-.249c.071.06.142.107.226.142.082.036.165.06.26.06.083 0 .142-.012.178-.048.035-.024.059-.06.059-.106v-.072l-.06-.047-.094-.047-.178-.06-.225-.059-.177-.095-.107-.142c-.024-.06-.036-.118-.036-.201V6.28l.036-.201c.035-.06.071-.119.13-.154.048-.048.107-.083.178-.107.071-.024.154-.035.237-.035.118 0 .225.023.332.059.106.035.2.083.284.154l-.19.272-.225-.118c-.07-.036-.142-.048-.213-.048-.071 0-.119.012-.154.048-.035.023-.06.059-.06.094v.012l.025.071.047.048.118.047.178.047.225.084c.06.023.119.059.166.094l.095.13c.024.06.035.119.035.19v.012c0 .083-.011.154-.047.213-.024.06-.06.119-.119.166-.059.036-.118.071-.201.095-.07.024-.154.035-.237.035M20.325 6.197h.484v1.268h-.484V6.197zm-.016-.462h.5v.32h-.5v-.32zM22.975 6.197h.355v.178l.071-.071.083-.071.095-.048.119-.012c.142 0 .248.048.32.13.082.084.118.19.118.344v.818h-.367v-.711c0-.083-.012-.142-.048-.19-.035-.035-.094-.059-.165-.059-.072 0-.13.024-.166.06-.036.047-.06.106-.06.189v.71h-.355V6.198zm-1.137.865l.13-.024c.035-.012.06-.023.095-.06.023-.023.047-.058.059-.094.012-.035.024-.07.024-.118l-.024-.119c-.012-.035-.036-.07-.06-.094l-.094-.06-.13-.024-.119.024-.095.06c-.035.023-.059.059-.07.094l-.024.119c0 .095.035.166.094.213.06.06.13.083.214.083zm-.036.782l-.296-.036c-.107-.012-.19-.047-.273-.095l.13-.272.202.095.225.023c.119 0 .213-.023.273-.082.059-.06.083-.143.083-.261v-.06c-.048.06-.107.12-.166.155-.06.035-.142.047-.249.047-.071 0-.142-.012-.213-.035-.06-.024-.119-.06-.178-.119-.047-.047-.083-.106-.118-.178-.036-.082-.048-.165-.048-.26s.012-.178.048-.25c.035-.082.07-.141.118-.189.06-.059.119-.094.19-.118l.201-.036c.107 0 .19.024.249.06.059.035.118.07.166.13v-.166h.355v.983c0 .225-.047.391-.154.498-.06.06-.142.107-.225.13l-.32.036zM14.066 9.561c-.13 0-.249-.023-.379-.07-.118-.036-.225-.107-.332-.202l.226-.249c.07.06.142.107.225.142.083.036.165.06.26.06.083 0 .142-.012.178-.048.036-.023.06-.059.06-.106v-.071l-.06-.048-.095-.047-.178-.06-.225-.059-.177-.094-.107-.143c-.024-.059-.036-.118-.036-.201v-.012l.036-.201c.035-.06.071-.119.13-.154.048-.048.107-.083.178-.107.071-.024.154-.035.237-.035.118 0 .225.023.332.059.106.035.201.083.284.154l-.19.272-.225-.118c-.07-.036-.142-.048-.213-.048-.07 0-.118.012-.154.048-.035.023-.059.06-.059.095v.012l.024.07.047.048.118.047.178.048.225.083c.06.023.119.059.166.094l.095.13c.024.06.035.12.035.19v.012c0 .083-.011.154-.047.213-.024.06-.06.119-.118.166-.06.036-.119.071-.202.095-.07.024-.154.035-.237.035M17.419 9.573c-.095 0-.178-.023-.26-.059-.084-.035-.155-.083-.214-.142-.06-.06-.095-.119-.13-.201-.036-.083-.06-.178-.06-.261 0-.095.024-.178.06-.26.035-.084.07-.155.13-.214.06-.06.13-.106.213-.142.083-.036.166-.048.273-.048.118 0 .213.024.296.06.083.035.142.083.201.154l-.213.237c-.035-.048-.083-.083-.13-.107-.036-.024-.095-.035-.166-.035l-.119.023-.094.083-.071.107-.024.13v.012c0 .047.012.095.024.13.011.048.035.083.07.119.024.035.06.06.095.07.036.013.083.024.143.024.059 0 .106-.011.154-.035l.13-.095.213.213c-.06.06-.13.119-.213.166-.083.048-.178.071-.308.071zm-1.422-.77c-.012-.083-.035-.142-.083-.201-.047-.047-.106-.071-.177-.071-.083 0-.143.024-.19.071-.047.06-.083.118-.095.201h.545zm-.237.77c-.083 0-.177-.023-.26-.059-.083-.023-.154-.07-.213-.13-.06-.06-.095-.119-.13-.202-.036-.082-.06-.177-.06-.272 0-.095.012-.178.047-.26.036-.084.072-.155.13-.214.06-.06.12-.106.202-.142.083-.036.166-.048.26-.048.107 0 .19.024.273.06.083.035.142.083.19.154.047.06.083.13.118.213.024.083.036.178.036.26l-.012.048v.047h-.877c.012.083.048.143.107.19.059.035.118.06.201.06.06 0 .107-.013.166-.036.036-.012.083-.048.142-.095l.202.178c-.06.083-.13.142-.214.177-.082.048-.19.071-.308.071zM18.805 9.561c-.13 0-.237-.047-.32-.13-.071-.083-.107-.19-.107-.343V8.27h.356v.711c0 .083.024.142.059.19.036.035.095.059.166.059.059 0 .118-.024.166-.06.035-.047.06-.106.06-.189v-.71h.354v1.267h-.355V9.36l-.071.071-.083.071-.095.048-.13.011M23.567 9.254c.048 0 .095-.012.13-.024l.095-.071c.024-.036.048-.071.06-.107l.023-.142v-.012l-.024-.142-.059-.107-.094-.07c-.036-.013-.083-.024-.13-.024l-.12.023-.094.071-.071.107c-.012.035-.024.083-.024.142v.012l.024.142c.012.036.035.071.07.107l.096.07.118.025zm-.083.307c-.083 0-.154-.011-.225-.047-.059-.023-.118-.06-.178-.118-.059-.06-.094-.13-.13-.214-.035-.082-.047-.165-.047-.272v-.012c0-.106.012-.201.047-.284.036-.083.071-.142.13-.201.048-.06.107-.095.178-.12.071-.035.142-.047.225-.047.095 0 .178.024.237.06.06.035.119.07.154.13v-.628h.355v1.73h-.355V9.36c-.035.06-.095.107-.154.142-.059.036-.142.06-.237.06zm-1.35-.758c-.012-.083-.036-.142-.083-.201-.048-.047-.107-.071-.178-.071-.083 0-.142.024-.19.071-.047.06-.082.118-.094.201h.545zm-.237.77c-.083 0-.178-.023-.26-.059-.084-.023-.155-.07-.214-.13-.06-.06-.095-.119-.13-.202-.036-.082-.06-.177-.06-.272 0-.095.012-.178.048-.26.036-.084.071-.155.13-.214.06-.06.119-.106.202-.142.083-.036.165-.048.26-.048.107 0 .19.024.273.06.083.035.142.083.19.154.046.06.082.13.118.213.023.083.035.178.035.26l-.012.048v.047h-.876c.012.083.047.143.106.19.06.035.119.06.202.06.059 0 .106-.013.166-.036.035-.012.082-.048.142-.095l.201.178c-.059.083-.13.142-.213.177-.083.048-.19.071-.308.071zm-1.79-1.303h.356v.25c.036-.084.095-.155.154-.202.06-.06.143-.083.25-.072v.38h-.013c-.13 0-.225.035-.284.106-.071.071-.107.19-.107.344v.462h-.355V8.27zM24.847 2.892h.509v.118h-.178v.486h-.142V3.01h-.19v-.118zm1.267 0v.604h-.142v-.39l-.154.26h-.024l-.154-.26v.39h-.142v-.604h.154l.166.26.154-.26h.142z" transform="translate(285) translate(2.633 2.759)"/>
                <path fill="#000" d="M9.292 4.68h-.438v.451h.438v-.45zm-.438-1.136h.438v.438h-.438v-.438zM9.99 2.382h-.45v-.438h.45v.438zm.877-.912h.865V.997h-.865v1.386H9.99v.45h-.746v.308h-.391v.403H8.38v.699h-.45v.438h-.296v.45h-.332c-.663.983-1.185 1.955-1.564 2.938-.853-1.197-1.647-1.907-2.381-2.144-.201-.06-.344-.012-.426.165-.083.178-.012.403.237.664.746.817 1.433 1.979 2.06 3.46.096.236.309.366.652.402.32.024.533-.095.628-.356.462-1.22.995-2.262 1.612-3.15V6.6h.355v-.438h.379v-.533h.438V5.13h.45v-.45h.356v-.545h.39v-.367h.38v-.936h.438v-.45h.51v-.45h-.51v.45h-.438v.45h-.439v.438h-.438v-.438h.438V1.47h.439z" transform="translate(285) translate(2.633 2.759)"/>
                <path fill="#A10045" d="M10.868 1.47L11.368 1.47 11.368 1.97 10.868 1.97z" transform="translate(285) translate(2.633 2.759)"/>
                <path fill="#FFF" d="M8.854 3.544L9.354 3.544 9.354 4.044 8.854 4.044z" transform="translate(285) translate(2.633 2.759)"/>
                <path fill="#9B0033" d="M12.23 0.997L12.73 0.997 12.73 1.497 12.23 1.497z" transform="translate(285) translate(2.633 2.759)"/>
                <path fill="#000" d="M12.268 1.023L12.268 0.523 11.768 0.523 11.768 1.023" transform="translate(285) translate(2.633 2.759)"/>
                <path fill="#9B0033" d="M12.23 0.049L12.73 0.049 12.73 0.549 12.23 0.549z" transform="translate(285) translate(2.633 2.759)"/>
            </g>
        </g>
        <g>
            <path fill="#E30613" d="M30.264.326c.87 0 1.576.707 1.576 1.575v16.17c0 .868-.707 1.575-1.576 1.575H1.943c-.869 0-1.575-.707-1.575-1.576V1.901c0-.868.706-1.575 1.575-1.575h28.321zm0-.314H1.943C.9.012.054.858.054 1.902V18.07c0 1.044.846 1.89 1.889 1.89h28.321c1.044 0 1.89-.846 1.89-1.89V1.901c0-1.043-.846-1.889-1.89-1.889z" transform="translate(71)"/>
            <g>
                <path fill="#FAB31E" d="M13.515 14.117c1.42 1.309 3.327 2.102 5.4 2.102 4.454 0 8.06-3.633 8.06-8.1 0-4.482-3.606-8.115-8.06-8.115-2.073 0-3.98.793-5.4 2.102-1.628 1.489-2.658 3.632-2.658 6.012 0 2.38 1.03 4.524 2.658 6z" transform="translate(71) translate(2.633 2.006)"/>
                <path fill="#E40520" d="M16.118 7.255c-.028-.292-.083-.57-.14-.863h-4.926c.055-.292.139-.57.222-.849h4.468c-.097-.292-.209-.584-.334-.862h-3.786c.14-.293.293-.585.46-.863h2.853c-.181-.293-.39-.585-.613-.85h-1.628c.25-.306.529-.598.821-.862C12.082.81 10.19.004 8.101.004 3.66.004.042 3.637.042 8.118c0 4.468 3.619 8.101 8.059 8.101 2.088 0 3.98-.793 5.414-2.102.293-.264.557-.543.807-.849h-1.628c-.223-.278-.418-.556-.612-.863h2.853c.18-.278.334-.556.473-.863h-3.786c-.125-.278-.25-.556-.348-.849h4.468c.098-.278.167-.57.237-.863.056-.278.111-.57.14-.863.027-.278.04-.556.04-.849 0-.292-.013-.584-.04-.863z" transform="translate(71) translate(2.633 2.006)"/>
                <path fill="#FFF" d="M25.903 9.997c0-.153.11-.264.25-.264.153 0 .265.111.265.264 0 .14-.112.265-.265.265-.14 0-.25-.125-.25-.265zm.25.195c.111 0 .209-.083.209-.195 0-.111-.098-.195-.209-.195-.097 0-.195.084-.195.195 0 .112.098.195.195.195zm-.028-.083h-.055v-.223h.153c.028.014.028.042.028.07 0 .014-.014.041-.042.055l.056.098h-.07l-.028-.084h-.042v.084-.125h.028c.014 0 .028 0 .028-.014.014 0 .014-.014.014-.028 0 0 0-.014-.014-.014 0-.014-.014 0-.028 0h-.028v.181z" transform="translate(71) translate(2.633 2.006)"/>
                <path fill="#06326E" d="M10.773 10.457c-.264.07-.459.111-.654.111-.417 0-.668-.265-.668-.738 0-.097.014-.195.028-.306l.056-.32.041-.264.376-2.283h.835l-.097.5h.529l-.126.836h-.528l-.223 1.364c-.014.07-.014.111-.014.14 0 .18.083.25.292.25.098 0 .181-.014.265-.028l-.112.738zM13.474 10.429c-.307.083-.585.125-.891.125-.947 0-1.49-.501-1.49-1.49 0-1.154.64-1.99 1.531-1.99.71 0 1.17.474 1.17 1.211 0 .25-.028.488-.098.822h-1.74c-.014.055-.014.083-.014.11 0 .39.265.585.766.585.32 0 .598-.069.905-.208l-.14.835zm-.516-1.99v-.167c0-.279-.152-.432-.417-.432-.278 0-.473.209-.557.599h.974zM4.093 10.498L3.23 10.498 3.731 7.339 2.603 10.498 2.005 10.498 1.935 7.353 1.406 10.498.557 10.498 1.239 6.392 2.506 6.392 2.534 8.926 3.383 6.392 4.774 6.392zM6.194 9.009c-.083-.014-.111-.014-.167-.014-.501 0-.751.195-.751.501 0 .21.125.348.32.348.417 0 .584-.348.598-.835zm.696 1.49H6.14l.013-.348c-.194.264-.459.403-.918.403-.418 0-.78-.376-.78-.919 0-.152.028-.292.07-.431.14-.515.654-.835 1.448-.849.097 0 .25 0 .39.014.027-.111.027-.153.027-.223 0-.223-.18-.292-.585-.292-.25 0-.528.042-.723.111l-.125.028-.056.014.125-.752c.404-.125.696-.18 1.016-.18.752 0 1.155.347 1.155.988 0 .167.014.292-.041.654L6.96 9.914l-.028.209-.014.167-.014.111-.014.097zM17.677 7.186c.25 0 .473.07.78.223l.152-.891c-.083-.042-.111-.042-.222-.084l-.348-.097c-.112-.028-.25-.042-.404-.042-.431 0-.682.014-.946.167-.14.098-.32.223-.515.446l-.112-.028-.89.626.041-.348h-.918l-.543 3.34h.877l.32-1.795s.125-.25.18-.334c.168-.209.307-.209.488-.209h.07c-.028.195-.042.404-.042.64 0 1.086.612 1.768 1.559 1.768.236 0 .445-.028.765-.111l.153-.947c-.278.153-.529.223-.738.223-.514 0-.82-.39-.82-1.002 0-.905.459-1.545 1.113-1.545zM25.068 6.392l-.195 1.17c-.209-.32-.46-.474-.793-.474-.46 0-.891.265-1.156.766V7.84l-.557-.334.056-.348h-.932l-.53 3.34h.864l.292-1.795s.223-.25.278-.334c.14-.167.279-.195.39-.209-.097.278-.153.613-.153.988 0 .836.431 1.392 1.072 1.392.32 0 .57-.111.807-.376l-.042.334h.821l.668-4.106h-.89zm-1.072 3.313c-.292 0-.445-.222-.445-.654 0-.654.278-1.128.681-1.128.307 0 .46.237.46.655 0 .668-.279 1.127-.696 1.127zM19.973 9.009c-.083-.014-.11-.014-.167-.014-.5 0-.751.195-.751.501 0 .21.125.348.32.348.417 0 .585-.348.598-.835zm.696 1.49h-.765l.028-.348c-.195.264-.46.403-.919.403-.431 0-.807-.362-.807-.919 0-.793.598-1.28 1.545-1.28.097 0 .25 0 .376.014.027-.111.041-.153.041-.223 0-.223-.18-.292-.598-.292-.237 0-.53.042-.724.111l-.111.028-.056.014.125-.752c.404-.125.696-.18 1.016-.18.752 0 1.142.347 1.142.988 0 .167.027.292-.042.654l-.181 1.197-.028.209-.028.167-.014.111v.097zM8.713 7.868c.167 0 .404.014.655.055l.125-.779c-.25-.028-.585-.07-.78-.07-.974 0-1.294.53-1.294 1.142 0 .403.181.696.654.918.348.167.404.195.404.349 0 .208-.181.334-.515.334-.265 0-.515-.042-.794-.14l-.097.766.014.014.167.028c.056.013.125.027.223.041.209.014.39.028.5.028.975 0 1.379-.376 1.379-1.113 0-.46-.223-.738-.655-.933-.375-.167-.417-.195-.417-.348 0-.153.167-.292.431-.292z" transform="translate(71) translate(2.633 2.006)"/>
                <path fill="#FFF" d="M18.846 6.253l-.153.891c-.306-.153-.529-.223-.78-.223-.654 0-1.113.64-1.113 1.545 0 .627.306 1.002.821 1.002.209 0 .46-.069.738-.208l-.153.932c-.32.084-.53.126-.766.126-.946 0-1.53-.683-1.53-1.782 0-1.462.807-2.491 1.962-2.491.153 0 .292.014.404.041l.347.084c.112.042.14.056.223.083zM16.035 6.866h-.084c-.292 0-.46.139-.724.543l.084-.515h-.793l-.543 3.34h.876c.32-2.046.404-2.394.822-2.394h.055c.084-.404.195-.696.334-.96l-.027-.014zM10.996 10.192c-.236.084-.431.111-.626.111-.446 0-.696-.25-.696-.737 0-.083.014-.195.028-.292l.055-.334.042-.265.376-2.283h.863l-.098.501h.446l-.112.822h-.445l-.236 1.392c-.014.055-.014.097-.014.139 0 .167.083.237.292.237.097 0 .18 0 .237-.028l-.112.737zM7.642 7.951c0 .418.195.71.654.933.362.167.417.223.417.362 0 .209-.153.306-.5.306-.265 0-.502-.042-.78-.125l-.125.765.041.014.154.028c.055.014.125.028.236.028.195.028.362.028.473.028.919 0 1.35-.348 1.35-1.114 0-.46-.18-.724-.612-.932-.376-.167-.418-.21-.418-.362 0-.181.154-.265.432-.265.167 0 .404.014.626.042l.126-.766c-.223-.041-.571-.07-.766-.07-.974 0-1.322.516-1.308 1.128zM25.513 10.234h-.821l.042-.32c-.237.25-.488.362-.808.362-.64 0-1.058-.543-1.058-1.378 0-1.114.655-2.06 1.42-2.06.348 0 .599.153.835.46l.195-1.17h.863l-.668 4.106zm-1.28-.78c.403 0 .682-.473.682-1.127 0-.431-.154-.654-.46-.654-.39 0-.682.46-.682 1.113 0 .446.153.669.46.669zM13.668 10.164c-.306.098-.584.14-.904.14-.975 0-1.476-.515-1.476-1.504 0-1.14.64-1.99 1.518-1.99.723 0 1.183.473 1.183 1.21 0 .251-.028.488-.112.836h-1.726c-.014.042-.014.07-.014.097 0 .39.265.585.766.585.32 0 .598-.055.905-.209l-.14.835zm-.487-1.99v-.167c0-.278-.153-.431-.417-.431-.279 0-.474.208-.557.598h.974zM4.315 10.234L3.452 10.234 3.953 7.074 2.826 10.234 2.227 10.234 2.158 7.102 1.629 10.234.822 10.234 1.504 6.128 2.756 6.128 2.798 8.675 3.633 6.128 4.997 6.128zM6.473 8.745c-.084 0-.126-.014-.195-.014-.487 0-.738.18-.738.515 0 .209.111.334.306.334.362 0 .613-.334.627-.835zm.64 1.49h-.724l.014-.35c-.223.28-.515.405-.919.405-.473 0-.793-.362-.793-.905 0-.821.557-1.295 1.531-1.295.097 0 .223.014.362.028.028-.111.028-.153.028-.208 0-.223-.153-.307-.557-.307-.25 0-.529.028-.724.084l-.125.042-.083.014.125-.752c.431-.125.724-.167 1.044-.167.751 0 1.155.334 1.155.974 0 .167-.014.292-.07.668L7.182 9.65l-.027.209-.014.167-.014.125-.014.084zM20.252 8.745c-.098 0-.14-.014-.195-.014-.501 0-.752.18-.752.515 0 .209.126.334.32.334.348 0 .613-.334.627-.835zm.64 1.49h-.724l.014-.35c-.222.28-.515.405-.918.405-.474 0-.794-.362-.794-.905 0-.821.557-1.295 1.531-1.295.098 0 .223.014.348.028.028-.111.042-.153.042-.208 0-.223-.153-.307-.557-.307-.25 0-.542.028-.737.084l-.112.042-.083.014.125-.752c.432-.125.724-.167 1.044-.167.751 0 1.141.334 1.141.974 0 .167 0 .292-.07.668l-.18 1.183-.028.209-.028.167-.014.125v.084zM23.23 6.866h-.083c-.292 0-.46.139-.724.543l.083-.515h-.793l-.529 3.34h.863c.32-2.046.404-2.394.821-2.394h.056c.084-.404.195-.696.334-.96l-.028-.014z" transform="translate(71) translate(2.633 2.006)"/>
            </g>
        </g>
        <g>
            <path fill="#0095DB" d="M30.211.357c.869 0 1.576.707 1.576 1.576v16.169c0 .868-.707 1.575-1.576 1.575H1.89c-.869 0-1.575-.707-1.575-1.575V1.932c0-.868.706-1.575 1.575-1.575H30.21zm0-.313H1.89C.847.044 0 .889 0 1.933v16.169c0 1.043.846 1.888 1.889 1.888H30.21c1.044 0 1.89-.845 1.89-1.888V1.932C32.1.89 31.254.045 30.21.045z" transform="translate(107)"/>
            <g>
                <path fill="#0097D9" d="M13.45 14.02c1.622-1.466 2.646-3.593 2.646-5.956 0-2.363-1.024-4.49-2.647-5.971C12.031.801 10.141.013 8.061.013 3.618.013.01 3.621.01 8.064S3.618 16.1 8.06 16.1c2.08 0 3.971-.787 5.39-2.079z" transform="translate(107) translate(2.696 2.132)"/>
                <path fill="#0097D9" d="M13.45 14.02c1.622-1.466 2.646-3.593 2.646-5.956 0-2.363-1.024-4.49-2.647-5.971V14.02z" transform="translate(107) translate(2.696 2.132)"/>
                <path fill="#E40520" d="M18.853.013c-2.08 0-3.97.788-5.404 2.08-.283.268-.551.551-.803.85h1.622c.221.269.426.568.615.852H12.03c-.173.283-.33.567-.472.85h3.78c.127.284.253.568.347.851h-4.458c-.095.284-.173.567-.237.867h4.932c.11.535.173 1.118.173 1.701 0 .882-.142 1.75-.41 2.553h-4.458c.094.283.205.567.33.85h3.782c-.142.284-.284.583-.457.851h-2.852c.19.3.394.583.615.85h1.622c-.252.3-.52.584-.819.852 1.434 1.292 3.325 2.08 5.404 2.08 4.443 0 8.036-3.593 8.036-8.036S23.296.014 18.853.014z" transform="translate(107) translate(2.696 2.132)"/>
                <path fill="#06326E" d="M6.8 10.302L5.792 10.302 6.391 7.166 5.02 10.302 4.169 10.302 3.996 7.182 3.334 10.302 2.42 10.302 3.192 6.221 4.784 6.221 4.799 8.742 5.902 6.221 7.588 6.221zM17.987 10.254c-.284.08-.489.11-.725.11-.504 0-.788-.251-.788-.724 0-.095.016-.205.032-.3l.063-.33.047-.252.457-2.537h.992l-.141.756h.504l-.126.804h-.52l-.268 1.386c0 .064-.016.11-.016.142 0 .174.11.237.347.237.11 0 .205 0 .268-.032l-.126.74zM14.016 8.033c0 .41.237.709.756.914.426.173.489.22.489.377 0 .205-.19.3-.583.3-.315 0-.583-.047-.914-.142l-.142.772h.048l.189.032c.063.015.142.031.268.031.236.016.425.031.551.031 1.072 0 1.56-.346 1.56-1.102 0-.457-.205-.725-.709-.93-.425-.158-.473-.205-.473-.362 0-.174.174-.268.489-.268.205 0 .472.016.74.047l.142-.756c-.268-.047-.662-.079-.898-.079-1.134 0-1.529.52-1.513 1.135zM10.046 10.302H9.21l.016-.347c-.252.268-.599.394-1.056.394-.536 0-.914-.363-.914-.898 0-.804.646-1.276 1.765-1.276.11 0 .252 0 .41.015.031-.11.031-.157.031-.204 0-.22-.173-.316-.646-.316-.284 0-.599.048-.82.095l-.141.047-.095.016.142-.74c.504-.142.835-.19 1.198-.19.866 0 1.323.347 1.323.977 0 .174-.016.284-.094.662l-.205 1.166-.032.22-.031.174-.016.11v.095zM9.368 8.82c-.11-.016-.157-.016-.236-.016-.567 0-.85.173-.85.504 0 .205.141.33.362.33.41 0 .709-.33.724-.818zM13.323 10.223c-.33.094-.662.142-1.024.142-1.119 0-1.702-.52-1.702-1.497 0-1.135.74-1.97 1.75-1.97.834 0 1.354.473 1.354 1.198 0 .252-.031.488-.126.819H11.59c-.016.063-.016.079-.016.11 0 .379.3.583.882.583.363 0 .678-.063 1.04-.22l-.173.835zm-.472-1.97V8.08c0-.268-.174-.425-.473-.425-.315 0-.552.204-.646.598h1.119zM24.005 8.79c-.142 1.102-.914 1.59-1.938 1.59-1.134 0-1.591-.677-1.591-1.528 0-1.166.772-1.97 1.97-1.97 1.04 0 1.59.662 1.59 1.498 0 .204 0 .22-.03.41zm-1.008-.395c0-.347-.142-.677-.552-.677-.504 0-.834.614-.834 1.134 0 .457.22.756.582.756.221 0 .678-.299.772-.819.016-.11.032-.252.032-.394z" transform="translate(107) translate(2.696 2.132)"/>
                <path fill="#FFF" d="M24.116 9.797c0-.142.125-.252.267-.252.142 0 .252.11.252.252 0 .142-.11.268-.252.268-.141 0-.267-.126-.267-.268zm.267.205c.11 0 .19-.095.19-.205 0-.11-.08-.189-.19-.189s-.204.079-.204.19c0 .11.094.204.204.204zm-.031-.095h-.063v-.22h.094c.032 0 .048 0 .063.016.016.015.032.031.032.047 0 .032-.016.063-.047.063l.047.094h-.063l-.032-.078h-.031v.078zm0-.097h.1v-.076h-.1v.076zM7.052 10.065L6.044 10.065 6.643 6.93 5.272 10.065 4.358 10.065 4.201 6.946 3.602 10.065 2.688 10.065 3.46 5.985 5.036 5.985 5.115 8.505 6.217 5.985 7.84 5.985zM18.239 10.018c-.284.079-.489.11-.725.11-.504 0-.788-.252-.788-.724 0-.095.016-.19.032-.3l.063-.33.047-.253.457-2.536h.993l-.142.756h.52l-.142.803h-.52l-.252 1.387c-.016.063-.032.11-.032.142 0 .173.11.252.347.252.11 0 .205-.016.268-.032l-.126.725z" transform="translate(107) translate(2.696 2.132)"/>
                <path fill="#06326E" d="M20.807 7.702l-.016-.11.19-.52c-.048 0-.064 0-.08-.016-.047 0-.078-.016-.078-.016h-.095c-.33 0-.567.142-.882.536l.11-.599h-1.04l-.614 3.324h.992c.142-.771.205-1.197.284-1.56.126-.598.567-.866.898-.803.031 0 .063 0 .11.016l.063.032.158-.284z" transform="translate(107) translate(2.696 2.132)"/>
                <path fill="#FFF" d="M21.154 6.772c-.08-.031-.095-.031-.11-.031-.048-.016-.08-.016-.08-.032h-.11c-.33 0-.567.142-.866.536l.094-.504h-.914l-.614 3.324h1.008c.363-2.032.504-2.395.993-2.395.031 0 .078.016.126.016l.11.032.363-.946zM14.268 7.796c0 .41.237.71.772.914.41.173.473.221.473.378 0 .205-.189.3-.583.3-.3 0-.583-.048-.914-.142l-.126.772h.048l.173.047c.063 0 .157.016.268.016.236.032.425.032.567.032 1.055 0 1.56-.347 1.56-1.103 0-.457-.205-.725-.725-.93-.426-.158-.473-.205-.473-.362 0-.174.174-.268.504-.268.19 0 .473.016.725.047l.142-.756c-.268-.047-.662-.063-.882-.063-1.135 0-1.529.504-1.529 1.118zM10.298 10.065h-.82l.017-.346c-.253.267-.6.394-1.056.394-.536 0-.914-.363-.914-.899 0-.803.646-1.276 1.765-1.276.11 0 .252 0 .41.016.03-.11.03-.158.03-.205 0-.22-.173-.3-.645-.3-.284 0-.599.032-.82.08l-.141.047-.095.016.142-.741c.504-.126.82-.173 1.197-.173.867 0 1.308.33 1.308.96 0 .174-.016.3-.079.662l-.204 1.182-.032.205-.031.173-.016.11-.016.095zm-.725-1.48c-.11-.017-.157-.017-.22-.017-.568 0-.851.174-.851.504 0 .205.126.347.347.347.41 0 .708-.347.724-.835zM13.59 9.986c-.346.095-.677.142-1.023.142-1.119 0-1.702-.52-1.702-1.497 0-1.134.74-1.969 1.75-1.969.818 0 1.338.473 1.338 1.197 0 .252-.031.489-.11.82h-2.001v.11c0 .378.284.583.866.583.363 0 .694-.063 1.04-.205l-.157.82zm-.535-1.969v-.173c0-.268-.173-.426-.472-.426-.316 0-.536.22-.63.599h1.102zM24.273 8.553c-.157 1.102-.93 1.591-1.954 1.591-1.118 0-1.575-.678-1.575-1.528 0-1.166.772-1.97 1.97-1.97 1.04 0 1.59.662 1.59 1.497 0 .205 0 .22-.03.41zm-1.04-.426c0-.346-.142-.661-.551-.661-.504 0-.82.598-.82 1.134 0 .441.221.74.568.74.22 0 .693-.299.772-.803.031-.126.031-.268.031-.41z" transform="translate(107) translate(2.696 2.132)"/>
            </g>
        </g>
        <g>
            <path fill="#F8AD00" d="M30.264.326c.87 0 1.576.707 1.576 1.575v16.17c0 .868-.707 1.575-1.576 1.575H1.943c-.869 0-1.575-.707-1.575-1.576V1.901c0-.868.706-1.575 1.575-1.575h28.321zm0-.314H1.943C.9.012.054.858.054 1.902V18.07c0 1.044.846 1.89 1.889 1.89h28.321c1.044 0 1.89-.846 1.89-1.89V1.901c0-1.043-.846-1.889-1.89-1.889z" transform="translate(214)"/>
            <g>
                <path fill="#E52D33" d="M3.52 2.44C.132 2.438 0 5.075.018 5.76c0 0-.166 3.083 3.419 3.083 3.08 0 3.232-1.934 3.232-1.934l-1.418.003s-.276 1.065-1.809 1.037c-1.97-.037-2.047-1.946-2.047-1.946h5.46S7.269 2.44 3.52 2.439zM1.44 5.067S1.539 3.34 3.487 3.34c1.941 0 1.941 1.727 1.941 1.727H1.441z" transform="translate(214) translate(2.57 4.64)"/>
                <path fill="#065FAA" d="M10.647 2.44C8.943 2.43 8.21 3.447 8.21 3.447V.04H6.845l.023 7.2s-.008.839-.06 1.393h1.327l.057-.809s.618 1.018 2.426 1.018c1.808 0 3.236-1.113 3.273-3.178.039-2.065-1.54-3.216-3.244-3.226zm-.313 5.483C8.183 7.95 8.218 5.64 8.218 5.64S8.139 3.42 10.33 3.362c2.191-.057 2.12 2.327 2.12 2.327s.035 2.206-2.116 2.234z" transform="translate(214) translate(2.57 4.64)"/>
                <path fill="#F8AD00" d="M20.2 7.212c.004-.93.031-1.762 0-2.349-.035-.68.029-2.322-2.911-2.443 0 0-2.82-.257-3.112 1.841h1.442s.112-.96 1.575-.933c1.384.026 1.636.705 1.629 1.54l-1.583.005c-.713.004-3.21.083-3.444 1.604-.277 1.809 1.337 2.373 2.6 2.366 1.264-.007 1.984-.385 2.52-1.063l.057.842 1.256-.007s-.032-.471-.029-1.403zm-3.568.76s-1.369.002-1.449-1.091c-.085-1.167 2.106-1.097 2.106-1.097l1.548-.002s.25 2.223-2.205 2.19z" transform="translate(214) translate(2.57 4.64)"/>
                <path fill="#6CB22D" d="M19.453 2.668L21.038 2.668 23.355 7.287 25.677 2.668 27.109 2.668 22.917 10.903 21.385 10.903 22.598 8.615z" transform="translate(214) translate(2.57 4.64)"/>
            </g>
        </g>
        <g>
            <path fill="#0098D0" d="M30.264.326c.87 0 1.576.707 1.576 1.575v16.17c0 .868-.707 1.575-1.576 1.575H1.943c-.869 0-1.575-.707-1.575-1.576V1.901c0-.868.706-1.575 1.575-1.575h28.321zm0-.314H1.943C.9.012.054.858.054 1.902V18.07c0 1.044.846 1.89 1.889 1.89h28.321c1.044 0 1.89-.846 1.89-1.89V1.901c0-1.043-.846-1.889-1.89-1.889z" transform="translate(36)"/>
            <g>
                <path fill="url(#prefix__b)" d="M2.225 3.324V2.69s-.034-.496-.552-.496H.867v1.13H.04V.064h2.008s1.048-.126 1.048.955c0 .562-.463.76-.463.76s.402.189.402.74v.805h-.81M.867 1.427h.856c.248 0 .452-.138.452-.309 0-.17-.204-.309-.452-.309H.867v.618" transform="translate(36) translate(2.633 5.643) translate(11.661)"/>
                <path fill="url(#prefix__c)" d="M7.475 3.324L6.162 1.146v2.178H4.54l-.292-.683H2.736l-.287.683H1.153S.039 3.164.039 1.786c0-1.81 1.263-1.738 1.307-1.75l1.02.029v.733L1.529.81s-.546 0-.612.712c-.008.082-.012.157-.011.227.003 1.102.956.76.988.75L2.918.064h1.159l1.24 2.956V.065h1.17L7.784 2.21V.065h.833v3.26H7.475M3.09 1.807h.805L3.498.837l-.408.97" transform="translate(36) translate(2.633 5.643) translate(16.175)"/>
                <path fill="url(#prefix__d)" d="M7.393 3.262v-2.25l-1.037 2.25h-.678l-1.043-2.24v2.24H3.003l-.287-.684H1.204l-.292.684H.007L1.381.002h1.164l1.257 2.995V.002H5.11l.91 2.024.905-2.024h1.307v3.26h-.839M1.557 1.745h.805L1.96.775l-.403.97" transform="translate(36) translate(2.633 5.643) translate(0 .063)"/>
                <path fill="url(#prefix__e)" d="M0.038 3.262L0.038 0.002 2.62 0.002 2.62 0.763 0.871 0.763 0.871 1.265 2.576 1.265 2.576 2.004 0.871 2.004 0.871 2.556 2.62 2.556 2.62 3.262 0.038 3.262" transform="translate(36) translate(2.633 5.643) translate(8.652 .063)"/>
                <path fill="url(#prefix__f)" d="M0.053 3.273L0.053 0.002 0.886 0.002 0.886 3.273 0.053 3.273" transform="translate(36) translate(2.633 5.643) translate(15.047 .063)"/>
                <g>
                    <path fill="url(#prefix__g)" d="M2.221 3.272v-.634s-.033-.497-.551-.497H.864v1.131H.037V.012h2.008s1.048-.127 1.048.954c0 .563-.463.762-.463.762s.397.187.397.738v.806h-.806M.864 1.375h.856c.248 0 .452-.138.452-.31 0-.17-.204-.308-.452-.308H.864v.618" transform="translate(36) translate(2.633 5.643) translate(5.956 5.517) translate(8.903 .063)"/>
                    <path fill="url(#prefix__h)" d="M5.608 3.33h-.723l-.877-.966-.883.965H.047V.064H3.06L4.01 1.1 4.962.069h.634V.064h2.008s1.048-.116 1.048.96c0 .96-.348 1.257-1.418 1.257h-.81V3.33h-.817M4.57 1.725L5.597 2.86V.593L4.57 1.725m-3.69.899h1.742l.817-.9L2.623.83H.88v.502h1.7v.74H.88v.552M6.424 1.43h.855c.248 0 .453-.137.453-.309 0-.17-.205-.308-.453-.308h-.855v.617" transform="translate(36) translate(2.633 5.643) translate(5.956 5.517)"/>
                    <path fill="url(#prefix__i)" d="M1.595 3.261H.122v-.75h1.291s.463.055.463-.259c0-.293-.7-.27-.7-.27S.034 2.08.034 1.01C.034-.054 1.065.007 1.065.007h1.59v.76h-1.28S.933.68.933 1c0 .27.601.231.601.231s1.264-.093 1.264.888c0 1.053-.814 1.146-1.103 1.146-.062 0-.1-.004-.1-.004" transform="translate(36) translate(2.633 5.643) translate(5.956 5.517) translate(15.172 .063)"/>
                    <path fill="url(#prefix__j)" d="M0.05 3.267L0.05 0.012 2.631 0.012 2.631 0.768 0.882 0.768 0.882 1.269 2.587 1.269 2.587 2.009 0.882 2.009 0.882 2.561 2.631 2.561 2.631 3.267 0.05 3.267" transform="translate(36) translate(2.633 5.643) translate(5.956 5.517) translate(12.288 .063)"/>
                    <path fill="url(#prefix__k)" d="M1.566 3.261H.093v-.75H1.38s.469.055.469-.259c0-.293-.7-.27-.7-.27S.005 2.08.005 1.01C.005-.054 1.037.007 1.037.007H2.62v.76H1.346S.904.68.904 1c0 .27.602.231.602.231s1.263-.093 1.263.888c0 1.053-.814 1.146-1.102 1.146-.063 0-.1-.004-.1-.004" transform="translate(36) translate(2.633 5.643) translate(5.956 5.517) translate(18.119 .063)"/>
                </g>
            </g>
        </g>
    </g>
</svg>
