<?xml version="1.0" encoding="UTF-8"?>
<svg width="20px" height="20px" viewBox="0 0 20 20" version="1.1" xmlns="http://www.w3.org/2000/svg" xmlns:xlink="http://www.w3.org/1999/xlink">
    <!-- Generator: Sketch 63.1 (92452) - https://sketch.com -->
    <title>review</title>
    <desc>Created with Sketch.</desc>
    <g id="DB_2.0" stroke="none" stroke-width="1" fill="none" fill-rule="evenodd">
        <g id="v1_1Admin_Dashboard" transform="translate(-1121.000000, -406.000000)" fill="#FFFFFF" fill-rule="nonzero">
            <g id="Group-12" transform="translate(1109.000000, 317.000000)">
                <g id="Stats-Block-#2" transform="translate(0.000000, 75.000000)">
                    <path d="M21.5985698,14 C26.9001514,14 31.1972184,18.297067 31.1964618,23.5978921 C31.1964618,24.6366387 31.031141,25.6534675 30.7116035,26.6179756 L30.7116035,26.6179756 L30.592,26.955 L31.8556573,30.4092117 C32.3921525,31.8714796 31.3234275,32.9797196 29.8958707,32.5135568 L29.8958707,32.5135568 L29.7566417,32.4634884 L27.132,31.435 L27.0562163,31.4906267 C25.5605643,32.5275749 23.7989921,33.1242721 21.9468625,33.1908837 L21.9468625,33.1908837 L21.5985698,33.1971395 C16.2970119,33.1971395 12,28.9001276 12,23.5985698 C12,18.2972338 16.2974677,14 21.5985698,14 Z M21.5985698,15 C16.8499744,15 13,18.8492967 13,23.5985698 C13,28.3478429 16.8492967,32.1971395 21.5985698,32.1971395 C23.6357152,32.1971395 25.5047927,31.4848841 26.9780974,30.301632 L26.9780974,30.301632 L30.1212379,31.5323226 L30.2337434,31.5720022 C30.8531297,31.764673 31.1594261,31.4148182 30.9168496,30.7536533 L30.9168496,30.7536533 L29.5221572,26.9416297 L29.6596917,26.5954187 C30.0069086,25.6623627 30.1964618,24.6520813 30.1964618,23.5978921 C30.1971395,18.8492967 26.3478429,15 21.5985698,15 Z M17.5,22 C18.3284271,22 19,22.6715729 19,23.5 C19,24.3284271 18.3284271,25 17.5,25 C16.6715729,25 16,24.3284271 16,23.5 C16,22.6715729 16.6715729,22 17.5,22 Z M21.5,22 C22.3284271,22 23,22.6715729 23,23.5 C23,24.3284271 22.3284271,25 21.5,25 C20.6715729,25 20,24.3284271 20,23.5 C20,22.6715729 20.6715729,22 21.5,22 Z M25.5,22 C26.3284271,22 27,22.6715729 27,23.5 C27,24.3284271 26.3284271,25 25.5,25 C24.6715729,25 24,24.3284271 24,23.5 C24,22.6715729 24.6715729,22 25.5,22 Z" id="review"></path>
                </g>
            </g>
        </g>
    </g>
</svg>