<svg xmlns="http://www.w3.org/2000/svg" width="14" height="14" viewBox="0 0 14 14">
    <g fill="none" fill-rule="nonzero" stroke="#0F8DD0" stroke-width=".3">
        <path fill="#0F8DD0" d="M11.468 13h-8.68V2.532h8.68V13zm-8.17-.51h7.66V3.042h-7.66v9.446z"/>
        <path fill="#0E8CCF" d="M9.936 3.043H4.32V1h5.617v2.043zM4.83 2.532h4.596V1.51H4.83v1.02z"/>
        <path fill="#0F8DD0" d="M5.085 11.213a.255.255 0 0 1-.255-.256V4.574a.255.255 0 1 1 .51 0v6.383a.255.255 0 0 1-.255.256zm2.043 0a.255.255 0 0 1-.256-.256V4.574a.255.255 0 1 1 .511 0v6.383a.255.255 0 0 1-.255.256zm2.042 0a.255.255 0 0 1-.255-.256V4.574a.255.255 0 1 1 .51 0v6.383a.255.255 0 0 1-.255.256zM1 2.532h12.255v.51H1v-.51z"/>
    </g>
</svg>
