<svg xmlns="http://www.w3.org/2000/svg" width="15" height="16" viewBox="0 0 15 16">
    <path fill="#6BB670" fill-rule="nonzero" d="M7.5 13.867c2.959 0 5.357-2.388 5.357-5.334a5.317 5.317 0 0 0-2.143-4.267v-2.48A7.465 7.465 0 0 1 15 8.532C15 12.657 11.642 16 7.5 16 3.358 16 0 12.657 0 8.533a7.465 7.465 0 0 1 4.286-6.748v2.481a5.317 5.317 0 0 0-2.143 4.267c0 2.946 2.398 5.334 5.357 5.334zm0-5.334A1.065 1.065 0 0 1 6.429 7.47V1.063a1.072 1.072 0 0 1 2.142 0V7.47c0 .58-.48 1.063-1.071 1.063z"/>
</svg>
