<svg xmlns="http://www.w3.org/2000/svg" width="16" height="16" viewBox="0 0 16 16">
    <g fill="none" fill-rule="evenodd">
        <circle cx="8" cy="8" r="8" fill="#0F8DD0"/>
        <path fill="#FFF" d="M7 11h2v2H7v-2zm-.822-7.5c.465-.333 1.037-.5 1.715-.5.892 0 1.633.237 2.222.711.59.474.885 1.177.885 2.107 0 .571-.128 1.052-.385 1.443-.15.237-.437.54-.864.908l-.42.363c-.228.197-.38.428-.455.691-.048.167-.073.426-.077.777H7.2c.024-.742.087-1.254.19-1.538.102-.283.366-.609.792-.978l.432-.375a1.61 1.61 0 0 0 .344-.388c.157-.242.236-.507.236-.797 0-.334-.088-.638-.263-.912-.176-.275-.496-.412-.962-.412-.457 0-.782.17-.973.507a2.11 2.11 0 0 0-.287 1.054H5c.047-1.251.44-2.138 1.178-2.66z"/>
    </g>
</svg>
