<svg xmlns="http://www.w3.org/2000/svg" width="16" height="12" viewBox="0 0 16 12">
    <g fill="#0F8DD0" fill-rule="nonzero">
        <path d="M13.832 11.81H1.358c-.726 0-1.326-.6-1.326-1.326V1.58c0-.726.6-1.326 1.326-1.326h12.474c.726 0 1.326.6 1.326 1.326v8.905c0 .727-.6 1.327-1.326 1.327zM1.326 1.106a.432.432 0 0 0-.442.442v8.906c0 .252.19.442.442.442H13.8c.253 0 .442-.19.442-.442V1.547a.432.432 0 0 0-.442-.442H1.326z"/>
        <path d="M10.821 5.526c-.979 0-1.737-.79-1.737-1.737 0-.947.79-1.736 1.737-1.736.947 0 1.737.79 1.737 1.736 0 .948-.79 1.737-1.737 1.737zm0-2.684a.916.916 0 1 0 .001 1.833.916.916 0 0 0 0-1.833zM12.19 11.653L4.894 4.8.726 8.653l-.568-.6 4.737-4.39 7.863 7.39-.569.6"/>
    </g>
</svg>
