<svg xmlns="http://www.w3.org/2000/svg" width="20" height="20" viewBox="0 0 20 20">
    <g fill="none" fill-rule="evenodd">
        <path fill="#0F8DD0" d="M0 4a4 4 0 0 1 4-4h16v17.006A2.996 2.996 0 0 1 17.006 20H0V4z"/>
        <path fill="#FFF" d="M14.8 10a.667.667 0 0 1-.667.667H5.867a.667.667 0 0 1 0-1.334h8.266c.369 0 .667.299.667.667zm0-3.2a.667.667 0 0 1-.667.667H5.867a.667.667 0 0 1 0-1.334h8.266c.369 0 .667.299.667.667zm0 6.4a.667.667 0 0 1-.667.667H5.867a.667.667 0 0 1 0-1.334h8.266c.369 0 .667.299.667.667z"/>
    </g>
</svg>
