<svg xmlns="http://www.w3.org/2000/svg" width="14" height="12" viewBox="0 0 14 12">
    <g fill="none" fill-rule="evenodd">
        <path stroke="#0F8DD0" d="M1.256 8.012s-.023 1.84.773 2.447c.795.608 1.594.552 1.594.552h7.298s.78.04 1.541-.552c.76-.59.794-2.447.794-2.447"/>
        <path fill="#0F8DD0" fill-rule="nonzero" d="M7.293.293l2.935 2.935a.415.415 0 0 1-.587.586L7.412 1.586v6.317a.412.412 0 1 1-.824 0V1.586L4.359 3.814a.415.415 0 0 1-.587-.586L6.707.293a.423.423 0 0 1 .586 0z"/>
    </g>
</svg>
