<svg xmlns="http://www.w3.org/2000/svg" width="14" height="14" viewBox="0 0 14 14">
    <g fill="#0F8DD0" fill-rule="nonzero" stroke="#0F8DD0" stroke-width=".3">
        <path d="M3.353 13.747a2.563 2.563 0 0 1-1.824-.755l-.521-.52a2.582 2.582 0 0 1 0-3.648l3.387-3.386a2.563 2.563 0 0 1 1.823-.756c.69 0 1.337.268 1.824.756l.52.52a.368.368 0 1 1-.52.521l-.521-.52a1.83 1.83 0 0 0-1.303-.54 1.83 1.83 0 0 0-1.303.54L1.53 9.344a1.844 1.844 0 0 0 0 2.605l.52.52c.349.348.811.54 1.304.54a1.83 1.83 0 0 0 1.302-.54L7 10.127a.368.368 0 1 1 .52.521l-2.344 2.345a2.56 2.56 0 0 1-1.823.755z"/>
        <path d="M7.781 9.318a2.562 2.562 0 0 1-1.823-.755.368.368 0 1 1 .521-.521c.348.348.81.54 1.302.54a1.83 1.83 0 0 0 1.303-.54l3.387-3.387a1.844 1.844 0 0 0 0-2.604l-.52-.522a1.844 1.844 0 0 0-2.606 0L7 3.874a.368.368 0 1 1-.52-.521l2.344-2.345a2.582 2.582 0 0 1 3.647 0l.52.522a2.581 2.581 0 0 1 0 3.646L9.606 8.563a2.562 2.562 0 0 1-1.824.755z"/>
    </g>
</svg>
