<?xml version="1.0" encoding="UTF-8" standalone="no"?>
<svg width="19px" height="20px" viewBox="0 0 19 20" version="1.1" xmlns="http://www.w3.org/2000/svg"
     xmlns:xlink="http://www.w3.org/1999/xlink">
    <path d="M18.4690712,16.775 L16.4283569,13.3735714 L16.4283569,8.57142857 C16.4283569,4.87357143 13.6040712,1.82428571 9.99978546,1.465 L9.99978546,0.714285714 C9.99978546,0.32 9.67978546,0 9.28549974,0 C8.89121403,0 8.57121403,0.32 8.57121403,0.714285714 L8.57121403,2.14285714 C8.57121403,2.53714286 8.89121403,2.85714286 9.28549974,2.85714286 C12.436214,2.85714286 14.9997855,5.42071429 14.9997855,8.57142857 L14.9997855,13.5714286 C14.9997855,13.7014286 15.0347855,13.8278571 15.1019283,13.9392857 L16.5947855,16.4285714 L1.97549974,16.4285714 L3.46907117,13.9392857 C3.53621403,13.8278571 3.57121403,13.7014286 3.57121403,13.5714286 L3.57121403,8.57142857 C3.57121403,6.37214286 4.85692831,4.34285714 6.84621403,3.40142857 C7.2026426,3.23285714 7.35478546,2.80714286 7.18621403,2.45 C7.0176426,2.09357143 6.59192831,1.94142857 6.23478546,2.11 C3.74907117,3.28642857 2.1426426,5.82214286 2.1426426,8.57142857 L2.1426426,13.3735714 L0.101928314,16.7757143 C-0.0309288285,16.9964286 -0.0337859714,17.2707143 0.0926426,17.4957143 C0.219071171,17.7192857 0.456928314,17.8571429 0.714071171,17.8571429 L6.52978546,17.8571429 C6.84907117,19.0864286 7.95835689,20 9.28549974,20 C10.6133569,20 11.7219283,19.0864286 12.041214,17.8571429 L17.8569283,17.8571429 C18.1140712,17.8571429 18.351214,17.7192857 18.4783569,17.495 C18.6054997,17.2707143 18.6019283,16.9957143 18.4690712,16.775 Z M9.28549974,18.5714286 C8.75907117,18.5714286 8.30335689,18.2821429 8.05549974,17.8571429 L10.5147855,17.8571429 C10.2676426,18.2821429 9.81192831,18.5714286 9.28549974,18.5714286 Z"
          id="Shape"></path>
</svg>