<svg xmlns="http://www.w3.org/2000/svg" width="16" height="16" viewBox="0 0 16 16">
    <g fill="none" fill-rule="evenodd">
        <path fill="#CCC" fill-rule="nonzero" d="M2.572 0h10.856c.316 0 .572.259.572.577v14.846a.575.575 0 0 1-.572.577H2.572A.575.575 0 0 1 2 15.423V.577C2 .26 2.256 0 2.572 0zM3 1v14h10V1H3zm1.5 1h7c.276 0 .5.207.5.462v2.076c0 .255-.224.462-.5.462h-7c-.276 0-.5-.207-.5-.462V2.462C4 2.207 4.224 2 4.5 2zm.876 1h5.248c.208 0 .376.069.376.154v.692c0 .085-.168.154-.376.154H5.376C5.168 4 5 3.931 5 3.846v-.692C5 3.069 5.168 3 5.376 3zM4.42 6H5.58C5.81 6 6 6.189 6 6.421V7.58A.421.421 0 0 1 5.579 8H4.42A.421.421 0 0 1 4 7.579V6.42C4 6.19 4.189 6 4.421 6zm6 0h1.158c.232 0 .421.189.421.421V7.58a.421.421 0 0 1-.421.421H10.42A.421.421 0 0 1 10 7.579V6.42c0-.232.189-.421.421-.421zm-3 0H8.58C8.81 6 9 6.189 9 6.421V7.58A.421.421 0 0 1 8.579 8H7.42A.421.421 0 0 1 7 7.579V6.42C7 6.19 7.189 6 7.421 6zm-3 6H5.58c.232 0 .421.189.421.421v1.158a.421.421 0 0 1-.421.421H4.42A.421.421 0 0 1 4 13.579V12.42c0-.232.189-.421.421-.421zm3 0H8.58c.232 0 .421.189.421.421v1.158a.421.421 0 0 1-.421.421H7.42A.421.421 0 0 1 7 13.579V12.42c0-.232.189-.421.421-.421zm3 0h1.158c.232 0 .421.189.421.421v1.158a.421.421 0 0 1-.421.421H10.42a.421.421 0 0 1-.421-.421V12.42c0-.232.189-.421.421-.421zm-6-3H5.58C5.81 9 6 9.189 6 9.421v1.158a.421.421 0 0 1-.421.421H4.42A.421.421 0 0 1 4 10.579V9.42C4 9.19 4.189 9 4.421 9zm3 0H8.58C8.81 9 9 9.189 9 9.421v1.158a.421.421 0 0 1-.421.421H7.42A.421.421 0 0 1 7 10.579V9.42C7 9.19 7.189 9 7.421 9zm3 0h1.158c.232 0 .421.189.421.421v1.158a.421.421 0 0 1-.421.421H10.42a.421.421 0 0 1-.421-.421V9.42c0-.232.189-.421.421-.421z"/>
        <path fill="#FFF" d="M5 3h6v1H5V3zm0 4h1v1H5V7zm3 3h1v1H8v-1zm-3 3h1v1H5v-1zm3 0h1v1H8v-1zm3-3h1v1h-1v-1zm0 3h1v1h-1v-1zm0-6h1v1h-1V7zm-6 3l1-1v2H4l1-1zm3-3l1-1v2H7l1-1zm3-3l1-1v2h-2l1-1zm2-2l1-1v2h-2l1-1zM2 13l1-1v2H1l1-1z"/>
        <path fill="#CCC" d="M0 14.142L14.144 0l.707.707L.708 14.85z"/>
        <path fill="#FFF" d="M.575 15.218L14.718 1.075l.707.707L1.282 15.925z"/>
    </g>
</svg>
