<?xml version="1.0" encoding="UTF-8" standalone="no"?>
<svg width="12px" height="12px" viewBox="0 0 12 12" version="1.1" xmlns="http://www.w3.org/2000/svg" xmlns:xlink="http://www.w3.org/1999/xlink">
    <defs></defs>
    <g id="Page-1" stroke="none" stroke-width="1" fill="none" fill-rule="evenodd">
        <g id="Attachments" transform="translate(-791.000000, -214.000000)" fill="#526AA7">
            <g id="Group-12" transform="translate(791.000000, 214.000000)">
                <path d="M11.625,8.25 C11.418,8.25 11.25,8.418 11.25,8.625 L11.25,11.25 L0.75,11.25 L0.75,8.625 C0.75,8.418 0.582,8.25 0.375,8.25 C0.168,8.25 0,8.418 0,8.625 L0,11.625 C0,11.832 0.168,12 0.375,12 L11.625,12 C11.832,12 12,11.832 12,11.625 L12,8.625 C12,8.418 11.832,8.25 11.625,8.25 Z" id="Shape"></path>
                <path d="M5.72625,8.890125 C5.872125,9.0345 6.11625,9.036 6.262125,8.890125 L8.88675,6.302625 C9.034875,6.156 9.0345,5.918625 8.88675,5.772375 C8.739,5.62575 8.499,5.62575 8.35125,5.772375 L6.373125,7.722375 L6.373125,0.375 C6.373125,0.168 6.203625,0 5.994375,0 C5.785125,0 5.615625,0.168 5.615625,0.375 L5.615625,7.722375 L3.6375,5.772375 C3.489375,5.62575 3.24975,5.62575 3.102,5.772375 C2.953875,5.919 2.953875,6.156375 3.102,6.302625 L5.72625,8.890125 Z" id="Shape"></path>
            </g>
        </g>
    </g>
</svg>