<?xml version="1.0" encoding="UTF-8" standalone="no"?>
<svg width="14px" height="11px" viewBox="0 0 14 11" version="1.1" xmlns="http://www.w3.org/2000/svg" xmlns:xlink="http://www.w3.org/1999/xlink">
    <defs></defs>
    <g id="Dashboard" stroke="none" stroke-width="1" fill="none" fill-rule="evenodd">
        <g id="Marketplace" transform="translate(-1884.000000, -889.000000)">
            <g id="1" transform="translate(1693.000000, 854.000000)">
                <g id="Group-7">
                    <g id="arrow" transform="translate(192.000000, 35.000000)">
                        <path d="M0.256286621,8.01196289 C0.256286621,8.01196289 0.234098272,9.53874471 0.997619629,10.0426636 C1.76114099,10.5465824 2.52728271,10.5 2.52728271,10.5 L9.53118896,10.5 C9.53118896,10.5 10.2804247,10.5329887 11.010376,10.0426636 C11.7403272,9.55233842 11.7723999,8.01196289 11.7723999,8.01196289" id="Line" stroke="#979797"></path>
                        <path d="M8.58504728,1.24264069 L4.4355201,1.24264069 C4.2064662,1.24264069 4.02056738,1.4285395 4.02056738,1.65759341 C4.02056738,1.88664731 4.2064662,2.07254612 4.4355201,2.07254612 L7.58750095,2.07254612 L3.12075124,6.53929583 C2.95974959,6.70029748 2.95974959,6.96088779 3.12075124,7.12188945 C3.2817529,7.2828911 3.54275816,7.2828911 3.70334486,7.12188945 L8.17009456,2.65513974 L8.17009456,5.80712059 C8.17009456,6.03617449 8.35599338,6.2220733 8.58504728,6.2220733 C8.81410118,6.2220733 9,6.03617449 9,5.80712059 L9,1.65759341 C9,1.43434884 8.80829184,1.24264069 8.58504728,1.24264069 Z" id="Shape" fill="#9B9B9B" transform="translate(6.000000, 4.242641) rotate(135.000000) translate(-6.000000, -4.242641) "></path>
                    </g>
                </g>
            </g>
        </g>
    </g>
</svg>