<svg xmlns="http://www.w3.org/2000/svg" width="24" height="24" viewBox="0 0 24 24">
    <g fill="none" fill-rule="evenodd">
        <circle cx="12" cy="12" r="12" fill="#0F8DD0"/>
        <path fill="#FFF" d="M13.547 17.27a.438.438 0 0 1 .43.743c-.046.041-1.136.986-2.755.986-.278 0-.56-.03-.835-.085-.772-.157-1.37-.597-1.68-1.239-.382-.783-.306-1.785.214-2.822l.875-1.745c.466-.93.192-1.124.044-1.227-.029-.02-.121-.068-.351-.068-.42 0-.905.162-.91.163a.437.437 0 0 1-.43-.742c.045-.04 1.134-.985 2.752-.985.279 0 .56.028.838.085.77.157 1.369.598 1.68 1.239.382.784.305 1.786-.214 2.822l-.875 1.745c-.468.93-.195 1.122-.048 1.225.03.02.124.069.356.069.42 0 .904-.161.909-.163zm-.734-7.895a2.187 2.187 0 1 1 0-4.375 2.187 2.187 0 0 1 0 4.375z"/>
    </g>
</svg>
