<?xml version="1.0" encoding="UTF-8" standalone="no"?>
<svg width="12px" height="12px" viewBox="0 0 12 12" version="1.1" xmlns="http://www.w3.org/2000/svg" xmlns:xlink="http://www.w3.org/1999/xlink">
    <defs></defs>
    <g id="Page-1" stroke="none" stroke-width="1" fill="none" fill-rule="evenodd">
        <g id="Attachments" transform="translate(-364.000000, -314.000000)" fill="#0f8dd0">
            <g id="Group-10" transform="translate(31.000000, 40.000000)">
                <g id="Group-3" transform="translate(1.000000, 122.000000)">
                    <g id="Group-4" transform="translate(2.000000, 40.000000)">
                        <g id="1481815470_office-47" transform="translate(330.000000, 112.000000)">
                            <g id="Group">
                                <path d="M8.45,3.29642857 C8.25,3.11071429 7.95,3.11071429 7.75,3.29642857 L3.55,7.19642857 C3.35,7.38214286 3.35,7.66071429 3.55,7.84642857 C3.75,8.03214286 4.05,8.03214286 4.25,7.84642857 L8.45,3.94642857 C8.65,3.76071429 8.65,3.48214286 8.45,3.29642857 Z" id="Shape"></path>
                                <path d="M4.25,10.4464286 L6,8.82142857 C6.7,8.17142857 6.9,7.19642857 6.55,6.36071429 L5.7,7.15 C5.7,7.52142857 5.6,7.89285714 5.25,8.21785714 L3.5,9.84285714 C2.9,10.4 1.95,10.4 1.4,9.84285714 C0.8,9.28571429 0.8,8.40357143 1.4,7.89285714 L3.15,6.26785714 C3.45,5.98928571 3.9,5.85 4.3,5.85 L5.15,5.06071429 C4.25,4.73571429 3.2,4.875 2.5,5.57142857 L0.75,7.19642857 C-0.2,8.07857143 -0.2,9.56428571 0.75,10.4464286 C1.7,11.375 3.3,11.375 4.25,10.4464286 Z" id="Shape"></path>
                                <path d="M6.7,2.97142857 L8.45,1.34642857 C9.05,0.789285714 10,0.789285714 10.55,1.34642857 C11.1,1.90357143 11.15,2.78571429 10.55,3.29642857 L8.8,4.92142857 C8.5,5.2 8.05,5.33928571 7.65,5.33928571 L6.8,6.12857143 C7.7,6.45357143 8.75,6.26785714 9.45,5.61785714 L11.2,3.99285714 C12.15,3.11071429 12.15,1.625 11.2,0.742857143 C10.25,-0.139285714 8.65,-0.139285714 7.7,0.742857143 L6,2.32142857 C5.3,2.97142857 5.1,3.94642857 5.45,4.78214286 L6.3,3.99285714 C6.25,3.62142857 6.4,3.25 6.7,2.97142857 Z" id="Shape"></path>
                            </g>
                        </g>
                    </g>
                </g>
            </g>
        </g>
    </g>
</svg>