<svg height="30" viewBox="0 0 30 30" width="30" xmlns="http://www.w3.org/2000/svg"><g fill="none" fill-rule="evenodd"><path d="m3.98889252.00001402h21.97247668c2.2030373 0 3.9888785 1.78612149 3.9888785 3.98901869v21.96728969c0 2.2031776-1.7858412 3.9888785-3.9888785 3.9888785h-21.97247668c-2.20303738 0-3.9888785-1.7857009-3.9888785-3.9888785v-21.96728969c0-2.2028972 1.78584112-3.98901869 3.9888785-3.98901869" fill="#f28c3f"/><g fill="#fefefe"><path d="m22.8940654 14.5547383c-.4528037.4532243-1.3361215 1.3375234-2.0526168 2.0545795.7149533.715514 1.5926635 1.5943458 2.0436449 2.0456074.1756542.1759346.2983177.4413084.2983177.6919627v3.612056c0 .4083645-.0860748.4630374-.492757.4630374-1.4050935 0-1.418271-.0009813-1.7129439-.0009813v-2.7464019c0-.3514486-.0552337-.5136448-.2957944-.7578504-.3871963-.3932243-1.4732243-1.4897664-1.8672897-1.89-.214486-.2178505-.5275234-.3144393-.7999066-.3144393h-6.0769626c-.272243 0-.5852804.0965888-.7999065.3144393-.3940655.4002336-1.48009349 1.4967757-1.86742994 1.89-.24028037.2442056-.2956542.4064018-.2956542.7578504v2.248458c0 .3992523-.10640187.505514-.5132243.505514-.22093458 0-.2978972.0007009-1.70705608.0007009v-4.0823831c0-.2506543.12280374-.5160281.29845795-.6919627.45252336-.4528037 1.33471962-1.3359813 2.0506542-2.0528972-.71509346-.7156542-1.59406542-1.5956074-2.0453271-2.0472897-.17579439-.1760747-.29859813-.4414486-.29859813-.6919626v-7.33051402c1.97831775 0 1.88607476.0011215 2.21607476.0011215v5.99873832c0 .3513084.05523365.5136449.2957944.7578505.38705607.3932243 1.47308414 1.4897663 1.86728974 1.8898598.214486.2179906.5276635.3144392.7997663.3144392h6.0751402c.272243 0 .585-.0964486.7999066-.3144392.3939252-.4000935 1.4799532-1.4966355 1.8671495-1.8898598.2405607-.2442056.2957944-.4065421.2957944-.7578505v-5.99873832c.33 0 .2378972-.0011215 2.2160748-.0011215v7.33051402c0 .250514-.1226636.5158879-.2985982.6919626"/><path d="m11.2906542 12.3476636h1.6418692v-1.635h-1.6418692z"/><path d="m17.3554206 12.3476636h1.6418691v-1.635h-1.6418691z"/><path d="m11.2906542 9.32985981h1.6418692v-1.63485981h-1.6418692z"/><path d="m17.3627103 9.32985981h1.6418691v-1.63485981h-1.6418691z"/><path d="m14.3303271 12.3549533h1.6418692v-1.635h-1.6418692z"/><path d="m14.3303271 9.32985981h1.6418692v-1.63485981h-1.6418692z"/></g><path d="m9.08641121 25.0686869c-.72364485 0-1.32841121-.5028505-1.48794392-1.1777103h1.21247664c.34289719 0 .62088785-.2779906.62088785-.6208878v-1.2215888c.67864482.156729 1.18500002.7634579 1.18500002 1.4897664 0 .8451869-.68523367 1.5304205-1.53042059 1.5304205" fill="#a7573e"/><path d="m23.3109393 25.0686869c-.7212617 0-1.3239253-.4993458-1.4861215-1.1704205h1.2103738c.3428972 0 .621028-.2779907.621028-.6208879v-1.2288785c.6787851.156729 1.185.7634579 1.185 1.4897664 0 .8451869-.6850934 1.5304205-1.5302803 1.5304205" fill="#a7573e"/></g></svg>