<?xml version="1.0" encoding="UTF-8"?>
<svg width="20px" height="17px" viewBox="0 0 20 17" version="1.1" xmlns="http://www.w3.org/2000/svg" xmlns:xlink="http://www.w3.org/1999/xlink">
    <!-- Generator: Sketch 63.1 (92452) - https://sketch.com -->
    <title>Combined Shape</title>
    <desc>Created with Sketch.</desc>
    <g id="DB_2.0" stroke="none" stroke-width="1" fill="none" fill-rule="evenodd">
        <g id="v1_1Admin_Dashboard" transform="translate(-1121.000000, -348.000000)" fill="#FFFFFF" fill-rule="nonzero">
            <g id="Group-12" transform="translate(1109.000000, 317.000000)">
                <g id="Stats-Block-#2" transform="translate(0.000000, 15.000000)">
                    <path d="M21.0897131,17.1290783 C21.545527,16.3925126 22.4281316,16.3933685 22.8834386,17.1290655 L22.8834386,17.1290655 L31.137385,30.4660055 C31.7767053,31.4990357 31.2157009,32.5 30.0059762,32.5 L30.0059762,32.5 L13.9677942,32.5 C12.750342,32.5 12.1942169,31.5036225 12.8363243,30.4660187 L12.8363243,30.4660187 Z M21.986571,17.5769737 L21.9785355,17.5856799 L21.9400584,17.6553033 L13.6866697,30.9922436 C13.457053,31.3632893 13.5333577,31.5 13.9677942,31.5 L13.9677942,31.5 L30.0059762,31.5 C30.4336721,31.5 30.5133286,31.357874 30.2870555,30.9922562 L30.2870555,30.9922562 L22.0331091,17.6553161 C21.9900054,17.5856681 21.9917381,17.5624677 21.9785355,17.5856799 Z M22,29 C22.4142136,29 22.75,29.3357864 22.75,29.75 C22.75,30.1642136 22.4142136,30.5 22,30.5 C21.5857864,30.5 21.25,30.1642136 21.25,29.75 C21.25,29.3357864 21.5857864,29 22,29 Z M22,21.5 C22.382343,21.5 22.6939322,21.7813159 22.7432085,22.1463043 L22.75,22.2477726 L22.75,26.7522274 C22.75,27.1602228 22.4142135,27.5 22,27.5 C21.6176571,27.5 21.3060678,27.2186841 21.2567915,26.8536957 L21.25,26.7522274 L21.25,22.2477726 C21.25,21.8397772 21.5857865,21.5 22,21.5 Z" id="Combined-Shape"></path>
                </g>
            </g>
        </g>
    </g>
</svg>