<?xml version="1.0" encoding="UTF-8" standalone="no"?>
<svg width="22px" height="18px" viewBox="0 0 22 18" version="1.1" xmlns="http://www.w3.org/2000/svg" xmlns:xlink="http://www.w3.org/1999/xlink">
    <g id="Dashboard" stroke="none" stroke-width="1" fill="none" fill-rule="evenodd">
        <g id="Marketplace" transform="translate(-241.000000, -480.000000)" fill="#708692">
            <g id="Menu" transform="translate(0.000000, 459.000000)">
                <g id="Group-14">
                    <path d="M241,22 C241,21.4477153 241.439458,21 242.002462,21 L261.997538,21 C262.551183,21 263,21.4438648 263,22 C263,22.5522847 262.560542,23 261.997538,23 L242.002462,23 C241.448817,23 241,22.5561352 241,22 Z M241,30 C241,29.4477153 241.439458,29 242.002462,29 L261.997538,29 C262.551183,29 263,29.4438648 263,30 C263,30.5522847 262.560542,31 261.997538,31 L242.002462,31 C241.448817,31 241,30.5561352 241,30 Z M241,38 C241,37.4477153 241.439458,37 242.002462,37 L261.997538,37 C262.551183,37 263,37.4438648 263,38 C263,38.5522847 262.560542,39 261.997538,39 L242.002462,39 C241.448817,39 241,38.5561352 241,38 Z" id="Combined-Shape"></path>
                </g>
            </g>
        </g>
    </g>
</svg>