<svg xmlns="http://www.w3.org/2000/svg" width="20" height="20" viewBox="0 0 20 20">
    <path fill="gray" fill-rule="nonzero" d="M16.706 16.744c-.806-.288-1.962-.388-2.7-.55-.425-.094-1.043-.331-1.25-.575-.206-.25-.081-2.556-.081-2.556s.381-.6.587-1.126c.207-.524.432-1.962.432-1.962s.425 0 .575-.744c.162-.812.412-1.15.381-1.756-.031-.563-.325-.594-.356-.594 0 0 .306-.85.35-2.65C14.694 2.1 13.062 0 10 0 6.937 0 5.312 2.094 5.356 4.225c.038 1.794.35 2.65.35 2.65-.031 0-.325.031-.356.594-.031.606.225.931.381 1.744.15.743.575.75.575.75s.225 1.443.431 1.968c.207.532.588 1.125.588 1.125s.125 2.307-.081 2.557c-.207.25-.825.48-1.25.575-.744.162-1.894.268-2.7.556C2.487 17.03 0 18 0 20h20c0-2-2.488-2.969-3.294-3.256zM10 19H1.419c.125-.188.293-.319.512-.475.438-.319 1.006-.612 1.694-.85.425-.15 1.044-.25 1.588-.331.356-.056.693-.107.993-.175.213-.05 1.3-.313 1.8-.913.281-.337.363-.793.35-2.018-.006-.625-.037-1.207-.037-1.232l-.013-.262-.143-.219a6.076 6.076 0 0 1-.5-.956c-.113-.294-.288-1.2-.376-1.757 0 0 .026.063-.03-.23-.057-.295-.526-.27-.588-.5-.056-.226-.113-.432-.269-1.138-.156-.707.175-.7.244-1.013.037-.194 0-.356 0-.362-.019-.063-.256-.838-.294-2.356-.019-.825.288-1.6.863-2.182C7.875 1.356 8.838 1 9.992 1c1.188 0 2.126.356 2.788 1.031.575.581.881 1.357.863 2.182-.031 1.512-.269 2.287-.294 2.356 0 .006-.037.106-.025.325.013.337.425.343.269 1.05-.156.706-.213.912-.269 1.137-.056.225-.531.207-.587.5-.057.294-.032.232-.032.232-.087.556-.262 1.462-.375 1.756a7.369 7.369 0 0 1-.5.956l-.143.219-.013.262c0 .025-.031.607-.038 1.232-.012 1.225.07 1.68.35 2.018.5.594 1.588.863 1.8.913.3.069.638.119.994.175.544.081 1.163.181 1.588.331.687.244 1.262.537 1.694.856.218.157.387.288.512.475L10 19z"/>
</svg>
