<svg xmlns="http://www.w3.org/2000/svg" width="20" height="20" viewBox="0 0 20 20">
    <path fill="gray" fill-rule="nonzero" d="M17.78 7.721l-.33-1.448-.564.178a.489.489 0 1 1-.295-.932l.643-.203-.466-2.054-5.86 1.856a.489.489 0 1 1-.295-.933l5.938-1.88-.253-1.116v-.001c-.037-.162-.132-.226-.2-.204L1.137 5.72c-.104.033-.191.21-.148.4a.489.489 0 1 1-.954.217c-.15-.66.19-1.354.806-1.55l7.48-2.368 7.48-2.368c.651-.208 1.295.232 1.45.92l.39 1.715.646 2.85a.495.495 0 0 1 .005.024l.491 2.168c.63.073 1.093.664 1.093 1.35v9.563c0 .733-.529 1.358-1.225 1.358H17.09a.489.489 0 0 1 0-.978h1.562c.117 0 .247-.154.247-.38V9.079c0-.226-.13-.38-.247-.38H1.736c-.116 0-.246.154-.246.38v9.563c0 .226.13.38.246.38h13.192a.489.489 0 0 1 0 .978H1.736c-.695 0-1.224-.625-1.224-1.358V9.079c0-.303.09-.587.246-.817a.489.489 0 0 1-.04-.943l7.839-2.482a.489.489 0 1 1 .295.932L2.685 7.721h7.053a.488.488 0 0 1 .153-.08l5.629-1.783a.489.489 0 0 1 .295.932l-2.94.931h4.904zm-7.653 9.67a3.531 3.531 0 1 1 0-7.062 3.531 3.531 0 0 1 0 7.062zm0-.978a2.553 2.553 0 1 0 0-5.106 2.553 2.553 0 0 0 0 5.106zm.049-4.726c.117 0 .21.096.21.216v.11c.29.036.535.131.76.276a.27.27 0 0 1 .148.241.273.273 0 0 1-.422.23 1.77 1.77 0 0 0-.504-.22v.964c.745.19 1.063.496 1.063 1.033 0 .553-.422.918-1.044.979v.3c0 .121-.093.217-.211.217a.215.215 0 0 1-.216-.216v-.31a2.096 2.096 0 0 1-1.004-.393.276.276 0 0 1-.133-.24.27.27 0 0 1 .431-.221c.231.17.456.285.726.335V14c-.716-.19-1.05-.467-1.05-1.034 0-.536.417-.908 1.03-.957v-.106c0-.12.098-.216.216-.216zm-.195 1.71v-.887c-.315.03-.472.2-.472.42 0 .212.094.342.472.468zm.387.699v.912c.313-.035.484-.196.484-.436 0-.22-.107-.357-.484-.476z"/>
</svg>
