<?xml version="1.0" encoding="UTF-8" standalone="no"?>
<svg width="18px" height="18px" viewBox="0 0 18 18" version="1.1" xmlns="http://www.w3.org/2000/svg" xmlns:xlink="http://www.w3.org/1999/xlink">
    <g id="Dashboard" stroke="none" stroke-width="1" fill="none" fill-rule="evenodd">
        <g id="Marketplace" transform="translate(-1625.000000, -1159.000000)" fill="#000000">
            <g id="Icons" transform="translate(1457.000000, 658.000000)">
                <g id="plus" transform="translate(168.000000, 501.000000)">
                    <path d="M8.25256408,8.25207679 L4.75418938,8.25207679 C4.33528198,8.25207679 4.00256408,8.58786323 4.00256408,9.00207679 C4.00256408,9.41917818 4.33907819,9.75207679 4.75418938,9.75207679 L8.25256408,9.75207679 L8.25256408,12.7502218 C8.25256408,13.1602561 8.58835052,13.5020768 9.00256408,13.5020768 C9.41966547,13.5020768 9.75256408,13.1654599 9.75256408,12.7502218 L9.75256408,9.75207679 L13.2509388,9.75207679 C13.6698462,9.75207679 14.0025641,9.41629035 14.0025641,9.00207679 C14.0025641,8.58497541 13.66605,8.25207679 13.2509388,8.25207679 L9.75256408,8.25207679 L9.75256408,5.25393176 C9.75256408,4.84389751 9.41677764,4.50207679 9.00256408,4.50207679 C8.5854627,4.50207679 8.25256408,4.83869373 8.25256408,5.25393176 L8.25256408,8.25207679 Z M0.00256408233,5.99581616 C0.00256408233,2.68556531 2.69734595,0.0020767921 5.99630345,0.0020767921 L12.0088247,0.0020767921 C15.3190756,0.0020767921 18.0025641,2.69685866 18.0025641,5.99581616 L18.0025641,12.0083374 C18.0025641,15.3185883 15.3077822,18.0020768 12.0088247,18.0020768 L5.99630345,18.0020768 C2.6860526,18.0020768 0.00256408233,15.3072949 0.00256408233,12.0083374 L0.00256408233,5.99581616 Z M1.00256408,5.99876262 C1.00256408,3.23916924 3.24414263,1.00207679 5.99924992,1.00207679 L12.0058782,1.00207679 C14.7654716,1.00207679 17.0025641,3.24365534 17.0025641,5.99876262 L17.0025641,12.005391 C17.0025641,14.7649843 14.7609855,17.0020768 12.0058782,17.0020768 L5.99924992,17.0020768 C3.23965653,17.0020768 1.00256408,14.7604982 1.00256408,12.005391 L1.00256408,5.99876262 Z" id="Combined-Shape"></path>
                </g>
            </g>
        </g>
    </g>
</svg>