<svg xmlns="http://www.w3.org/2000/svg" width="16" height="16" viewBox="0 0 16 16">
    <path fill="#0F8DD0" fill-rule="evenodd" d="M4.438 14.124h4.874v-.011a5.032 5.032 0 0 0 4.813-5.029 5.032 5.032 0 0 0-4.813-5.028v-.011H2.47l1.442 1.443a.438.438 0 0 1-.619.62l-2.165-2.17a.436.436 0 0 1-.126-.32.434.434 0 0 1 .126-.321l2.165-2.17a.438.438 0 0 1 .619.62l-1.418 1.42h6.819c.025 0 .047.011.072.016A5.907 5.907 0 0 1 15 9.084 5.911 5.911 0 0 1 9.094 15c-.06 0-.117-.007-.176-.009-.015.002-.028.009-.043.009H4.437a.44.44 0 0 1 0-.876z"/>
</svg>
