<?xml version="1.0" encoding="UTF-8" standalone="no"?>
<svg width="18px" height="18px" viewBox="0 0 18 18" version="1.1" xmlns="http://www.w3.org/2000/svg" xmlns:xlink="http://www.w3.org/1999/xlink">
    <g id="Dashboard" stroke="none" stroke-width="1" fill="none" fill-rule="evenodd">
        <g id="Marketplace" transform="translate(-1457.000000, -780.000000)" fill="#89919A">
            <g id="Menu" transform="translate(1457.000000, 503.000000)">
                <g id="Group-21" transform="translate(0.000000, 277.000000)">
                    <g id="Group-20">
                        <path d="M9.5,12.9690531 L9.5,14.0630087 C10.3626136,14.2850301 11,15.0680803 11,16 C11,17.1045695 10.1045695,18 9,18 C7.8954305,18 7,17.1045695 7,16 C7,15.0680803 7.63738639,14.2850301 8.5,14.0630087 L8.5,12.9690531 C7.31178707,12.8208851 6.28542087,12.1515622 5.65686044,11.1970435 L3.91385098,12.4175119 C3.96987177,12.601814 4,12.7973886 4,13 C4,14.1045695 3.1045695,15 2,15 C0.8954305,15 0,14.1045695 0,13 C0,11.8954305 0.8954305,11 2,11 C2.54054033,11 3.03099596,11.2144381 3.39093767,11.5628852 L5.21184798,10.28787 C5.07449786,9.88374366 5,9.45057178 5,9 C5,8.51189793 5.08742529,8.04421514 5.24747111,7.61175638 L3.46381089,6.36282404 C3.0986836,6.75483398 2.5779726,7 2,7 C0.8954305,7 0,6.1045695 0,5 C0,3.8954305 0.8954305,3 2,3 C3.1045695,3 4,3.8954305 4,5 C4,5.16451367 3.98013678,5.32438803 3.94267776,5.47735565 L5.71441821,6.71794167 C6.34706379,5.80880117 7.34738465,5.17467598 8.5,5.03094688 L8.5,3.93699126 C7.63738639,3.71496986 7,2.93191971 7,2 C7,0.8954305 7.8954305,0 9,0 C10.1045695,0 11,0.8954305 11,2 C11,2.93191971 10.3626136,3.71496986 9.5,3.93699126 L9.5,5.03094688 C10.6651253,5.17623594 11.6746323,5.82262392 12.3060509,6.74764071 L14.0668555,5.51471204 C14.0232418,5.35048303 14,5.17795572 14,5 C14,3.8954305 14.8954305,3 16,3 C17.1045695,3 18,3.8954305 18,5 C18,6.1045695 17.1045695,7 16,7 C15.4351431,7 14.9249784,6.76583461 14.5612853,6.38928315 L12.765322,7.64683022 C12.9172278,8.06946185 13,8.52506468 13,9 C13,9.43734166 12.9298129,9.85829024 12.8000882,10.2521962 L14.6357366,11.537531 C14.9930528,11.2040652 15.4726954,11 16,11 C17.1045695,11 18,11.8954305 18,13 C18,14.1045695 17.1045695,15 16,15 C14.8954305,15 14,14.1045695 14,13 C14,12.7841109 14.0342064,12.5762111 14.097495,12.3814248 L12.3628513,11.1668142 C11.7361633,12.1374171 10.7007172,12.8193258 9.5,12.9690531 Z M16,6 C16.5522847,6 17,5.55228475 17,5 C17,4.44771525 16.5522847,4 16,4 C15.4477153,4 15,4.44771525 15,5 C15,5.55228475 15.4477153,6 16,6 Z M9,17 C9.55228475,17 10,16.5522847 10,16 C10,15.4477153 9.55228475,15 9,15 C8.44771525,15 8,15.4477153 8,16 C8,16.5522847 8.44771525,17 9,17 Z M9,3 C9.55228475,3 10,2.55228475 10,2 C10,1.44771525 9.55228475,1 9,1 C8.44771525,1 8,1.44771525 8,2 C8,2.55228475 8.44771525,3 9,3 Z M16,14 C16.5522847,14 17,13.5522847 17,13 C17,12.4477153 16.5522847,12 16,12 C15.4477153,12 15,12.4477153 15,13 C15,13.5522847 15.4477153,14 16,14 Z M2,6 C2.55228475,6 3,5.55228475 3,5 C3,4.44771525 2.55228475,4 2,4 C1.44771525,4 1,4.44771525 1,5 C1,5.55228475 1.44771525,6 2,6 Z M2,14 C2.55228475,14 3,13.5522847 3,13 C3,12.4477153 2.55228475,12 2,12 C1.44771525,12 1,12.4477153 1,13 C1,13.5522847 1.44771525,14 2,14 Z" id="Combined-Shape"></path>
                    </g>
                </g>
            </g>
        </g>
    </g>
</svg>