<?xml version="1.0" encoding="UTF-8"?>
<svg width="10px" height="14px" viewBox="0 0 10 14" version="1.1" xmlns="http://www.w3.org/2000/svg" xmlns:xlink="http://www.w3.org/1999/xlink">
    <!-- Generator: Sketch 42 (36781) - http://www.bohemiancoding.com/sketch -->
    <title>Shape</title>
    <desc>Created with Sketch.</desc>
    <defs></defs>
    <g id="Page-1" stroke="none" stroke-width="1" fill="none" fill-rule="evenodd">
        <path d="M5.413,13.564 L5.413,1.429 L9.217,5.059 C9.397,5.23 9.687,5.23 9.865,5.059 C9.95073023,4.97951998 9.99945491,4.86790485 9.99945491,4.751 C9.99945491,4.63409515 9.95073023,4.52248002 9.865,4.443 L5.325,0.126 C5.14129611,-0.0430199344 4.85870389,-0.0430199344 4.675,0.126 L0.136,4.443 C0.0502697746,4.52248002 0.00154509276,4.63409515 0.00154509276,4.751 C0.00154509276,4.86790485 0.0502697746,4.97951998 0.136,5.059 C0.315,5.23 0.606,5.23 0.784,5.059 L4.496,1.429 L4.496,13.564 C4.496,13.804 4.702,14 4.955,14 C5.20207193,14.006155 5.4074566,13.811062 5.414,13.564 L5.413,13.564 Z" id="Shape" fill="#0F8DD0"></path>
    </g>
</svg>