<svg xmlns="http://www.w3.org/2000/svg" width="16" height="16" viewBox="0 0 16 16">
    <path fill="#0F8DD0" fill-rule="evenodd" d="M7.537 8.507H1.43l1.576 1.865a.48.48 0 0 1 0 .652.419.419 0 0 1-.616 0L.126 8.326a.486.486 0 0 1 0-.653L2.389 5.07c.17-.18.446-.18.616 0a.48.48 0 0 1 0 .653L1.43 7.585h6.108V4.4l.003-.045V1.453L5.676 3.029a.48.48 0 0 1-.653 0 .419.419 0 0 1 0-.617L7.722.15a.486.486 0 0 1 .652 0l2.603 2.262c.18.17.18.447 0 .617a.48.48 0 0 1-.653 0L8.463 1.453v6.134h6.108l-1.576-1.864a.48.48 0 0 1 0-.653c.17-.18.446-.18.616 0l2.263 2.699a.486.486 0 0 1 0 .652l-2.263 2.603a.419.419 0 0 1-.616 0 .48.48 0 0 1 0-.652L14.57 8.51H8.46v6.025l1.863-1.576a.48.48 0 0 1 .653 0c.18.17.18.446 0 .617l-2.699 2.263a.486.486 0 0 1-.652 0l-2.603-2.263a.419.419 0 0 1 0-.617.48.48 0 0 1 .653 0l1.861 1.576V8.507z"/>
</svg>
