<svg xmlns="http://www.w3.org/2000/svg" width="18" height="18" viewBox="0 0 18 18">
    <path fill="#9B9B9B" fill-rule="nonzero" d="M3.025 11.97a6.33 6.33 0 0 1 0-8.941 6.286 6.286 0 0 1 4.472-1.853c1.69 0 3.277.659 4.472 1.853a6.282 6.282 0 0 1 1.853 4.47c0 1.69-.659 3.278-1.853 4.472a6.285 6.285 0 0 1-4.472 1.851 6.285 6.285 0 0 1-4.472-1.851m14.803 5.025l-4.631-4.63A7.44 7.44 0 0 0 14.998 7.5a7.45 7.45 0 0 0-2.197-5.302A7.453 7.453 0 0 0 7.497 0C5.494 0 3.61.78 2.193 2.197c-2.924 2.924-2.924 7.68 0 10.605A7.453 7.453 0 0 0 7.497 15c1.806 0 3.51-.64 4.868-1.8l4.631 4.629a.587.587 0 0 0 .832 0 .589.589 0 0 0 0-.832"/>
</svg>
