<svg xmlns="http://www.w3.org/2000/svg" width="20" height="20" viewBox="0 0 20 20">
    <g fill="none" fill-rule="evenodd">
        <path fill="#FFF" d="M0 4a4 4 0 0 1 4-4h16v17.006A2.996 2.996 0 0 1 17.006 20H0V4z"/>
        <path fill="#0F8DD0" d="M14.615 10a.77.77 0 0 1-.769.77H6.154a.77.77 0 0 1 0-1.54h7.692a.77.77 0 0 1 .77.77zm0-3.077a.77.77 0 0 1-.769.77H6.154a.77.77 0 1 1 0-1.54h7.692a.77.77 0 0 1 .77.77zm0 6.154a.77.77 0 0 1-.769.77H6.154a.77.77 0 1 1 0-1.54h7.692a.77.77 0 0 1 .77.77z"/>
    </g>
</svg>
