<?xml version="1.0" encoding="UTF-8"?>
<svg width="322px" height="252px" viewBox="0 0 322 252" version="1.1" xmlns="http://www.w3.org/2000/svg" xmlns:xlink="http://www.w3.org/1999/xlink">
    <defs>
        <path d="M0,16.0076699 C0,11.5851559 3.59126464,8 8.00319663,8 L271.996803,8 C276.416847,8 280,11.5787634 280,16.0076699 L280,216.005568 C280,217.107063 279.107562,218 278.004922,218 L1.99507769,218 C0.893226705,218 0,217.109364 0,216.005568 L0,16.0076699 Z" id="path-1"></path>
        <filter x="-11.9%" y="-14.0%" width="123.9%" height="131.8%" filterUnits="objectBoundingBox" id="filter-2">
            <feMorphology radius="1.4" operator="dilate" in="SourceAlpha" result="shadowSpreadOuter1"></feMorphology>
            <feOffset dx="0" dy="4" in="shadowSpreadOuter1" result="shadowOffsetOuter1"></feOffset>
            <feGaussianBlur stdDeviation="10" in="shadowOffsetOuter1" result="shadowBlurOuter1"></feGaussianBlur>
            <feComposite in="shadowBlurOuter1" in2="SourceAlpha" operator="out" result="shadowBlurOuter1"></feComposite>
            <feColorMatrix values="0 0 0 0 0.109803922   0 0 0 0 0.137254902   0 0 0 0 0.219607843  0 0 0 0.1 0" type="matrix" in="shadowBlurOuter1"></feColorMatrix>
        </filter>
        <rect id="path-3" x="0" y="0" width="230" height="60" rx="1"></rect>
        <rect id="path-4" x="0" y="0.117647059" width="44" height="16" rx="1"></rect>
        <rect id="path-5" x="54" y="0.117647059" width="176" height="16" rx="1"></rect>
        <path d="M0,8.00220644 C0,3.58270986 3.59126464,0 8.00319663,0 L271.996803,0 C276.416847,0 280,3.58449006 280,8.00220644 L280,17 L0,17 L0,8.00220644 Z" id="path-6"></path>
        <rect id="path-7" x="0" y="0" width="50" height="64" rx="1"></rect>
        <rect id="path-8" x="60" y="0" width="50" height="64" rx="1"></rect>
        <rect id="path-9" x="120" y="0" width="50" height="64" rx="1"></rect>
        <rect id="path-10" x="180" y="0" width="50" height="64" rx="1"></rect>
    </defs>
    <g id="Last_changes" stroke="none" stroke-width="1" fill="none" fill-rule="evenodd">
        <g id="1_3step_deleted" transform="translate(-675.000000, -325.000000)">
            <g id="product-delete" transform="translate(696.000000, 334.000000)">
                <g id="Rectangle-3">
                    <use fill="black" fill-opacity="1" filter="url(#filter-2)" xlink:href="#path-1"></use>
                    <use fill="#FFFFFF" fill-rule="evenodd" xlink:href="#path-1"></use>
                    <path stroke="#CBD7E8" stroke-width="1.4" d="M-0.7,16.0076699 L-0.7,216.005568 C-0.7,217.495344 0.506007331,218.7 1.99507769,218.7 L278.004922,218.7 C279.493881,218.7 280.7,217.493942 280.7,216.005568 L280.7,16.0076699 C280.7,11.194373 276.805655,7.3 271.996803,7.3 L8.00319663,7.3 C3.20188595,7.3 -0.7,11.2013356 -0.7,16.0076699 Z"></path>
                </g>
                <g id="Group-4" transform="translate(25.000000, 57.000000)">
                    <g id="Rectangle-7">
                        <use fill="#EEF5FC" fill-rule="evenodd" xlink:href="#path-3"></use>
                        <rect stroke="#CBD7E8" stroke-width="1.4" x="0.7" y="0.7" width="228.6" height="58.6" rx="1"></rect>
                    </g>
                    <g id="Group-23" transform="translate(65.000000, 18.000000)" stroke="#CBD7E8" stroke-linecap="round" stroke-linejoin="round">
                        <path d="M40,23 L60,23" id="Line" stroke-width="8"></path>
                        <g id="Group-12" stroke-width="3">
                            <path d="M20,1.5 L80,1.5" id="Line"></path>
                            <path d="M0,8.5 L100,8.5" id="Line-Copy-5"></path>
                        </g>
                    </g>
                </g>
                <g id="Group-3" transform="translate(25.000000, 31.000000)">
                    <g id="Rectangle">
                        <use fill="#EEF5FC" fill-rule="evenodd" xlink:href="#path-4"></use>
                        <rect stroke="#CBD7E8" stroke-width="1.4" x="0.7" y="0.817647059" width="42.6" height="14.6" rx="1"></rect>
                    </g>
                    <g id="Rectangle-Copy">
                        <use fill="#EEF5FC" fill-rule="evenodd" xlink:href="#path-5"></use>
                        <rect stroke="#CBD7E8" stroke-width="1.4" x="54.7" y="0.817647059" width="174.6" height="14.6" rx="1"></rect>
                    </g>
                    <g id="Group-17" transform="translate(66.000000, 7.000000)" stroke="#CBD7E8" stroke-width="2" stroke-linecap="round" stroke-linejoin="round">
                        <path d="M0,1 L20,1" id="Line"></path>
                        <path d="M33,1 L53,1" id="Line-Copy"></path>
                        <path d="M66,1 L86,1" id="Line-Copy-2"></path>
                        <path d="M99,1 L119,1" id="Line-Copy-3"></path>
                        <path d="M132,1 L152,1" id="Line-Copy-4"></path>
                    </g>
                </g>
                <g id="Group-2">
                    <g id="Rectangle-3-Copy">
                        <use fill="#FAFBFD" fill-rule="evenodd" xlink:href="#path-6"></use>
                        <path stroke="#CBD7E8" stroke-width="1.4" d="M-0.7,8.00220644 L-0.7,17 L-0.7,17.7 L0,17.7 L280,17.7 L280.7,17.7 L280.7,17 L280.7,8.00220644 C280.7,3.19728059 276.802836,-0.7 271.996803,-0.7 L8.00319663,-0.7 C3.20199285,-0.7 -0.7,3.19878059 -0.7,8.00220644 Z"></path>
                    </g>
                    <circle id="Oval-4" fill="#CBD7E8" cx="9" cy="9" r="2"></circle>
                    <circle id="Oval-4-Copy" fill="#CBD7E8" cx="16" cy="9" r="2"></circle>
                    <circle id="Oval-4-Copy-2" fill="#CBD7E8" cx="23" cy="9" r="2"></circle>
                </g>
                <g id="Group-1" transform="translate(25.000000, 127.000000)">
                    <g id="Rectangle-8">
                        <use fill="#FBEAEB" fill-rule="evenodd" xlink:href="#path-7"></use>
                        <rect stroke-opacity="0.5" stroke="#F3BDC1" stroke-width="1.4" x="0.7" y="0.7" width="48.6" height="62.6" rx="1"></rect>
                    </g>
                    <path d="M32.0588235,26.1304348 L34.4765176,26.1304348 C35.5820499,26.1304348 36.4782609,27.0160634 36.4782609,28.1358105 L36.4782609,38.9946243 C36.4782609,40.1021627 35.5865547,41 34.4765176,41 L15.0017433,41 C13.896211,41 13,40.1143713 13,38.9946243 L13,28.1358105 C13,27.0282721 13.8917062,26.1304348 15.0017433,26.1304348 L15.8241966,26.1304348 L15.8241966,25.9967987 C15.8241966,25.1685736 16.4880813,24.4971645 17.3160683,24.4971645 L17.4627597,24.4971645 C18.2866977,24.4971645 18.9546314,25.1671872 18.9546314,25.9967987 L18.9546314,26.1304348 L20.9336028,26.1304348 L22.2689155,23.8604033 C22.5484376,23.3852157 23.2183005,23 23.7787443,23 L29.213682,23 C29.7680154,23 30.4464405,23.3893837 30.7235109,23.8604033 L32.0588235,26.1304348 Z M26.5517532,38.3290323 C29.4350978,38.3290323 31.7725105,35.9916196 31.7725105,33.1082749 C31.7725105,30.2249302 29.4350978,27.8875175 26.5517532,27.8875175 C23.6684085,27.8875175 21.3309958,30.2249302 21.3309958,33.1082749 C21.3309958,35.9916196 23.6684085,38.3290323 26.5517532,38.3290323 Z M26.5517532,36.9960729 C28.6989247,36.9960729 30.4395512,35.2554465 30.4395512,33.1082749 C30.4395512,30.9611033 28.6989247,29.2204769 26.5517532,29.2204769 C24.4045816,29.2204769 22.6639551,30.9611033 22.6639551,33.1082749 C22.6639551,35.2554465 24.4045816,36.9960729 26.5517532,36.9960729 Z M25.0660589,32.7750351 C24.4525813,32.7750351 23.9552595,32.2777132 23.9552595,31.6642356 C23.9552595,31.050758 24.4525813,30.5534362 25.0660589,30.5534362 C25.6795365,30.5534362 26.1768583,31.050758 26.1768583,31.6642356 C26.1768583,32.2777132 25.6795365,32.7750351 25.0660589,32.7750351 Z M15.8241966,29.9754253 C15.8241966,29.5432025 16.1832973,29.1928166 16.6141375,29.1928166 L18.1646905,29.1928166 C18.6009628,29.1928166 18.9546314,29.5401891 18.9546314,29.9754253 C18.9546314,30.4076482 18.5955307,30.758034 18.1646905,30.758034 L16.6141375,30.758034 C16.1778652,30.758034 15.8241966,30.4106616 15.8241966,29.9754253 Z" id="Combined-Shape" fill="#EF8889"></path>
                    <g id="Group-16" opacity="0.800000012" transform="translate(7.000000, 70.000000)" stroke="#EF8889" stroke-width="2" stroke-linecap="round" stroke-linejoin="round">
                        <path d="M0,1 L36,1" id="Line"></path>
                        <path d="M5,6 L31,6" id="Line-Copy-9"></path>
                    </g>
                    <g id="Group-19" opacity="0.800000012" transform="translate(67.000000, 70.000000)" stroke="#EF8889" stroke-width="2" stroke-linecap="round" stroke-linejoin="round">
                        <path d="M0,1 L36,1" id="Line-Copy-11"></path>
                        <path d="M5,6 L31,6" id="Line-Copy-10"></path>
                    </g>
                    <g id="Group-20" opacity="0.800000012" transform="translate(127.000000, 70.000000)" stroke="#EF8889" stroke-width="2" stroke-linecap="round" stroke-linejoin="round">
                        <path d="M0,1 L36,1" id="Line-Copy-13"></path>
                        <path d="M5,6 L31,6" id="Line-Copy-12"></path>
                    </g>
                    <g id="Group-21" opacity="0.800000012" transform="translate(187.000000, 70.000000)" stroke="#EF8889" stroke-width="2" stroke-linecap="round" stroke-linejoin="round">
                        <path d="M0,1 L36,1" id="Line-Copy-15"></path>
                        <path d="M5,6 L31,6" id="Line-Copy-14"></path>
                    </g>
                    <g id="Rectangle-8-Copy">
                        <use fill="#FBEAEB" fill-rule="evenodd" xlink:href="#path-8"></use>
                        <rect stroke-opacity="0.5" stroke="#F3BDC1" stroke-width="1.4" x="60.7" y="0.7" width="48.6" height="62.6" rx="1"></rect>
                    </g>
                    <path d="M95.4451411,22.5627927 C94.9623824,21.9483726 91.3197492,21.465614 89.4326019,20.0173381 C89.4326019,20.0173381 89.169279,19.9295638 88.9937304,20.1489996 C88.0721003,21.5095011 87.1504702,22.650567 85,22.650567 C82.8495298,22.650567 81.9278997,21.5095011 81.0062696,20.1489996 C80.8746082,19.9295638 80.5673981,20.0173381 80.5673981,20.0173381 C78.6802508,21.4217268 75.0376176,21.9483726 74.5548589,22.5627927 C73.5015674,23.9232942 72.0094044,26.9076203 71,28.8386547 C71.9216301,30.3747049 74.0282132,31.296335 75.5203762,31.4279964 C76.0031348,30.9452378 76.7492163,29.5408491 77.1880878,29.5408491 C77.4075235,29.5408491 77.846395,31.0330121 77.846395,34.2367739 C77.846395,36.650567 77.0564263,41.5220403 77.0564263,43.0580905 C78.9435737,43.7602848 82.8056426,43.7163977 85,43.7163977 C87.1943574,43.7163977 91.0564263,43.7602848 92.9435737,43.0580905 C92.9435737,41.5220403 92.153605,36.650567 92.153605,34.2367739 C92.153605,31.0330121 92.5924765,29.5408491 92.8119122,29.5408491 C93.2507837,29.5408491 93.9968652,30.9452378 94.4796238,31.4279964 C95.9278997,31.296335 98.0344828,30.3308178 99,28.8386547 C97.9905956,26.9076203 96.4984326,23.9232942 95.4451411,22.5627927 Z" id="Shape" fill="#EF8889" fill-rule="nonzero"></path>
                    <g id="Rectangle-8-Copy-2">
                        <use fill="#FBEAEB" fill-rule="evenodd" xlink:href="#path-9"></use>
                        <rect stroke-opacity="0.5" stroke="#F3BDC1" stroke-width="1.4" x="120.7" y="0.7" width="48.6" height="62.6" rx="1"></rect>
                    </g>
                    <path d="M152.437311,39.147759 L152.437311,39.2311736 C152.437311,40.337732 151.634485,41.6441899 150.615984,42.0399029 C150.615984,42.0399029 149.696651,43 144.218656,43 C138.74066,43 137.821327,42.0399029 137.821327,42.0399029 C136.815436,41.595243 136,40.3305096 136,39.2311736 L136,24.0063546 C136,23.4505603 136.439658,23 137.003484,23 L151.433827,23 C151.988036,23 152.437311,23.4507497 152.437311,24.0063546 L152.437311,25.7734823 C152.616183,25.7512024 152.798358,25.739726 152.983158,25.739726 C155.404132,25.739726 157.36672,27.6932558 157.36672,30.121102 L157.36672,33.6871172 C157.36672,36.1068843 155.399206,38.0684932 152.983158,38.0684932 C152.798402,38.0684932 152.616316,38.0571159 152.437568,38.0350189 L152.437572,39.147759 Z M152.437572,27.6575342 L152.437572,35.8767123 L153.447106,35.8767123 C154.556629,35.8767123 155.448912,34.9812249 155.448912,33.8765853 L155.448912,29.6576613 C155.448912,28.5527766 154.552673,27.6575342 153.447106,27.6575342 L152.437572,27.6575342 Z" id="Mask-Copy" fill="#EF8889"></path>
                    <g id="Rectangle-8-Copy-3">
                        <use fill="#FBEAEB" fill-rule="evenodd" xlink:href="#path-10"></use>
                        <rect stroke-opacity="0.5" stroke="#F3BDC1" stroke-width="1.4" x="180.7" y="0.7" width="48.6" height="62.6" rx="1"></rect>
                    </g>
                    <path d="M219.831218,27.4792764 C220.220777,28.4517788 219.868408,29.1806907 219.457465,30.0369763 C219.269659,30.4265351 218.957268,30.7324178 218.833613,31.0987333 C218.692293,31.5161841 218.666261,32.0219598 218.583514,32.4719513 C218.347362,33.744758 218.105631,35.135641 217.273518,35.9017424 C216.582726,36.5367511 214.872014,37.0490349 213.654061,37.1494462 C209.283379,37.5027454 207.474115,35.3280961 206.419796,32.3464371 C206.101827,31.4473838 205.984681,30.5037031 204.798339,30.5994658 C203.84815,30.6766338 203.805383,31.4511027 203.425121,32.5946763 C202.606955,35.0668407 201.079401,36.968148 197.936898,37.209879 C196.089515,37.3521284 193.82933,36.9755859 192.88379,36.0876893 C192.00705,35.2620849 191.6928,33.5950707 191.387847,32.0954088 C191.276279,31.5487248 191.148905,31.3144317 190.888579,30.9118566 C190.766784,30.7203313 190.673811,30.5604169 190.577118,30.3493672 C190.232187,29.5879145 189.761741,28.801359 190.140143,27.7284453 C194.17891,27.0794905 197.784421,27.0897176 201.429911,27.7907375 C202.593009,28.0138738 203.773772,28.3866974 204.923853,28.4145894 C206.26546,28.4471301 207.887847,27.9301977 209.165303,27.666153 C212.506769,26.9781494 216.167134,26.6787749 219.831218,27.4792764 Z" id="Shape" fill="#EF8889" fill-rule="nonzero"></path>
                </g>
            </g>
        </g>
    </g>
</svg>