<?xml version="1.0" encoding="UTF-8"?>
<svg width="50px" height="50px" viewBox="0 0 50 50" version="1.1" xmlns="http://www.w3.org/2000/svg" xmlns:xlink="http://www.w3.org/1999/xlink">
    <defs></defs>
    <g id="Last_changes" stroke="none" stroke-width="1" fill="none" fill-rule="evenodd">
        <g id="icon-contact-our-expert" stroke="#708692" stroke-width="2">
            <g id="Contact-our-Expert-icon" transform="translate(5.000000, 6.000000)">
                <path d="M35.6284282,15.3802953 C35.6284282,14.4655562 34.8860312,13.7231591 33.9712921,13.7231591 C33.0565528,13.7231591 32.3141559,14.4655562 32.3141559,15.3802953 L32.3141559,27.8088168 C32.3141559,28.723556 33.0565528,29.465953 33.9712921,29.465953 C34.8860312,29.465953 35.6284282,28.723556 35.6284282,27.8088168 L35.6284282,15.3802953 L35.6284282,15.3802953 Z" id="Stroke-1"></path>
                <path d="M22.3713387,37.751634 C23.2860778,37.751634 24.0284748,37.009237 24.0284748,36.0944978 C24.0284748,35.1797586 23.2860778,34.4373616 22.3713387,34.4373616 L18.2284982,34.4373616 C17.313759,34.4373616 16.571362,35.1797586 16.571362,36.0944978 C16.571362,37.009237 17.313759,37.751634 18.2284982,37.751634 L22.3713387,37.751634 L22.3713387,37.751634 Z" id="Stroke-3"></path>
                <path d="M5.79997668,14.0856577 C5.79997668,6.3062318 12.1062085,0 19.8856344,0 C27.6650603,0 33.9712921,6.3062318 33.9712921,14.0856577" id="Stroke-5"></path>
                <path d="M35.6284282,15.3802953 C37.9169333,15.3802953 39.7712687,18.1617984 39.7712687,21.5945561 C39.7712687,25.0256566 37.9169333,27.8088168 35.6284282,27.8088168" id="Stroke-7"></path>
                <path d="M4.14284049,15.3802953 C4.14284049,14.4655562 4.8852375,13.7231591 5.79997668,13.7231591 C6.71471585,13.7231591 7.45711287,14.4655562 7.45711287,15.3802953 L7.45711287,27.8088168 C7.45711287,28.723556 6.71471585,29.465953 5.79997668,29.465953 C4.8852375,29.465953 4.14284049,28.723556 4.14284049,27.8088168 L4.14284049,15.3802953 L4.14284049,15.3802953 Z" id="Stroke-9"></path>
                <path d="M4.14284049,15.3802953 C1.85516397,15.3802953 0,18.1617984 0,21.5945561 C0,25.0256566 1.85516397,27.8088168 4.14284049,27.8088168" id="Stroke-11"></path>
                <path d="M33.9712921,29.465953 C33.9712921,33.6087935 31.4855878,36.0944978 27.3427472,36.0944978 L24.0284748,36.0944978" id="Stroke-13"></path>
            </g>
        </g>
    </g>
</svg>