<svg xmlns="http://www.w3.org/2000/svg" width="35" height="24" viewBox="0 0 35 24">
  <path fill="#97C564" fill-rule="evenodd" d="M13.277,23.993 C14.0214639,24.058812 14.7567146,23.7906489 15.284,23.261 L34.23,4.314 C35.2156635,3.32638016 35.2152161,1.72706811 34.229,0.74 C33.7562668,0.264021404 33.1132602,-0.00382117177 32.4424159,-0.00419657432 C31.7715715,-0.00457197687 31.1282656,0.262550782 30.655,0.738 L13.273,18.12 L4.332,9.18 C3.85875701,8.70568257 3.21598692,8.43953888 2.54596075,8.44047729 C1.87593458,8.4414157 1.23391251,8.70935882 0.762,9.185 C0.287701147,9.65756688 0.020598785,10.2992217 0.0194735155,10.9687571 C0.018348246,11.6382925 0.283292282,12.2808415 0.756,12.755 L11.265,23.265 C11.7936235,23.7954426 12.5313461,24.062372 13.277,23.993 Z"/>
</svg>
