<svg xmlns="http://www.w3.org/2000/svg" width="44" height="38" viewBox="0 0 44 38">
    <path fill="#9B9B9B" d="M7.38 37.718h29.346c4.07 0 7.29-1.308 7.29-5.37V8.668c0-1.13-.87-2-2-2h-9.679V6c0-3.331-2.668-6-6-6h-8c-3.33 0-6 2.669-6 6v.669H2c-1.131 0-2 .548-2 1.679v24c0 4.062 3.31 5.37 7.38 5.37zM1.927 8.677l40.093-.122v8.929c0 1.4-.869 2.669-2.2 3.131l-16.356 5.313c-.73.269-1.53.269-2.2 0L4.168 20.44c-1.33-.469-2.2-1.731-2.2-3.131l.028-8.631h-.07zM19.869 27.71c.8.269 1.6.4 2.468.4.87 0 1.67-.131 2.47-.4 11.299-3.733 17.038-5.644 17.217-5.731v10.363c0 1.868-2.468 3.331-4.33 3.331H6.33C4.462 35.673 2 34.204 2 32.342V21.979l17.869 5.73zM18.595 1.68h7.642c2.115 0 3.864 1.645 3.993 3.755l.08 1.298H14.46l.157-1.48c.218-2.032 1.933-3.574 3.978-3.574z"/>
</svg>
