<?xml version="1.0" encoding="UTF-8"?>
<svg width="50px" height="50px" viewBox="0 0 50 50" version="1.1" xmlns="http://www.w3.org/2000/svg" xmlns:xlink="http://www.w3.org/1999/xlink">
    <defs></defs>
    <g id="Last_changes" stroke="none" stroke-width="1" fill="none" fill-rule="evenodd">
        <g id="loaction" stroke="#708692" stroke-width="2">
            <g transform="translate(15.000000, 8.000000)" id="Line">
                <path d="M0,34 L21,34" stroke-linecap="round" stroke-linejoin="round"></path>
                <path d="M10.35,28.9 C10.35,28.9 1,16.15 1,9.35 C1,2.55 6.1,8.04370284e-16 10.35,0 C14.6,0 19.7,2.55 19.7,9.35 C19.7,16.15 10.35,28.9 10.35,28.9 Z" stroke-linecap="round" stroke-linejoin="round"></path>
                <path d="M10.35,5.95 C8.47223185,5.95 6.95,7.47605273 6.95,9.35 L6.95,9.35 C6.95,11.2277681 8.47605273,12.75 10.35,12.75 L10.35,12.75 C12.2277681,12.75 13.75,11.2239473 13.75,9.35 L13.75,9.35 C13.75,7.47223185 12.2239473,5.95 10.35,5.95 L10.35,5.95 Z" stroke-linecap="square"></path>
            </g>
        </g>
    </g>
</svg>