<?xml version="1.0" encoding="UTF-8"?>
<svg width="44px" height="35px" viewBox="0 0 44 35" version="1.1" xmlns="http://www.w3.org/2000/svg" xmlns:xlink="http://www.w3.org/1999/xlink">
    <defs></defs>
    <g id="Page-1" stroke="none" stroke-width="1" fill="none" fill-rule="evenodd">
        <g id="step-company" transform="translate(1.000000, 1.000000)">
            <polyline id="Line" stroke="#708692" stroke-width="2" stroke-linecap="round" stroke-linejoin="round" points="3 11 0 11 0 14"></polyline>
            <polyline id="Line" stroke="#708692" stroke-width="2" stroke-linecap="round" stroke-linejoin="round" points="0 30 0 33 3 33"></polyline>
            <polyline id="Line" stroke="#708692" stroke-width="2" stroke-linecap="round" stroke-linejoin="round" points="29 33 33 33 33 29"></polyline>
            <path d="M9,33 L33,33" id="Line" stroke="#708692" stroke-width="2" stroke-linecap="round" stroke-linejoin="round" stroke-dasharray="4,6"></path>
            <path d="M0,20 L0,28" id="Line" stroke="#708692" stroke-width="2" stroke-linecap="round" stroke-linejoin="round" stroke-dasharray="4,4"></path>
            <path d="M8.99914214,0 C8.44733117,0 8,0.44746922 8,1.00069463 L8,22.9993054 C8,23.5519738 8.45492426,24 8.99914214,24 L41.0008579,24 C41.5526688,24 42,23.5525308 42,22.9993054 L42,1.00069463 C42,0.448026248 41.5450757,0 41.0008579,0 L8.99914214,0 Z" id="Line" stroke="#708692" stroke-width="2" stroke-linecap="square"></path>
            <path d="M13.493,14.8310008 L17.309,14.8310008 L17.309,13.8500008 L14.771,13.8500008 L14.771,8.65700076 L13.493,8.65700076 L13.493,14.8310008 Z M21.211,14.9300008 C19.555,14.9300008 18.385,13.9220008 18.385,11.8520008 L18.385,11.6450008 C18.385,9.60200076 19.6,8.55800076 21.256,8.55800076 C22.912,8.55800076 24.082,9.54800076 24.082,11.6360008 L24.082,11.8340008 C24.082,13.8770008 22.867,14.9300008 21.211,14.9300008 Z M21.238,13.9580008 C22.237,13.9580008 22.741,13.1750008 22.741,11.9510008 L22.741,11.6450008 C22.741,10.2860008 22.309,9.53000076 21.211,9.52100076 C20.23,9.52100076 19.735,10.3040008 19.735,11.5280008 L19.735,11.8430008 C19.735,13.2200008 20.185,13.9580008 21.238,13.9580008 Z M28.263,14.9300008 C29.1,14.9300008 29.865,14.7320008 30.333,14.5520008 L30.333,11.6360008 L28.029,11.6360008 L28.029,12.5360008 L29.1,12.5360008 L29.1,13.8320008 C28.902,13.8950008 28.569,13.9670008 28.236,13.9670008 C26.886,13.9670008 26.58,13.1210008 26.58,11.8700008 L26.58,11.5910008 C26.58,10.4660008 27.003,9.57500076 28.416,9.57500076 C29.208,9.57500076 29.685,9.76400076 30.054,9.89900076 L30.054,8.90900076 C29.694,8.72900076 29.127,8.55800076 28.308,8.55800076 C26.688,8.55800076 25.239,9.32300076 25.239,11.6720008 L25.239,11.8700008 C25.239,14.0570008 26.409,14.9300008 28.263,14.9300008 Z M34.442,14.9300008 C32.786,14.9300008 31.616,13.9220008 31.616,11.8520008 L31.616,11.6450008 C31.616,9.60200076 32.831,8.55800076 34.487,8.55800076 C36.143,8.55800076 37.313,9.54800076 37.313,11.6360008 L37.313,11.8340008 C37.313,13.8770008 36.098,14.9300008 34.442,14.9300008 Z M34.469,13.9580008 C35.468,13.9580008 35.972,13.1750008 35.972,11.9510008 L35.972,11.6450008 C35.972,10.2860008 35.54,9.53000076 34.442,9.52100076 C33.461,9.52100076 32.966,10.3040008 32.966,11.5280008 L32.966,11.8430008 C32.966,13.2200008 33.416,13.9580008 34.469,13.9580008 Z" id="LOGO" fill="#708692" fill-rule="nonzero"></path>
        </g>
    </g>
</svg>