<svg xmlns="http://www.w3.org/2000/svg" width="62" height="52" viewBox="0 0 62 52">
    <g fill="none" fill-rule="evenodd">
        <path fill-rule="nonzero" stroke="#8D909F" stroke-width="2" d="M54.36 0H5.64C2.528.006.006 2.66 0 5.935v38.094c.006 3.275 2.528 5.93 5.641 5.936H54.36c3.112-.006 5.637-2.661 5.64-5.936V5.935C59.997 2.66 57.472.006 54.36 0zM7.4 4.637c.286 0 .516.232.516.516 0 .285-.23.515-.516.515-.284 0-.515-.23-.515-.515 0-.284.23-.516.515-.516zm4.167 0c.285 0 .516.232.516.516 0 .285-.23.515-.516.515-.284 0-.515-.23-.515-.515 0-.284.23-.516.515-.516zm4.167 0c.285 0 .516.232.516.516 0 .285-.231.515-.516.515-.285 0-.515-.23-.515-.515 0-.284.23-.516.515-.516z" transform="translate(1 1)"/>
        <g transform="translate(1 1) translate(16 11)">
            <path fill="#5EC9FE" d="M19.165 2.748l6.087 6.087c1.172 1.172 1.172 3.071 0 4.243l-6.087 6.087c-1.172 1.172-3.071 1.172-4.243 0l-6.087-6.087c-1.172-1.172-1.172-3.071 0-4.243l6.087-6.087c1.172-1.172 3.071-1.172 4.243 0z"/>
            <path fill="#0AF" d="M13.078 2.748l6.087 6.087c1.172 1.172 1.172 3.071 0 4.243l-6.087 6.087c-1.172 1.172-3.071 1.172-4.243 0l-6.087-6.087c-1.172-1.172-1.172-3.071 0-4.243l6.087-6.087c1.172-1.172 3.071-1.172 4.243 0z"/>
            <rect width="24.348" height="2.922" x="1.217" y="24.348" fill="#0AF" rx="1.461"/>
        </g>
    </g>
</svg>
