<svg xmlns="http://www.w3.org/2000/svg" width="62" height="52" viewBox="0 0 62 52">
    <g fill="none" fill-rule="evenodd">
        <g>
            <g>
                <g>
                    <path fill-rule="nonzero" stroke="#8D909F" stroke-width="2" d="M54.36 0H5.64C2.528.006.006 2.66 0 5.935v38.094c.006 3.275 2.528 5.93 5.641 5.936H54.36c3.112-.006 5.637-2.661 5.64-5.936V5.935C59.997 2.66 57.472.006 54.36 0zM7.4 4.637c.286 0 .516.232.516.516 0 .285-.23.515-.516.515-.284 0-.515-.23-.515-.515 0-.284.23-.516.515-.516zm4.167 0c.285 0 .516.232.516.516 0 .285-.23.515-.516.515-.284 0-.515-.23-.515-.515 0-.284.23-.516.515-.516zm4.167 0c.285 0 .516.232.516.516 0 .285-.231.515-.516.515-.285 0-.515-.23-.515-.515 0-.284.23-.516.515-.516z" transform="translate(-1427 -1185) translate(1402 1163) translate(26 23)"/>
                    <g fill="#0AF">
                        <g transform="translate(-1427 -1185) translate(1402 1163) translate(26 23) translate(18 11)">
                            <path d="M8 4h8.609c1.657 0 3 1.343 3 3v8.609c0 1.657-1.343 3-3 3H8c-1.657 0-3-1.343-3-3V7c0-1.657 1.343-3 3-3z" transform="rotate(45 12.304 11.304)"/>
                            <rect width="24.348" height="2.922" y="24" rx="1.461"/>
                        </g>
                    </g>
                </g>
            </g>
        </g>
    </g>
</svg>
