<svg xmlns="http://www.w3.org/2000/svg" width="48" height="48" viewBox="0 0 48 48">
    <g fill="none" fill-rule="evenodd">
        <g>
            <g>
                <g transform="translate(-2309 -1187) translate(2278 1175) translate(31 12)">
                    <ellipse cx="24" cy="24.268" fill="#66B36B" rx="24" ry="23.671"/>
                    <path fill="#FFF" stroke="#66B36B" stroke-width=".4" d="M33.938 17.752c-.355-.345-.82-.517-1.284-.517-.464 0-.928.172-1.282.517L20.444 28.375l-3.818-3.712c-.354-.344-.818-.515-1.282-.515-.464 0-.928.172-1.283.516-.351.342-.528.79-.528 1.24 0 .448.177.897.528 1.24l5.1 4.955c.355.345.819.517 1.283.517.464 0 .928-.172 1.283-.517l12.21-11.87c.353-.342.53-.79.53-1.239 0-.448-.177-.896-.53-1.238z"/>
                </g>
            </g>
        </g>
    </g>
</svg>
