<svg xmlns="http://www.w3.org/2000/svg" width="62" height="52" viewBox="0 0 62 52">
    <g fill="none" fill-rule="evenodd">
        <g>
            <g>
                <g>
                    <path fill-rule="nonzero" stroke="#8D909F" stroke-width="2" d="M54.36 0H5.64C2.528.006.006 2.66 0 5.935v38.094c.006 3.275 2.528 5.93 5.641 5.936H54.36c3.112-.006 5.637-2.661 5.64-5.936V5.935C59.997 2.66 57.472.006 54.36 0z" transform="translate(-1427 -1077) translate(1428 1078)"/>
                    <g fill="#0AF" transform="translate(-1427 -1077) translate(1428 1078) translate(18 10)">
                        <path d="M21 0c1.657 0 3 1.343 3 3v18c0 1.657-1.343 3-3 3H3c-1.657 0-3-1.343-3-3V3c0-1.657 1.343-3 3-3h18zm-6.879 7.05c-1.171-1.171-3.07-1.171-4.242 0L7.05 9.88c-1.171 1.171-1.171 3.07 0 4.242L9.88 16.95c1.171 1.171 3.07 1.171 4.242 0l2.829-2.829c1.171-1.171 1.171-3.07 0-4.242z"/>
                        <rect width="20" height="3" x="2" y="28" rx="1.5"/>
                    </g>
                </g>
            </g>
        </g>
    </g>
</svg>
