<svg xmlns="http://www.w3.org/2000/svg" width="62" height="52" viewBox="0 0 62 52">
    <g fill="none" fill-rule="evenodd">
        <g>
            <g>
                <g>
                    <path fill-rule="nonzero" stroke="#8D909F" stroke-width="2" d="M54.36 0H5.64C2.528.006.006 2.66 0 5.935v38.094c.006 3.275 2.528 5.93 5.641 5.936H54.36c3.112-.006 5.637-2.661 5.64-5.936V5.935C59.997 2.66 57.472.006 54.36 0zM7.4 4.637c.286 0 .516.232.516.516 0 .285-.23.515-.516.515-.284 0-.515-.23-.515-.515 0-.284.23-.516.515-.516zm4.167 0c.285 0 .516.232.516.516 0 .285-.23.515-.516.515-.284 0-.515-.23-.515-.515 0-.284.23-.516.515-.516zm4.167 0c.285 0 .516.232.516.516 0 .285-.231.515-.516.515-.285 0-.515-.23-.515-.515 0-.284.23-.516.515-.516z" transform="translate(-1427 -1856) translate(1402 1822) translate(26 35)"/>
                    <g fill="#0AF" transform="translate(-1427 -1856) translate(1402 1822) translate(26 35) translate(7 15)">
                        <rect width="12" height="19" x="17" rx="3"/>
                        <rect width="12" height="19" x="34" rx="3"/>
                        <rect width="12" height="19" rx="3"/>
                    </g>
                    <g fill="#0AF" transform="translate(-1427 -1856) translate(1402 1822) translate(26 35) translate(7 38)">
                        <rect width="12" height="3" x="17" rx="1.5"/>
                        <rect width="12" height="3" x="34" rx="1.5"/>
                        <rect width="12" height="3" rx="1.5"/>
                    </g>
                </g>
            </g>
        </g>
    </g>
</svg>
