<svg xmlns="http://www.w3.org/2000/svg" width="62" height="52" viewBox="0 0 62 52">
    <g fill="none">
        <path fill="#8D909F" d="M25.25 25.573c-1.275-.825-3.008-.525-3.952.65l-4.589 5.844c-1.325 1.499-2.523 2.323-3.518 2.398-.535.025-1.045-.175-1.53-.624-.739-.675-1.172-1.649-1.172-2.723v-9.916c0-.525-.357-1-.867-1.15-.51-.15-1.07.025-1.377.475L.7 31.467c-.612.9-.841 2.024-.612 3.098L3.3 49.702v1.099c0 .674.56 1.199 1.223 1.199h16.215c.637 0 1.172-.475 1.223-1.1l.638-6.993c.306-3.347 1.121-6.62 2.396-9.692.204-.5.408-.999.612-1.473.433-1.025.841-1.974 1.147-2.748.638-1.624 0-3.447-1.504-4.421zm-.79 3.597c-.28.774-.689 1.673-1.097 2.647-.203.475-.407.975-.637 1.474-1.377 3.297-2.243 6.794-2.575 10.391l-.535 5.895H5.772v-.025c0-.075 0-.175-.025-.25L2.509 34.04c-.102-.424 0-.874.255-1.248l5.303-7.669v5.97c0 1.724.714 3.372 1.963 4.496.994.9 2.142 1.324 3.34 1.25 1.708-.1 3.467-1.2 5.303-3.273l4.64-5.895c.152-.2.433-.225.637-.1.484.375.714 1.024.51 1.599z"/>
        <path fill="#0AF" d="M57.089 0H12.91C10.214 0 8 2.18 8 4.866v11.277c0 .684.56 1.217 1.221 1.217.688 0 1.222-.558 1.222-1.217V4.866c0-1.343 1.094-2.433 2.443-2.433h44.177c1.349 0 2.443 1.09 2.443 2.433v27.268c0 1.343-1.094 2.433-2.443 2.433h-28.96c-.686 0-1.22.558-1.22 1.217 0 .658.559 1.216 1.22 1.216H57.09C59.786 37 62 34.82 62 32.134V4.866C62 2.179 59.786 0 57.089 0z"/>
        <path fill="#5EC9FE" d="M38 31c4.397 0 8-3.353 8-7.5 0-4.123-3.576-7.5-8-7.5-4.424 0-8 3.353-8 7.5s3.576 7.5 8 7.5z"/>
        <path fill="#0AF" d="M48 31c4.397 0 8-3.353 8-7.5 0-4.123-3.576-7.5-8-7.5-4.424 0-8 3.353-8 7.5s3.576 7.5 8 7.5z"/>
    </g>
</svg>
