<?xml version="1.0" encoding="UTF-8"?>
<svg width="20px" height="15px" viewBox="0 0 20 15" version="1.1" xmlns="http://www.w3.org/2000/svg" xmlns:xlink="http://www.w3.org/1999/xlink">
    <!-- Generator: Sketch 63.1 (92452) - https://sketch.com -->
    <title>message</title>
    <desc>Created with Sketch.</desc>
    <g id="DB_2.0" stroke="none" stroke-width="1" fill="none" fill-rule="evenodd">
        <g id="v1_1Admin_Dashboard" transform="translate(-1121.000000, -469.000000)" fill="#FFFFFF" fill-rule="nonzero">
            <g id="Stats-Block-#2" transform="translate(1109.000000, 452.000000)">
                <g id="1492001270_Mail" transform="translate(12.000000, 14.000000)">
                    <path d="M19.76,3.76 C19.62,3.52 19.42,3.34 19.18,3.2 L19.18,3.2 C18.96,3.08 18.7,3 18.42,3 L1.6,3 C1.32,3 1.08,3.06 0.84,3.2 L0.84,3.2 C0.6,3.32 0.4,3.52 0.26,3.74 C0.08,3.98 0,4.28 0,4.6 L0,15.8 C0,16.1 0.08,16.38 0.22,16.62 C0.36,16.86 0.54,17.04 0.78,17.18 C1.02,17.32 1.3,17.4 1.6,17.4 L18.4,17.4 C18.7,17.4 18.98,17.32 19.22,17.18 C19.46,17.04 19.64,16.86 19.78,16.62 C19.92,16.38 20,16.1 20,15.8 L20,4.6 C20,4.28 19.92,4 19.76,3.76 Z M18.4,3.8 C18.42,3.8 18.44,3.8 18.46,3.8 L11.14,10.2 C10.62,10.64 9.76,10.66 9.22,10.22 L1.58,3.8 L18.4,3.8 Z M14.32,11.16 L13.76,11.72 L18.6,16.56 C18.54,16.58 18.46,16.6 18.4,16.6 L1.6,16.6 C1.52,16.6 1.46,16.6 1.4,16.56 L6.26,11.72 L5.7,11.16 L0.84,16 C0.8,15.94 0.8,15.88 0.8,15.8 L0.8,4.6 C0.8,4.48 0.84,4.36 0.88,4.26 L8.72,10.84 C9.12,11.18 9.68,11.4 10.2,11.4 C10.74,11.4 11.26,11.16 11.68,10.8 L19.14,4.28 C19.18,4.38 19.2,4.48 19.2,4.6 L19.2,15.8 C19.2,15.88 19.2,15.94 19.16,16 L14.32,11.16 Z" id="message"></path>
                </g>
            </g>
        </g>
    </g>
</svg>