<?xml version="1.0" encoding="UTF-8" standalone="no"?>
<svg width="33px" height="40px" viewBox="0 0 33 40" version="1.1" xmlns="http://www.w3.org/2000/svg" xmlns:xlink="http://www.w3.org/1999/xlink">
    <defs>
        <path d="M16.3636364,0 C12.8180555,2.26907444 10.1009923,3.82328846 8.21244673,4.66264205 C6.32390116,5.50199563 3.58641892,6.37202404 0,7.27272727 L0,18.1818182 C0,28.2818182 6.97272727,37.7 16.3636364,40 C25.7545455,37.7 32.7272727,28.2818182 32.7272727,18.1818182 L32.7272727,7.27272727 C28.8082826,6.31891157 25.9642662,5.44888316 24.1952237,4.66264205 C22.4261812,3.87640093 19.8156521,2.32218691 16.3636364,0 Z" id="path-1"></path>
        <path d="M24.3099994,15.9167007 L17.9913297,22.6921844 C17.9637244,22.7256311 17.96106,22.7296397 17.9579795,22.7339975 L15.525829,25.2783296 C15.4550577,25.3511881 15.3628894,25.3909402 15.2661666,25.3901903 C15.1662007,25.3868429 15.0786332,25.3475617 15.0109504,25.2749295 L10.3701346,20.0455621 C10.2626907,19.9293478 10.0802138,19.9214809 9.9627845,20.0295897 C9.846154,20.1373828 9.83866985,20.3198932 9.94684561,20.4365572 L14.5883598,25.6667569 C14.7491357,25.8389235 14.9598651,25.9425799 15.1883261,25.9625676 C15.2120524,25.9646434 15.2358456,25.9659538 15.260122,25.9661497 C15.5163128,25.9688973 15.7573674,25.866977 15.9408801,25.6778873 L18.4040131,23.1011752 C18.4121545,23.0918616 24.7250505,16.3162584 24.7250505,16.3162584 C24.8353284,16.2017398 24.8316143,16.0194065 24.7171292,15.9087459 C24.6021944,15.7988172 24.4203442,15.8014167 24.3099994,15.9167007 Z" id="path-2"></path>
    </defs>
    <g id="Key_Pages" stroke="none" stroke-width="1" fill="none" fill-rule="evenodd">
        <g id="Checkout_1step" transform="translate(-130.000000, -160.000000)">
            <g id="H1" transform="translate(130.000000, 155.000000)">
                <g id="safe" transform="translate(0.000000, 5.000000)">
                    <g id="Combined-Shape" fill-rule="nonzero">
                        <use fill="#6ABD0A" fill-rule="evenodd" xlink:href="#path-1"></use>
                        <path stroke="#FFFFFF" stroke-width="1" d="M16.3568302,0.597604358 C12.926422,2.78355509 10.2822142,4.28990418 8.41551597,5.11954782 C6.56372887,5.94256431 3.9270705,6.7888015 0.5,7.66199833 L0.5,18.1818182 C0.5,28.0555733 7.29958802,37.1999636 16.3636364,39.4847967 C25.4276847,37.1999636 32.2272727,28.0555733 32.2272727,18.1818182 L32.2272727,7.66506159 C28.4777507,6.74119334 25.7359895,5.89458562 23.9921545,5.11954782 C22.2378082,4.33983837 19.696566,2.8338362 16.3568302,0.597604358 Z"></path>
                    </g>
                    <g id="ok">
                        <use fill="#FFFFFF" fill-rule="evenodd" xlink:href="#path-2"></use>
                        <path stroke="#FFFFFF" stroke-width="1" d="M15.2741205,24.8184123 L17.5496473,22.4454411 C17.5496541,22.4454315 17.5496581,22.4454258 17.5496581,22.4454258 C17.5711694,22.4160482 17.5711694,22.4160482 17.6256644,22.3511728 L23.9443341,15.5756892 L23.9487931,15.5709696 C24.2503548,15.2559097 24.7486146,15.2469811 25.0646266,15.5492386 C25.3771696,15.8513406 25.387,16.3496846 25.0908742,16.6571 C24.8933425,16.8691099 24.8933425,16.8691099 24.1032133,17.7171611 C23.1155518,18.7772319 23.1155518,18.7772319 21.9303588,20.0493392 C21.9302581,20.0494473 21.9302581,20.0494473 21.9301574,20.0495555 C20.6310589,21.4439314 18.7779444,23.4331241 18.7654425,23.4466731 L16.2996852,26.0261098 C16.0215014,26.3127477 15.6491615,26.4703509 15.2560883,26.4661334 C15.1978074,26.464747 15.1978074,26.464747 15.1447483,26.460665 C14.7923092,26.4298306 14.4672648,26.2696662 14.2143871,25.9986371 L9.58020596,20.7765209 C9.28399093,20.4570628 9.30383049,19.9577686 9.62413103,19.6617394 C9.94418409,19.3670895 10.4424307,19.3872272 10.7441059,19.7136803 L15.2741205,24.8184123 Z"></path>
                    </g>
                </g>
            </g>
        </g>
    </g>
</svg>