<svg width="16" height="12" viewBox="0 0 16 12" xmlns="http://www.w3.org/2000/svg"><path d="M5 9.837l-.438.437a.276.276 0 0 1-.402 0L.087 6.2a.276.276 0 0 1 0-.402L4.16 1.726a.276.276 0 0 1 .402 0L5 2.163a.276.276 0 0 1 0 .402L1.564 6 5 9.435a.276.276 0 0 1 0 .402zM10.163.51l-3.26 11.283a.284.284 0 0 1-.135.17.244.244 0 0 1-.205.023l-.542-.149a.284.284 0 0 1-.17-.135.262.262 0 0 1-.023-.214L9.09.206a.284.284 0 0 1 .136-.17.244.244 0 0 1 .205-.023l.542.149a.284.284 0 0 1 .17.135.262.262 0 0 1 .022.214zm5.742 5.69l-4.072 4.073a.276.276 0 0 1-.402 0l-.437-.437a.276.276 0 0 1 0-.402L14.429 6l-3.434-3.435a.276.276 0 0 1 0-.402l.437-.437a.276.276 0 0 1 .402 0L15.906 5.8a.276.276 0 0 1 0 .402z" fill="#3B4859" fill-rule="evenodd"/></svg>