<svg xmlns="http://www.w3.org/2000/svg" width="16" height="16" viewBox="0 0 16 16">
  <path stroke="#000" stroke-width=".25" d="M14.8722137,5.80859498 L14.5638207,5.5002393 C14.393439,5.32987825 14.1171976,5.32987825 13.946816,5.5002393 L11.5021998,7.9445595 L11.5021998,1.44109755 C11.5021998,1.19944292 11.3064468,1.0037136 11.0647629,1.0037136 L4.5032093,1.0037136 C4.35469947,1.0037136 4.20728324,0.977470564 4.12023329,1.06450997 L1.06451778,4.11985555 C0.977467836,4.20689496 1.00371405,4.34051576 1.00371405,4.5027852 L1.00371405,14.5626161 C1.00371405,14.8042707 1.19946707,15 1.44115096,15 L11.0647629,15 C11.3064468,15 11.5021998,14.8042707 11.5021998,14.5626161 L11.5021998,9.795131 L14.8722137,6.42552504 C15.0425954,6.255164 15.0425954,5.97895603 14.8722137,5.80859498 L14.8722137,5.80859498 Z M4.0657724,1.74923454 L4.0657724,4.06540125 L1.74932526,4.06540125 L4.0657724,1.74923454 Z M1.44115096,14.5626161 L1.44115096,4.5027852 L4.28449085,4.5027852 C4.40522344,4.5027852 4.5032093,4.4048112 4.5032093,4.28409323 L4.5032093,1.44109755 L11.0647629,1.44109755 L11.0647629,8.38194345 L7.50599495,11.9404993 C7.42331938,11.9523086 7.35398563,12.0093872 7.33430097,12.0955519 L7.15079618,12.8979327 C7.12301894,12.9471384 7.11514508,13.0085909 7.13395486,13.0704807 C7.1402977,13.0914751 7.15254593,13.1091892 7.16391929,13.1271219 C7.17857343,13.1507407 7.19038422,13.1629874 7.20328861,13.1752342 C7.21553685,13.1879183 7.22778508,13.1997277 7.24265793,13.2097875 C7.26977902,13.2259707 7.2872765,13.2379988 7.30827347,13.2445595 C7.37017079,13.2635857 7.43141196,13.2554941 7.48062361,13.2277202 L8.28310162,13.0442377 C8.37496337,13.0232432 8.43423607,12.946701 8.44036018,12.8568186 L11.0649816,10.2325149 L11.0649816,14.5626161 L1.44115096,14.5626161 Z M7.99912084,12.5937458 L7.66631558,12.7118259 L7.75970836,12.3030906 L14.2549903,5.80859498 L14.5633833,6.11695067 L9.9737483,10.6454298 L7.99912084,12.5937458 Z M3.40939832,6.252321 L9.09607811,6.252321 C9.21681069,6.252321 9.31479656,6.154347 9.31479656,6.03362903 C9.31479656,5.91291106 9.21681069,5.81493705 9.09607811,5.81493705 L3.40939832,5.81493705 C3.28866573,5.81493705 3.19067987,5.91291106 3.19067987,6.03362903 C3.19067987,6.154347 3.28866573,6.252321 3.40939832,6.252321 L3.40939832,6.252321 Z M9.09289824,7.99988395 C9.21363083,7.99988395 9.3116167,7.90190995 9.3116167,7.78119197 C9.3116167,7.660474 9.21363083,7.5625 9.09289824,7.5625 L3.40621845,7.5625 C3.28548587,7.5625 3.1875,7.660474 3.1875,7.78119197 C3.1875,7.90190995 3.28548587,7.99988395 3.40621845,7.99988395 L9.09289824,7.99988395 Z M3.40621845,9.69759437 L9.09289824,9.69759437 C9.21363083,9.69759437 9.3116167,9.59962037 9.3116167,9.4789024 C9.3116167,9.35818443 9.21363083,9.26021042 9.09289824,9.26021042 L3.40621845,9.26021042 C3.28548587,9.26021042 3.1875,9.35818443 3.1875,9.4789024 C3.1875,9.59962037 3.28548587,9.69759437 3.40621845,9.69759437 L3.40621845,9.69759437 Z"/>
</svg>
