<svg width="30" height="30" viewBox="0 0 30 30" xmlns="http://www.w3.org/2000/svg"><g transform="translate(-1)" fill="none" fill-rule="evenodd"><rect fill="#4F5B6A" width="30" height="30" rx="2"/><g fill="#FFF"><path d="M23 15a2.29 2.29 0 0 0-1.89-2.251l-.198-.478a2.289 2.289 0 0 0-.255-2.928c-.77-.769-2.057-.869-2.929-.256l-.477-.197A2.29 2.29 0 0 0 15 7a2.29 2.29 0 0 0-2.251 1.89l-.478.197a2.29 2.29 0 0 0-2.928.256 2.27 2.27 0 0 0-.67 1.617c0 .476.145.93.414 1.312l-.197.477A2.29 2.29 0 0 0 7 15a2.29 2.29 0 0 0 1.89 2.251l.197.477a2.29 2.29 0 0 0 .256 2.929c.768.768 2.058.869 2.929.256l.477.197A2.29 2.29 0 0 0 15.001 23a2.288 2.288 0 0 0 2.25-1.89l.478-.198a2.289 2.289 0 0 0 3.598-1.872c0-.476-.145-.93-.414-1.312l.198-.477A2.289 2.289 0 0 0 23 15zm-2.286 1.144c-.23 0-.44.139-.528.353l-.461 1.113a.571.571 0 0 0 .124.623c.216.216.334.502.334.808 0 .305-.118.592-.334.808a1.145 1.145 0 0 1-1.617 0 .571.571 0 0 0-.623-.124l-1.114.462a.571.571 0 0 0-.352.528 1.144 1.144 0 0 1-2.286 0c0-.231-.14-.44-.352-.528l-1.115-.462a.571.571 0 0 0-.623.124 1.17 1.17 0 0 1-1.616 0 1.144 1.144 0 0 1 0-1.616.571.571 0 0 0 .124-.623l-.461-1.113a.571.571 0 0 0-.528-.353 1.144 1.144 0 0 1 0-2.286c.23 0 .44-.14.528-.353l.461-1.114a.571.571 0 0 0-.124-.623 1.135 1.135 0 0 1-.334-.808 1.144 1.144 0 0 1 1.951-.809c.163.164.41.212.623.124l1.114-.461a.572.572 0 0 0 .352-.528 1.144 1.144 0 0 1 2.286 0c0 .23.14.44.352.528l1.115.461c.213.088.46.04.623-.124a1.17 1.17 0 0 1 1.616 0c.445.446.445 1.171 0 1.617a.571.571 0 0 0-.124.623l.461 1.114a.572.572 0 0 0 .528.352 1.145 1.145 0 0 1 0 2.287z"/><path d="M15 12.143A2.86 2.86 0 0 0 12.143 15 2.86 2.86 0 0 0 15 17.857a.571.571 0 1 0 0-1.143c-.945 0-1.714-.769-1.714-1.714s.769-1.714 1.714-1.714a1.716 1.716 0 0 1 1.44 2.647.57.57 0 1 0 .958.621c.3-.463.46-1 .46-1.554A2.86 2.86 0 0 0 15 12.143z"/></g></g></svg>