<svg xmlns="http://www.w3.org/2000/svg" width="12" height="13" viewBox="0 0 12 13">
  <path d="M1,2.3265302 L1,10.3094698 C1,10.8649054 1.45267418,11.318 2.0085302,11.318 L9.9914698,11.318 C10.5469054,11.318 11,10.8653258 11,10.3094698 L11,2.3265302 C11,1.77109463 10.5473258,1.318 9.9914698,1.318 L2.0085302,1.318 C1.45309463,1.318 1,1.77067418 1,2.3265302 Z M0,2.3265302 C0,1.2172496 0.901950359,0.318 2.0085302,0.318 L9.9914698,0.318 C11.1007504,0.318 12,1.21995036 12,2.3265302 L12,10.3094698 C12,11.4187504 11.0980496,12.318 9.9914698,12.318 L2.0085302,12.318 C0.899249601,12.318 0,11.4160496 0,10.3094698 L0,2.3265302 Z M0,3.5 L0,2.5 L12,2.5 L12,3.5 L0,3.5 Z M2,7.5 L7,7.5 L7,6.5 L2,6.5 L2,7.5 Z M2,9.5 L9,9.5 L9,8.5 L2,8.5 L2,9.5 Z"/>
</svg>
