<?xml version="1.0" encoding="UTF-8" standalone="no"?>
<svg width="18px" height="23px" viewBox="0 0 18 23" version="1.1" xmlns="http://www.w3.org/2000/svg" xmlns:xlink="http://www.w3.org/1999/xlink">
    <defs></defs>
    <g id="Page-1" stroke="none" stroke-width="1" fill="none" fill-rule="evenodd">
        <g id="Attachments" transform="translate(-414.000000, -303.000000)" fill="#9B9B9B">
            <g id="URL2" transform="translate(414.000000, 303.363636)">
                <g id="Group">
                    <path d="M16.2,22 L1.8,22 C0.81,22 0,21.2016129 0,20.2258065 L0,1.77419355 C0,0.798387097 0.81,0 1.8,0 L9.126,0 C9.612,0 10.062,0.177419355 10.404,0.514516129 L17.478,7.48709677 C17.82,7.82419355 18,8.26774194 18,8.74677419 L18,20.2258065 C18,21.2016129 17.19,22 16.2,22 Z M1.8,0.709677419 C1.206,0.709677419 0.72,1.18870968 0.72,1.77419355 L0.72,20.2258065 C0.72,20.8112903 1.206,21.2903226 1.8,21.2903226 L16.2,21.2903226 C16.794,21.2903226 17.28,20.8112903 17.28,20.2258065 L17.28,8.74677419 C17.28,8.46290323 17.172,8.19677419 16.956,8.0016129 L9.882,1.02903226 C9.684,0.816129032 9.414,0.709677419 9.126,0.709677419 L1.8,0.709677419 Z" id="Shape"></path>
                </g>
                <path d="M9.80439122,17.2994012 C9.80439122,17.8263499 9.61477236,18.2415154 9.23552894,18.5449102 C8.85628553,18.8483049 8.32867936,19 7.65269461,19 C7.02993701,19 6.47904431,18.882902 6,18.6487026 L6,17.499002 C6.39388088,17.6746516 6.72721088,17.7984028 7,17.8702595 C7.27278912,17.9421161 7.52228762,17.9780439 7.74850299,17.9780439 C8.01996144,17.9780439 8.22820952,17.9261482 8.37325349,17.8223553 C8.51829747,17.7185624 8.59081836,17.5642059 8.59081836,17.3592814 C8.59081836,17.2448431 8.55888255,17.1430477 8.49500998,17.0538922 C8.43113741,16.9647367 8.33732597,16.8789093 8.21357285,16.7964072 C8.08981974,16.7139051 7.83765992,16.5821699 7.45708583,16.4011976 C7.10046395,16.2335321 6.83300156,16.0725224 6.65469062,15.9181637 C6.47637968,15.763805 6.3339992,15.584166 6.22754491,15.3792415 C6.12109062,15.174317 6.06786427,14.9347984 6.06786427,14.6606786 C6.06786427,14.1443753 6.24284589,13.7385244 6.59281437,13.4431138 C6.94278285,13.1477031 7.42647729,13 8.04391218,13 C8.34730691,13 8.63672517,13.0359278 8.91217565,13.1077844 C9.18762613,13.1796411 9.47571373,13.2807711 9.77644711,13.4111776 L9.37724551,14.3732535 C9.06586671,14.2455083 8.80838425,14.1563542 8.60479042,14.1057884 C8.40119659,14.0552226 8.20093246,14.0299401 8.00399202,14.0299401 C7.76979257,14.0299401 7.59015365,14.0844971 7.46506986,14.1936128 C7.33998607,14.3027284 7.27744511,14.4451089 7.27744511,14.6207585 C7.27744511,14.7298741 7.30272762,14.8250162 7.35329341,14.9061876 C7.4038592,14.987359 7.48436405,15.0658679 7.59481038,15.1417166 C7.70525671,15.2175652 7.96673114,15.3539578 8.37924152,15.5508982 C8.92481976,15.8117112 9.29873485,16.0731856 9.500998,16.3353293 C9.70326116,16.597473 9.80439122,16.9188271 9.80439122,17.2994012 Z M14.3073852,14.3892216 C14.3073852,14.7538275 14.1969406,15.063871 13.9760479,15.3193613 C13.7551552,15.5748516 13.4451118,15.7504985 13.0459082,15.8463074 L13.0459082,15.8702595 C13.5169684,15.9288093 13.873585,16.0718551 14.1157685,16.2994012 C14.357952,16.5269472 14.4790419,16.8336641 14.4790419,17.2195609 C14.4790419,17.7811073 14.2754511,18.2182286 13.8682635,18.5309381 C13.4610758,18.8436476 12.879578,19 12.1237525,19 C11.4903495,19 10.9288115,18.894878 10.4391218,18.6846307 L10.4391218,17.6347305 C10.6653371,17.7491689 10.9141703,17.842315 11.1856287,17.9141717 C11.4570872,17.9860283 11.7258802,18.0219561 11.992016,18.0219561 C12.3992036,18.0219561 12.6999325,17.9527618 12.8942116,17.8143713 C13.0884907,17.6759807 13.1856287,17.4537607 13.1856287,17.1477046 C13.1856287,16.8735848 13.0738534,16.6793086 12.8502994,16.5648703 C12.6267454,16.4504319 12.2701289,16.3932136 11.7804391,16.3932136 L11.3373253,16.3932136 L11.3373253,15.4471058 L11.7884232,15.4471058 C12.2408539,15.4471058 12.5715226,15.3878915 12.7804391,15.2694611 C12.9893557,15.1510307 13.0938124,14.9481052 13.0938124,14.6606786 C13.0938124,14.2188933 12.8170354,13.998004 12.2634731,13.998004 C12.0718553,13.998004 11.8769138,14.0299398 11.6786427,14.0938124 C11.4803716,14.157685 11.2601476,14.2681296 11.0179641,14.4251497 L10.4471058,13.5748503 C10.9793772,13.1916149 11.6141014,13 12.3512974,13 C12.9554255,13 13.4324666,13.1224206 13.7824351,13.3672655 C14.1324036,13.6121103 14.3073852,13.952759 14.3073852,14.3892216 Z" id="S3"></path>
                <g id="Group" transform="translate(3.000000, 3.000000)">
                    <path d="M4.07136364,1.71045455 C3.975,1.61409091 3.83045455,1.61409091 3.73409091,1.71045455 L1.71045455,3.73409091 C1.61409091,3.83045455 1.61409091,3.975 1.71045455,4.07136364 C1.80681818,4.16772727 1.95136364,4.16772727 2.04772727,4.07136364 L4.07136364,2.04772727 C4.16772727,1.95136364 4.16772727,1.80681818 4.07136364,1.71045455 Z" id="Shape"></path>
                    <path d="M2.04772727,5.42045455 L2.89090909,4.57727273 C3.22818182,4.24 3.32454545,3.73409091 3.15590909,3.30045455 L2.74636364,3.71 C2.74636364,3.90272727 2.69818182,4.09545455 2.52954545,4.26409091 L1.68636364,5.10727273 C1.39727273,5.39636364 0.939545455,5.39636364 0.674545455,5.10727273 C0.385454545,4.81818182 0.385454545,4.36045455 0.674545455,4.09545455 L1.51772727,3.25227273 C1.66227273,3.10772727 1.87909091,3.03545455 2.07181818,3.03545455 L2.48136364,2.62590909 C2.04772727,2.45727273 1.54181818,2.52954545 1.20454545,2.89090909 L0.361363636,3.73409091 C-0.0963636364,4.19181818 -0.0963636364,4.96272727 0.361363636,5.42045455 C0.819090909,5.90227273 1.59,5.90227273 2.04772727,5.42045455 Z" id="Shape"></path>
                    <path d="M3.22818182,1.54181818 L4.07136364,0.698636364 C4.36045455,0.409545455 4.81818182,0.409545455 5.08318182,0.698636364 C5.34818182,0.987727273 5.37227273,1.44545455 5.08318182,1.71045455 L4.24,2.55363636 C4.09545455,2.69818182 3.87863636,2.77045455 3.68590909,2.77045455 L3.27636364,3.18 C3.71,3.34863636 4.21590909,3.25227273 4.55318182,2.915 L5.39636364,2.07181818 C5.85409091,1.61409091 5.85409091,0.843181818 5.39636364,0.385454545 C4.93863636,-0.0722727273 4.16772727,-0.0722727273 3.71,0.385454545 L2.89090909,1.20454545 C2.55363636,1.54181818 2.45727273,2.04772727 2.62590909,2.48136364 L3.03545455,2.07181818 C3.01136364,1.87909091 3.08363636,1.68636364 3.22818182,1.54181818 Z" id="Shape"></path>
                </g>
            </g>
        </g>
    </g>
</svg>