<?xml version="1.0" encoding="UTF-8" standalone="no"?>
<svg width="10px" height="10px" viewBox="0 0 10 10" version="1.1" xmlns="http://www.w3.org/2000/svg" xmlns:xlink="http://www.w3.org/1999/xlink">
    <defs></defs>
    <g id="Page-1" stroke="none" stroke-width="1" fill="none" fill-rule="evenodd">
        <g id="Attachments" transform="translate(-854.000000, -95.000000)" fill="#526AA8">
            <path d="M859.72779,100.006991 L863.837632,95.9150041 C864.034669,95.7197433 864.034669,95.4036306 863.837632,95.2088691 C863.641093,95.0136083 863.321844,95.0136083 863.125306,95.2088691 L859.018955,99.2973607 L854.874694,95.1479438 C854.678156,94.9506854 854.358907,94.9506854 854.162368,95.1479438 C853.96583,95.3457015 853.96583,95.6658094 854.162368,95.8630677 L858.303636,100.009488 L854.147404,104.147419 C853.950865,104.34268 853.950865,104.658793 854.147404,104.853554 C854.343942,105.048815 854.663191,105.048815 854.85973,104.853554 L859.012471,100.719119 L863.14027,104.852056 C863.336809,105.049315 863.656058,105.049315 863.852596,104.852056 C864.049135,104.654298 864.049135,104.334191 863.852596,104.136932 L859.72779,100.006991 Z" id="Close"></path>
        </g>
    </g>
</svg>