<svg width="43" height="43" xmlns="http://www.w3.org/2000/svg"><path d="M24.746 14.948h-8.302V6.646a.75.75 0 0 0-1.5 0v8.302H6.645a.75.75 0 1 0 0 1.5h8.299v8.302a.75.75 0 0 0 1.5 0v-8.302h8.302a.75.75 0 0 0 0-1.5zm17.496 26.506L27.165 26.377c2.613-2.805 4.227-6.553 4.227-10.679C31.392 7.042 24.35 0 15.694 0 7.04 0 0 7.042 0 15.698c0 8.654 7.04 15.697 15.694 15.697 3.99 0 7.626-1.509 10.398-3.97l15.09 15.09a.747.747 0 0 0 1.06 0 .75.75 0 0 0 0-1.061zM15.694 29.895c-7.826 0-14.194-6.37-14.194-14.197C1.5 7.869 7.868 1.5 15.694 1.5c7.828 0 14.198 6.369 14.198 14.198 0 7.827-6.37 14.197-14.198 14.197z" fill="#5B5B58" fill-rule="evenodd"/></svg>