<?xml version="1.0" encoding="UTF-8" standalone="no"?>
<svg width="19px" height="23px" viewBox="0 0 19 23" version="1.1" xmlns="http://www.w3.org/2000/svg" xmlns:xlink="http://www.w3.org/1999/xlink">
    <defs></defs>
    <g id="Page-1" stroke="none" stroke-width="1" fill="none" fill-rule="evenodd">
        <g id="Attachments" transform="translate(-128.000000, -279.000000)" fill="#9B9B9B">
            <g id="Ai" transform="translate(128.545455, 279.363636)">
                <g id="Group">
                    <g transform="translate(3.780000, 10.645161)" id="Shape">
                        <path d="M4.554,6.56451613 L4.104,5.10967742 L1.854,5.10967742 L1.404,6.56451613 L0,6.56451613 L2.178,0.461290323 L3.78,0.461290323 L5.958,6.56451613 L4.554,6.56451613 Z M3.798,4.04516129 C3.384,2.73225806 3.15,1.98709677 3.096,1.82741935 C3.042,1.66774194 3.006,1.52580645 2.988,1.41935484 C2.898,1.77419355 2.628,2.64354839 2.196,4.04516129 L3.798,4.04516129 Z"></path>
                        <path d="M6.588,0.709677419 C6.588,0.301612903 6.822,0.0887096774 7.29,0.0887096774 C7.758,0.0887096774 7.992,0.301612903 7.992,0.709677419 C7.992,0.90483871 7.938,1.06451613 7.812,1.17096774 C7.686,1.27741935 7.524,1.33064516 7.29,1.33064516 C6.822,1.33064516 6.588,1.13548387 6.588,0.709677419 Z M7.92,6.56451613 L6.642,6.56451613 L6.642,1.91612903 L7.92,1.91612903 L7.92,6.56451613 Z"></path>
                    </g>
                    <path d="M16.2,22 L1.8,22 C0.81,22 0,21.2016129 0,20.2258065 L0,1.77419355 C0,0.798387097 0.81,0 1.8,0 L9.126,0 C9.612,0 10.062,0.177419355 10.404,0.514516129 L17.478,7.48709677 C17.82,7.82419355 18,8.26774194 18,8.74677419 L18,20.2258065 C18,21.2016129 17.19,22 16.2,22 Z M1.8,0.709677419 C1.206,0.709677419 0.72,1.18870968 0.72,1.77419355 L0.72,20.2258065 C0.72,20.8112903 1.206,21.2903226 1.8,21.2903226 L16.2,21.2903226 C16.794,21.2903226 17.28,20.8112903 17.28,20.2258065 L17.28,8.74677419 C17.28,8.46290323 17.172,8.19677419 16.956,8.0016129 L9.882,1.02903226 C9.684,0.816129032 9.414,0.709677419 9.126,0.709677419 L1.8,0.709677419 Z" id="Shape"></path>
                </g>
            </g>
        </g>
    </g>
</svg>