<?xml version="1.0" encoding="UTF-8" standalone="no"?>
<svg width="18px" height="23px" viewBox="0 0 18 23" version="1.1" xmlns="http://www.w3.org/2000/svg" xmlns:xlink="http://www.w3.org/1999/xlink">
    <defs>
        <rect id="path-1" x="5.53715099" y="0.575611144" width="0.923076923" height="7.11111111" rx="0.461538462"></rect>
        <mask id="mask-2" maskContentUnits="userSpaceOnUse" maskUnits="objectBoundingBox" x="0" y="0" width="1" height="7.11111111" fill="white">
            <use xlink:href="#path-1"></use>
        </mask>
    </defs>
    <g id="Page-1" stroke="none" stroke-width="1" fill="none" fill-rule="evenodd">
        <g id="Attachments" transform="translate(-349.000000, -279.000000)">
            <g id="Code" transform="translate(349.000000, 279.363636)">
                <g id="Group" fill="#9B9B9B">
                    <path d="M16.2,22 L1.8,22 C0.81,22 0,21.2016129 0,20.2258065 L0,1.77419355 C0,0.798387097 0.81,0 1.8,0 L9.126,0 C9.612,0 10.062,0.177419355 10.404,0.514516129 L17.478,7.48709677 C17.82,7.82419355 18,8.26774194 18,8.74677419 L18,20.2258065 C18,21.2016129 17.19,22 16.2,22 Z M1.8,0.709677419 C1.206,0.709677419 0.72,1.18870968 0.72,1.77419355 L0.72,20.2258065 C0.72,20.8112903 1.206,21.2903226 1.8,21.2903226 L16.2,21.2903226 C16.794,21.2903226 17.28,20.8112903 17.28,20.2258065 L17.28,8.74677419 C17.28,8.46290323 17.172,8.19677419 16.956,8.0016129 L9.882,1.02903226 C9.684,0.816129032 9.414,0.709677419 9.126,0.709677419 L1.8,0.709677419 Z" id="Shape"></path>
                </g>
                <g id="Group-15" transform="translate(3.000000, 11.000000)" stroke="#979797">
                    <use id="Rectangle-7" mask="url(#mask-2)" stroke-width="2" fill="#D8D8D8" transform="translate(6.037151, 4.131167) rotate(15.000000) translate(-6.037151, -4.131167) " xlink:href="#path-1"></use>
                    <path d="M0.686189669,4.2958965 L3.06933619,1.91274998 C3.17730928,1.80477689 3.17669592,1.63470161 3.07141836,1.52942405 C2.96921972,1.42722541 2.79451994,1.42507872 2.68809244,1.53150622 L0.136511613,4.08308705 C0.0772806289,4.14231803 0.0507266685,4.22023749 0.0562022376,4.2958965 C0.0507266685,4.37155551 0.0772806289,4.44947497 0.136511613,4.50870595 L2.68809244,7.06028678 C2.79451994,7.16671428 2.96921972,7.16456759 3.07141836,7.06236894 C3.17669592,6.95709139 3.17730928,6.78701611 3.06933619,6.67904302 L0.686189669,4.2958965 Z" id="Combined-Shape" stroke-width="0.5" fill="#979797"></path>
                    <path d="M8.99388198,4.2958965 L11.3770285,1.91274998 C11.4850016,1.80477689 11.4843882,1.63470161 11.3791107,1.52942405 C11.276912,1.42722541 11.1022123,1.42507872 10.9957847,1.53150622 L8.44420392,4.08308705 C8.38497294,4.14231803 8.35841898,4.22023749 8.36389455,4.2958965 C8.35841898,4.37155551 8.38497294,4.44947497 8.44420392,4.50870595 L10.9957847,7.06028678 C11.1022123,7.16671428 11.276912,7.16456759 11.3791107,7.06236894 C11.4843882,6.95709139 11.4850016,6.78701611 11.3770285,6.67904302 L8.99388198,4.2958965 Z" id="Combined-Shape" stroke-width="0.5" fill="#979797" transform="translate(9.910616, 4.295896) scale(-1, 1) translate(-9.910616, -4.295896) "></path>
                </g>
            </g>
        </g>
    </g>
</svg>