<?xml version="1.0" encoding="UTF-8" standalone="no"?>
<svg width="18px" height="23px" viewBox="0 0 18 23" version="1.1" xmlns="http://www.w3.org/2000/svg" xmlns:xlink="http://www.w3.org/1999/xlink">
    <defs></defs>
    <g id="Page-1" stroke="none" stroke-width="1" fill="none" fill-rule="evenodd">
        <g id="Attachments" transform="translate(-327.000000, -279.000000)" fill="#9B9B9B">
            <g id="Exel" transform="translate(327.000000, 279.363636)">
                <g id="Group">
                    <path d="M16.2,22 L1.8,22 C0.81,22 0,21.2016129 0,20.2258065 L0,1.77419355 C0,0.798387097 0.81,0 1.8,0 L9.126,0 C9.612,0 10.062,0.177419355 10.404,0.514516129 L17.478,7.48709677 C17.82,7.82419355 18,8.26774194 18,8.74677419 L18,20.2258065 C18,21.2016129 17.19,22 16.2,22 Z M1.8,0.709677419 C1.206,0.709677419 0.72,1.18870968 0.72,1.77419355 L0.72,20.2258065 C0.72,20.8112903 1.206,21.2903226 1.8,21.2903226 L16.2,21.2903226 C16.794,21.2903226 17.28,20.8112903 17.28,20.2258065 L17.28,8.74677419 C17.28,8.46290323 17.172,8.19677419 16.956,8.0016129 L9.882,1.02903226 C9.684,0.816129032 9.414,0.709677419 9.126,0.709677419 L1.8,0.709677419 Z" id="Shape"></path>
                </g>
                <path d="M4.72149097,12.9809302 C4.27791567,12.9809302 3.9344668,13.1475853 3.69113407,13.4809004 C3.44780133,13.8142156 3.32613679,14.2786953 3.32613679,14.8743536 C3.32613679,16.1138297 3.7912502,16.7335585 4.72149097,16.7335585 C5.11183723,16.7335585 5.58455467,16.6359733 6.13965747,16.4408002 L6.13965747,17.4293345 C5.6834086,17.6194382 5.17393832,17.7144886 4.61123137,17.7144886 C3.80265697,17.7144886 3.18419554,17.4692585 2.75582854,16.978791 C2.32746154,16.4883235 2.11328125,15.7843166 2.11328125,14.8667495 C2.11328125,14.2888342 2.21847039,13.7825323 2.42885181,13.3478285 C2.63923324,12.9131247 2.94149359,12.5798145 3.33564193,12.347888 C3.72979026,12.1159615 4.19173532,12 4.72149097,12 C5.26138547,12 5.80380656,12.1305359 6.3487705,12.3916117 L5.968565,13.3497295 C5.76071829,13.2508756 5.55160736,13.1646965 5.34122593,13.0911898 C5.1308445,13.017683 4.92426825,12.9809302 4.72149097,12.9809302 Z M10.60327,16.0948132 C10.60327,16.596687 10.4226742,16.9920967 10.0614772,17.2810544 C9.70028016,17.570012 9.19778025,17.7144886 8.55396239,17.7144886 C7.96083885,17.7144886 7.4361605,17.6029628 6.97991163,17.3799078 L6.97991163,16.284916 C7.35504959,16.4522072 7.67251801,16.5700697 7.9323264,16.6385071 C8.19213479,16.7069444 8.42976085,16.7411626 8.64521171,16.7411626 C8.90375274,16.7411626 9.10209129,16.6917363 9.24023331,16.5928824 C9.37837533,16.4940285 9.44744531,16.3470172 9.44744531,16.151844 C9.44744531,16.0428513 9.41702917,15.9458998 9.35619599,15.8609868 C9.2953628,15.7760738 9.20601541,15.6943305 9.08815111,15.6157543 C8.97028682,15.5371781 8.73012608,15.4117115 8.36766169,15.2393508 C8.02800975,15.0796637 7.77327461,14.9263157 7.60344864,14.7793022 C7.43362267,14.6322887 7.2980174,14.4611979 7.19662876,14.2660248 C7.09524012,14.0708516 7.04454656,13.8427306 7.04454656,13.5816549 C7.04454656,13.08992 7.21120164,12.7033816 7.54451679,12.4220281 C7.87783194,12.1406746 8.33850967,12 8.92656378,12 C9.2155214,12 9.49116763,12.0342182 9.75351073,12.1026555 C10.0158538,12.1710928 10.2902327,12.2674106 10.5766556,12.3916117 L10.1964501,13.3079069 C9.89988837,13.1862405 9.65465827,13.1013288 9.4607525,13.0531692 C9.26684673,13.0050096 9.07611221,12.9809302 8.88854323,12.9809302 C8.66548822,12.9809302 8.49439746,13.0328911 8.3752658,13.1368144 C8.25613415,13.2407378 8.19656922,13.3763431 8.19656922,13.5436343 C8.19656922,13.6475577 8.22064866,13.7381724 8.26880826,13.8154813 C8.31696787,13.8927901 8.39364188,13.9675631 8.49883259,14.0398025 C8.6040233,14.1120419 8.85305542,14.2419441 9.24593639,14.4295131 C9.76555317,14.6779153 10.1216754,14.9269474 10.3143138,15.1766169 C10.5069523,15.4262865 10.60327,15.7323488 10.60327,16.0948132 Z M14.7817284,12.0798432 L15.9717717,12.0798432 L14.0821503,17.6384475 L12.7970557,17.6384475 L10.9112365,12.0798432 L12.1012797,12.0798432 L13.1468448,15.387631 C13.2051433,15.5828041 13.2653419,15.8102915 13.3274424,16.0700999 C13.389543,16.3299082 13.4281968,16.5105041 13.4434051,16.6118927 C13.471287,16.3786988 13.5663374,15.9706157 13.7285592,15.387631 L14.7817284,12.0798432 Z" id="CSV"></path>
            </g>
        </g>
    </g>
</svg>