<?xml version="1.0" encoding="UTF-8" standalone="no"?>
<svg width="18px" height="23px" viewBox="0 0 18 23" version="1.1" xmlns="http://www.w3.org/2000/svg" xmlns:xlink="http://www.w3.org/1999/xlink">
    <defs></defs>
    <g id="Page-1" stroke="none" stroke-width="1" fill="none" fill-rule="evenodd">
        <g id="Attachments" transform="translate(-371.000000, -279.000000)" fill="#9B9B9B">
            <g id="exe" transform="translate(371.000000, 279.363636)">
                <g id="Group">
                    <path d="M16.2,22 L1.8,22 C0.81,22 0,21.2016129 0,20.2258065 L0,1.77419355 C0,0.798387097 0.81,0 1.8,0 L9.126,0 C9.612,0 10.062,0.177419355 10.404,0.514516129 L17.478,7.48709677 C17.82,7.82419355 18,8.26774194 18,8.74677419 L18,20.2258065 C18,21.2016129 17.19,22 16.2,22 Z M1.8,0.709677419 C1.206,0.709677419 0.72,1.18870968 0.72,1.77419355 L0.72,20.2258065 C0.72,20.8112903 1.206,21.2903226 1.8,21.2903226 L16.2,21.2903226 C16.794,21.2903226 17.28,20.8112903 17.28,20.2258065 L17.28,8.74677419 C17.28,8.46290323 17.172,8.19677419 16.956,8.0016129 L9.882,1.02903226 C9.684,0.816129032 9.414,0.709677419 9.126,0.709677419 L1.8,0.709677419 Z" id="Shape"></path>
                </g>
                <path d="M5.859375,17.6363636 L2.5703125,17.6363636 L2.5703125,11.9254261 L5.859375,11.9254261 L5.859375,12.9176136 L3.78125,12.9176136 L3.78125,14.1715199 L5.71484375,14.1715199 L5.71484375,15.1637074 L3.78125,15.1637074 L3.78125,16.6363636 L5.859375,16.6363636 L5.859375,17.6363636 Z M11.90625,17.6363636 L10.5234375,17.6363636 L9.1953125,15.4762074 L7.8671875,17.6363636 L6.5703125,17.6363636 L8.46484375,14.6910511 L6.69140625,11.9254261 L8.02734375,11.9254261 L9.2578125,13.9801136 L10.4648438,11.9254261 L11.7695312,11.9254261 L9.9765625,14.7574574 L11.90625,17.6363636 Z M15.859375,17.6363636 L12.5703125,17.6363636 L12.5703125,11.9254261 L15.859375,11.9254261 L15.859375,12.9176136 L13.78125,12.9176136 L13.78125,14.1715199 L15.7148438,14.1715199 L15.7148438,15.1637074 L13.78125,15.1637074 L13.78125,16.6363636 L15.859375,16.6363636 L15.859375,17.6363636 Z" id="EXE"></path>
            </g>
        </g>
    </g>
</svg>