<?xml version="1.0" encoding="UTF-8" standalone="no"?>
<svg width="19px" height="23px" viewBox="0 0 19 23" version="1.1" xmlns="http://www.w3.org/2000/svg" xmlns:xlink="http://www.w3.org/1999/xlink">
    <defs></defs>
    <g id="Page-1" stroke="none" stroke-width="1" fill="none" fill-rule="evenodd">
        <g id="Attachments" transform="translate(-195.000000, -279.000000)" fill="#9B9B9B">
            <g id="Image" transform="translate(195.090909, 279.363636)">
                <g id="Group">
                    <path d="M16.2,22 L1.8,22 C0.81,22 0,21.2016129 0,20.2258065 L0,1.77419355 C0,0.798387097 0.81,0 1.8,0 L9.126,0 C9.612,0 10.062,0.177419355 10.404,0.514516129 L17.478,7.48709677 C17.82,7.82419355 18,8.26774194 18,8.74677419 L18,20.2258065 C18,21.2016129 17.19,22 16.2,22 Z M1.8,0.709677419 C1.206,0.709677419 0.72,1.18870968 0.72,1.77419355 L0.72,20.2258065 C0.72,20.8112903 1.206,21.2903226 1.8,21.2903226 L16.2,21.2903226 C16.794,21.2903226 17.28,20.8112903 17.28,20.2258065 L17.28,8.74677419 C17.28,8.46290323 17.172,8.19677419 16.956,8.0016129 L9.882,1.02903226 C9.684,0.816129032 9.414,0.709677419 9.126,0.709677419 L1.8,0.709677419 Z" id="Shape"></path>
                    <path d="M8.496,16.2944988 C8.262,16.2944988 8.028,16.2235311 7.83,16.0815956 L4.05,13.1896601 C3.924,13.0832085 3.744,13.0832085 3.6,13.1896601 L0.45,15.6735311 L0,15.1235311 L3.15,12.6396601 C3.546,12.3380472 4.086,12.3203053 4.482,12.6219182 L8.28,15.4961118 C8.406,15.5848214 8.586,15.6025634 8.712,15.4961118 L13.104,12.2138537 C13.464,11.9477247 13.95,11.9299827 14.328,12.1606279 L17.694,14.2186924 L17.316,14.8219182 L13.95,12.7638537 C13.824,12.6928859 13.662,12.6928859 13.536,12.7815956 L9.144,16.0638537 C8.964,16.2235311 8.73,16.2944988 8.496,16.2944988 Z" id="Shape"></path>
                    <path d="M6.34,9.61290323 C5.044,9.61290323 4,8.58387097 4,7.30645161 C4,6.02903226 5.044,5 6.34,5 C7.636,5 8.68,6.02903226 8.68,7.30645161 C8.68,8.58387097 7.636,9.61290323 6.34,9.61290323 Z M6.34,5.70967742 C5.44,5.70967742 4.72,6.41935484 4.72,7.30645161 C4.72,8.19354839 5.44,8.90322581 6.34,8.90322581 C7.24,8.90322581 7.96,8.19354839 7.96,7.30645161 C7.96,6.41935484 7.24,5.70967742 6.34,5.70967742 Z" id="Shape"></path>
                </g>
            </g>
        </g>
    </g>
</svg>