<?xml version="1.0" encoding="UTF-8" standalone="no"?>
<svg width="18px" height="23px" viewBox="0 0 18 23" version="1.1" xmlns="http://www.w3.org/2000/svg" xmlns:xlink="http://www.w3.org/1999/xlink">
    <defs></defs>
    <g id="Page-1" stroke="none" stroke-width="1" fill="none" fill-rule="evenodd">
        <g id="Attachments" transform="translate(-393.000000, -279.000000)" fill="#9B9B9B">
            <g id="URL1" transform="translate(393.000000, 279.363636)">
                <g id="Group">
                    <path d="M16.2,22 L1.8,22 C0.81,22 0,21.2016129 0,20.2258065 L0,1.77419355 C0,0.798387097 0.81,0 1.8,0 L9.126,0 C9.612,0 10.062,0.177419355 10.404,0.514516129 L17.478,7.48709677 C17.82,7.82419355 18,8.26774194 18,8.74677419 L18,20.2258065 C18,21.2016129 17.19,22 16.2,22 Z M1.8,0.709677419 C1.206,0.709677419 0.72,1.18870968 0.72,1.77419355 L0.72,20.2258065 C0.72,20.8112903 1.206,21.2903226 1.8,21.2903226 L16.2,21.2903226 C16.794,21.2903226 17.28,20.8112903 17.28,20.2258065 L17.28,8.74677419 C17.28,8.46290323 17.172,8.19677419 16.956,8.0016129 L9.882,1.02903226 C9.684,0.816129032 9.414,0.709677419 9.126,0.709677419 L1.8,0.709677419 Z" id="Shape"></path>
                    <g transform="translate(4.000000, 8.000000)" id="Shape">
                        <path d="M6.78560606,2.85075758 C6.625,2.69015152 6.38409091,2.69015152 6.22348485,2.85075758 L2.85075758,6.22348485 C2.69015152,6.38409091 2.69015152,6.625 2.85075758,6.78560606 C3.01136364,6.94621212 3.25227273,6.94621212 3.41287879,6.78560606 L6.78560606,3.41287879 C6.94621212,3.25227273 6.94621212,3.01136364 6.78560606,2.85075758 Z"></path>
                        <path d="M3.41287879,9.03409091 L4.81818182,7.62878788 C5.38030303,7.06666667 5.54090909,6.22348485 5.25984848,5.50075758 L4.57727273,6.18333333 C4.57727273,6.50454545 4.4969697,6.82575758 4.21590909,7.10681818 L2.81060606,8.51212121 C2.32878788,8.99393939 1.56590909,8.99393939 1.12424242,8.51212121 C0.642424242,8.03030303 0.642424242,7.26742424 1.12424242,6.82575758 L2.52954545,5.42045455 C2.77045455,5.17954545 3.13181818,5.05909091 3.4530303,5.05909091 L4.13560606,4.37651515 C3.41287879,4.09545455 2.56969697,4.21590909 2.00757576,4.81818182 L0.602272727,6.22348485 C-0.160606061,6.98636364 -0.160606061,8.27121212 0.602272727,9.03409091 C1.36515152,9.83712121 2.65,9.83712121 3.41287879,9.03409091 Z"></path>
                        <path d="M5.38030303,2.56969697 L6.78560606,1.16439394 C7.26742424,0.682575758 8.03030303,0.682575758 8.4719697,1.16439394 C8.91363636,1.64621212 8.95378788,2.40909091 8.4719697,2.85075758 L7.06666667,4.25606061 C6.82575758,4.4969697 6.46439394,4.61742424 6.14318182,4.61742424 L5.46060606,5.3 C6.18333333,5.58106061 7.02651515,5.42045455 7.58863636,4.85833333 L8.99393939,3.4530303 C9.75681818,2.69015152 9.75681818,1.40530303 8.99393939,0.642424242 C8.23106061,-0.120454545 6.94621212,-0.120454545 6.18333333,0.642424242 L4.81818182,2.00757576 C4.25606061,2.56969697 4.09545455,3.41287879 4.37651515,4.13560606 L5.05909091,3.4530303 C5.01893939,3.13181818 5.13939394,2.81060606 5.38030303,2.56969697 Z"></path>
                    </g>
                </g>
            </g>
        </g>
    </g>
</svg>