<?xml version="1.0" encoding="UTF-8" standalone="no"?>
<svg width="19px" height="23px" viewBox="0 0 19 23" version="1.1" xmlns="http://www.w3.org/2000/svg" xmlns:xlink="http://www.w3.org/1999/xlink">
    <defs></defs>
    <g id="Page-1" stroke="none" stroke-width="1" fill="none" fill-rule="evenodd">
        <g id="Attachments" transform="translate(-261.000000, -279.000000)" fill="#9B9B9B">
            <g id="Music" transform="translate(261.636364, 279.363636)">
                <g id="Group">
                    <path d="M16.2,22 L1.8,22 C0.81,22 0,21.2016129 0,20.2258065 L0,1.77419355 C0,0.798387097 0.81,0 1.8,0 L9.126,0 C9.612,0 10.062,0.177419355 10.404,0.514516129 L17.478,7.48709677 C17.82,7.82419355 18,8.26774194 18,8.74677419 L18,20.2258065 C18,21.2016129 17.19,22 16.2,22 Z M1.8,0.709677419 C1.206,0.709677419 0.72,1.18870968 0.72,1.77419355 L0.72,20.2258065 C0.72,20.8112903 1.206,21.2903226 1.8,21.2903226 L16.2,21.2903226 C16.794,21.2903226 17.28,20.8112903 17.28,20.2258065 L17.28,8.74677419 C17.28,8.46290323 17.172,8.19677419 16.956,8.0016129 L9.882,1.02903226 C9.684,0.816129032 9.414,0.709677419 9.126,0.709677419 L1.8,0.709677419 Z" id="Shape"></path>
                    <g transform="translate(4.320000, 8.161290)">
                        <path d="M2.72,7.10252519 L2,7.10252519 L2,1.69123486 C2,1.37188002 2.216,1.08800906 2.522,0.999299379 L6.302,0.0234929278 C6.518,-0.0297328787 6.752,0.00575099231 6.932,0.147686476 C7.112,0.28962196 7.22,0.48478325 7.22,0.715428412 L7.22,6.1089768 L6.5,6.1089768 L6.5,0.715428412 L2.72,1.69123486 L2.72,7.10252519 Z" id="Shape"></path>
                        <g transform="translate(0.000000, 6.000000)">
                            <ellipse id="Oval" cx="1.71" cy="1.24193548" rx="1.35" ry="0.887096774"></ellipse>
                            <path d="M1.71,2.48387097 C0.756,2.48387097 0,1.93387097 0,1.24193548 C0,0.55 0.756,0 1.71,0 C2.664,0 3.42,0.55 3.42,1.24193548 C3.42,1.93387097 2.664,2.48387097 1.71,2.48387097 Z M1.71,0.709677419 C1.152,0.709677419 0.72,0.993548387 0.72,1.24193548 C0.72,1.49032258 1.152,1.77419355 1.71,1.77419355 C2.268,1.77419355 2.7,1.49032258 2.7,1.24193548 C2.7,0.993548387 2.268,0.709677419 1.71,0.709677419 Z" id="Shape"></path>
                        </g>
                        <g transform="translate(4.000000, 5.000000)">
                            <ellipse id="Oval" cx="1.71" cy="1.49032258" rx="1.35" ry="0.958064516"></ellipse>
                            <path d="M1.71,2.78548387 C0.756,2.78548387 0,2.21774194 0,1.47258065 C0,0.74516129 0.756,0.159677419 1.71,0.159677419 C2.664,0.159677419 3.42,0.727419355 3.42,1.47258065 C3.42,2.21774194 2.664,2.78548387 1.71,2.78548387 Z M1.71,0.887096774 C1.188,0.887096774 0.72,1.17096774 0.72,1.49032258 C0.72,1.77419355 1.134,2.09354839 1.71,2.09354839 C2.286,2.09354839 2.7,1.77419355 2.7,1.49032258 C2.7,1.17096774 2.232,0.887096774 1.71,0.887096774 Z" id="Shape"></path>
                        </g>
                    </g>
                </g>
            </g>
        </g>
    </g>
</svg>