<?xml version="1.0" encoding="UTF-8" standalone="no"?>
<svg width="18px" height="23px" viewBox="0 0 18 23" version="1.1" xmlns="http://www.w3.org/2000/svg" xmlns:xlink="http://www.w3.org/1999/xlink">
    <defs></defs>
    <g id="Page-1" stroke="none" stroke-width="1" fill="none" fill-rule="evenodd">
        <g id="Attachments" transform="translate(-62.000000, -279.000000)" fill="#9B9B9B">
            <g id="PDF" transform="translate(62.000000, 279.363636)">
                <path d="M16.2,22 L1.8,22 C0.80748,22 0,21.2040968 0,20.2258065 L0,1.77419355 C0,0.795903226 0.80748,0 1.8,0 L9.12366,0 C9.60444,0 10.0566,0.184693548 10.39626,0.51966129 L17.47278,7.49472581 C17.8128,7.82987097 18,8.27519355 18,8.74908065 L18,20.2258065 C18,21.2040968 17.19252,22 16.2,22 Z M1.8,0.709677419 C1.20438,0.709677419 0.72,1.1871129 0.72,1.77419355 L0.72,20.2258065 C0.72,20.8128871 1.20438,21.2903226 1.8,21.2903226 L16.2,21.2903226 C16.79562,21.2903226 17.28,20.8128871 17.28,20.2258065 L17.28,8.74908065 C17.28,8.46893548 17.16462,8.19464516 16.96374,7.99646774 L9.88722,1.02140323 C9.68328,0.820387097 9.41202,0.709677419 9.12366,0.709677419 L1.8,0.709677419 Z" id="Shape"></path>
                <path d="M14.6178,13.8954839 C14.6052,13.805 14.5314,13.6914516 14.4522,13.6151613 C14.2254,13.3951613 13.7268,13.2798387 12.9672,13.2691935 C12.4524,13.263871 11.8332,13.3082258 11.1816,13.3987097 C10.89,13.2337097 10.5894,13.0527419 10.3536,12.8345161 C9.7182,12.2508065 9.189,11.44 8.8578,10.5475806 C8.8794,10.4641935 8.8974,10.3914516 8.9154,10.3169355 C8.9154,10.3169355 9.2718,8.31564516 9.1782,7.63790323 C9.1656,7.54564516 9.1566,7.51903226 9.1314,7.44629032 L9.1008,7.36822581 C9.0036,7.14645161 8.8128,6.91225806 8.514,6.92467742 L8.3376,6.91935484 L8.334,6.91935484 C7.9992,6.91935484 7.7292,7.08790323 7.6572,7.33806452 C7.4412,8.12580645 7.6644,9.30564516 8.0694,10.8314516 L7.965,11.0798387 C7.6752,11.778871 7.3116,12.4814516 6.9912,13.1006452 L6.9498,13.1804839 C6.6114,13.8316129 6.3054,14.3851613 6.0264,14.8535484 L5.7402,15.0025806 C5.7186,15.0132258 5.2272,15.2704839 5.112,15.3379032 C4.1346,15.9145161 3.4866,16.5674194 3.3786,17.0854839 C3.3444,17.2522581 3.3696,17.4633871 3.5442,17.5609677 L3.8214,17.6993548 C3.942,17.7579032 4.0698,17.7880645 4.1994,17.7880645 C4.896,17.7880645 5.7042,16.9329032 6.8184,15.0167742 C8.1036,14.6051613 9.5688,14.2609677 10.8522,14.0729032 C11.8296,14.6140323 13.032,14.9919355 13.7916,14.9919355 C13.9266,14.9919355 14.0436,14.9795161 14.1372,14.9546774 C14.283,14.9156452 14.4054,14.8340323 14.481,14.7240323 C14.6286,14.5058065 14.6574,14.2041935 14.6178,13.8954839 Z M4.0482,17.2682258 C4.1742,16.9258065 4.6782,16.2480645 5.4216,15.6483871 C5.4684,15.611129 5.5836,15.5046774 5.688,15.4053226 C4.9104,16.6277419 4.3902,17.113871 4.0482,17.2682258 Z M8.451,7.27419355 C8.6742,7.27419355 8.802,7.82951613 8.8128,8.35112903 C8.8236,8.87274194 8.6994,9.23822581 8.5464,9.50967742 C8.4186,9.10870968 8.3574,8.47709677 8.3574,8.06370968 C8.3574,8.06370968 8.3484,7.27419355 8.451,7.27419355 Z M7.137,14.3958065 C7.2936,14.1208065 7.4556,13.8298387 7.6212,13.5229032 C8.0262,12.768871 8.2818,12.1798387 8.4708,11.6954839 C8.8488,12.3732258 9.3204,12.9498387 9.873,13.411129 C9.9432,13.4679032 10.017,13.5264516 10.0926,13.585 C8.9676,13.8032258 7.9938,14.071129 7.137,14.3958065 Z M14.2344,14.3337097 C14.166,14.3745161 13.9698,14.3993548 13.8438,14.3993548 C13.437,14.3993548 12.9312,14.2166129 12.2238,13.9167742 C12.4956,13.8972581 12.7458,13.8866129 12.969,13.8866129 C13.3776,13.8866129 13.4982,13.8848387 13.8996,13.9859677 C14.2992,14.0870968 14.3046,14.291129 14.2344,14.3337097 Z" id="Shape"></path>
            </g>
        </g>
    </g>
</svg>