<?xml version="1.0" encoding="UTF-8" standalone="no"?>
<svg width="19px" height="23px" viewBox="0 0 19 23" version="1.1" xmlns="http://www.w3.org/2000/svg" xmlns:xlink="http://www.w3.org/1999/xlink">
    <defs></defs>
    <g id="Page-1" stroke="none" stroke-width="1" fill="none" fill-rule="evenodd">
        <g id="Attachments" transform="translate(-239.000000, -279.000000)" fill="#9B9B9B">
            <g id="Powerpoint" transform="translate(239.454545, 279.363636)">
                <g id="Group">
                    <path d="M16.2,22 L1.8,22 C0.81,22 0,21.2016129 0,20.2258065 L0,1.77419355 C0,0.798387097 0.81,0 1.8,0 L9.126,0 C9.612,0 10.062,0.177419355 10.404,0.514516129 L17.478,7.48709677 C17.82,7.82419355 18,8.26774194 18,8.74677419 L18,20.2258065 C18,21.2016129 17.19,22 16.2,22 Z M1.8,0.709677419 C1.206,0.709677419 0.72,1.18870968 0.72,1.77419355 L0.72,20.2258065 C0.72,20.8112903 1.206,21.2903226 1.8,21.2903226 L16.2,21.2903226 C16.794,21.2903226 17.28,20.8112903 17.28,20.2258065 L17.28,8.74677419 C17.28,8.46290323 17.172,8.19677419 16.956,8.0016129 L9.882,1.02903226 C9.684,0.816129032 9.414,0.709677419 9.126,0.709677419 L1.8,0.709677419 Z" id="Shape"></path>
                    <path d="M11.16,12.4903226 C11.16,13.1467742 10.944,13.6435484 10.53,13.9983871 C10.116,14.3532258 9.522,14.5129032 8.766,14.5129032 L8.208,14.5129032 L8.208,16.6774194 L6.894,16.6774194 L6.894,10.5919355 L8.856,10.5919355 C9.612,10.5919355 10.17,10.7516129 10.566,11.0709677 C10.962,11.3903226 11.16,11.8693548 11.16,12.4903226 Z M8.208,13.466129 L8.64,13.466129 C9.036,13.466129 9.342,13.3951613 9.54,13.2354839 C9.738,13.0758065 9.846,12.8451613 9.846,12.5435484 C9.846,12.2419355 9.756,12.0112903 9.594,11.8693548 C9.432,11.7274194 9.162,11.6564516 8.802,11.6564516 L8.208,11.6564516 L8.208,13.466129 Z" id="Shape"></path>
                </g>
            </g>
        </g>
    </g>
</svg>