<?xml version="1.0" encoding="UTF-8" standalone="no"?>
<svg width="19px" height="23px" viewBox="0 0 19 23" version="1.1" xmlns="http://www.w3.org/2000/svg" xmlns:xlink="http://www.w3.org/1999/xlink">
    <defs></defs>
    <g id="Page-1" stroke="none" stroke-width="1" fill="none" fill-rule="evenodd">
        <g id="Attachments" transform="translate(-106.000000, -279.000000)" fill="#9B9B9B">
            <g id="Ps" transform="translate(106.363636, 279.363636)">
                <g id="Group">
                    <path d="M16.2,22 L1.8,22 C0.81,22 0,21.2016129 0,20.2258065 L0,1.77419355 C0,0.798387097 0.81,0 1.8,0 L9.126,0 C9.612,0 10.062,0.177419355 10.404,0.514516129 L17.478,7.48709677 C17.82,7.82419355 18,8.26774194 18,8.74677419 L18,20.2258065 C18,21.2016129 17.19,22 16.2,22 Z M1.8,0.709677419 C1.206,0.709677419 0.72,1.18870968 0.72,1.77419355 L0.72,20.2258065 C0.72,20.8112903 1.206,21.2903226 1.8,21.2903226 L16.2,21.2903226 C16.794,21.2903226 17.28,20.8112903 17.28,20.2258065 L17.28,8.74677419 C17.28,8.46290323 17.172,8.19677419 16.956,8.0016129 L9.882,1.02903226 C9.684,0.816129032 9.414,0.709677419 9.126,0.709677419 L1.8,0.709677419 Z" id="Shape"></path>
                    <g transform="translate(4.500000, 11.000000)" id="Shape">
                        <path d="M4.266,1.8983871 C4.266,2.55483871 4.05,3.0516129 3.636,3.40645161 C3.222,3.76129032 2.628,3.92096774 1.872,3.92096774 L1.314,3.92096774 L1.314,6.08548387 L0,6.08548387 L0,0 L1.962,0 C2.718,0 3.276,0.159677419 3.672,0.479032258 C4.068,0.798387097 4.266,1.27741935 4.266,1.8983871 Z M1.314,2.87419355 L1.746,2.87419355 C2.142,2.87419355 2.448,2.80322581 2.646,2.64354839 C2.844,2.48387097 2.952,2.25322581 2.952,1.9516129 C2.952,1.65 2.862,1.41935484 2.7,1.27741935 C2.538,1.13548387 2.268,1.06451613 1.908,1.06451613 L1.314,1.06451613 L1.314,2.87419355 L1.314,2.87419355 Z"></path>
                        <path d="M8.582,5.37096774 C8.582,5.85 8.42,6.20483871 8.078,6.45322581 C7.736,6.7016129 7.232,6.82580645 6.566,6.82580645 C6.224,6.82580645 5.936,6.80806452 5.684,6.75483871 C5.432,6.7016129 5.216,6.6483871 5,6.55967742 L5,5.51290323 C5.234,5.61935484 5.504,5.70806452 5.81,5.79677419 C6.116,5.88548387 6.368,5.90322581 6.602,5.90322581 C7.07,5.90322581 7.304,5.76129032 7.304,5.49516129 C7.304,5.38870968 7.268,5.31774194 7.214,5.24677419 C7.16,5.17580645 7.052,5.10483871 6.89,5.03387097 C6.728,4.96290323 6.53,4.85645161 6.278,4.75 C5.918,4.60806452 5.648,4.46612903 5.486,4.34193548 C5.324,4.21774194 5.198,4.07580645 5.108,3.8983871 C5.018,3.72096774 5,3.52580645 5,3.29516129 C5,2.88709677 5.162,2.56774194 5.486,2.33709677 C5.81,2.10645161 6.278,2 6.872,2 C7.448,2 7.988,2.12419355 8.528,2.37258065 L8.132,3.29516129 C7.898,3.18870968 7.682,3.11774194 7.466,3.04677419 C7.25,2.97580645 7.052,2.95806452 6.836,2.95806452 C6.458,2.95806452 6.26,3.06451613 6.26,3.25967742 C6.26,3.36612903 6.314,3.47258065 6.44,3.56129032 C6.566,3.65 6.836,3.77419355 7.25,3.93387097 C7.61,4.07580645 7.88,4.21774194 8.06,4.34193548 C8.24,4.46612903 8.366,4.60806452 8.438,4.78548387 C8.51,4.96290323 8.582,5.14032258 8.582,5.37096774 Z"></path>
                    </g>
                </g>
            </g>
        </g>
    </g>
</svg>