<?xml version="1.0" encoding="UTF-8" standalone="no"?>
<svg width="19px" height="23px" viewBox="0 0 19 23" version="1.1" xmlns="http://www.w3.org/2000/svg" xmlns:xlink="http://www.w3.org/1999/xlink">
    <defs></defs>
    <g id="Page-1" stroke="none" stroke-width="1" fill="none" fill-rule="evenodd">
        <g id="Attachments" transform="translate(-84.000000, -279.000000)" fill="#9B9B9B">
            <g id="text" transform="translate(84.181818, 279.363636)">
                <path d="M16.2,22 L1.8,22 C0.80748,22 0,21.2040968 0,20.2258065 L0,1.77419355 C0,0.795903226 0.80748,0 1.8,0 L9.12366,0 C9.60444,0 10.0566,0.184693548 10.39626,0.51966129 L17.47278,7.49472581 C17.8128,7.82987097 18,8.27519355 18,8.74908065 L18,20.2258065 C18,21.2040968 17.19252,22 16.2,22 Z M1.8,0.709677419 C1.20438,0.709677419 0.72,1.1871129 0.72,1.77419355 L0.72,20.2258065 C0.72,20.8128871 1.20438,21.2903226 1.8,21.2903226 L16.2,21.2903226 C16.79562,21.2903226 17.28,20.8128871 17.28,20.2258065 L17.28,8.74908065 C17.28,8.46893548 17.16462,8.19464516 16.96374,7.99646774 L9.88722,1.02140323 C9.68328,0.820387097 9.41202,0.709677419 9.12366,0.709677419 L1.8,0.709677419 Z" id="Shape"></path>
                <rect id="Rectangle-6" x="4" y="11" width="10" height="1" rx="0.5"></rect>
                <rect id="Rectangle-6" x="4" y="14" width="10" height="1" rx="0.5"></rect>
                <rect id="Rectangle-6" x="4" y="17" width="10" height="1" rx="0.5"></rect>
            </g>
        </g>
    </g>
</svg>