<?xml version="1.0" encoding="UTF-8" standalone="no"?>
<svg width="18px" height="23px" viewBox="0 0 18 23" version="1.1" xmlns="http://www.w3.org/2000/svg" xmlns:xlink="http://www.w3.org/1999/xlink">
    <defs></defs>
    <g id="Page-1" stroke="none" stroke-width="1" fill="none" fill-rule="evenodd">
        <g id="Attachments" transform="translate(-414.000000, -279.000000)" fill="#9B9B9B">
            <g id="URL2" transform="translate(414.000000, 279.363636)">
                <g id="Group">
                    <path d="M16.2,22 L1.8,22 C0.81,22 0,21.2016129 0,20.2258065 L0,1.77419355 C0,0.798387097 0.81,0 1.8,0 L9.126,0 C9.612,0 10.062,0.177419355 10.404,0.514516129 L17.478,7.48709677 C17.82,7.82419355 18,8.26774194 18,8.74677419 L18,20.2258065 C18,21.2016129 17.19,22 16.2,22 Z M1.8,0.709677419 C1.206,0.709677419 0.72,1.18870968 0.72,1.77419355 L0.72,20.2258065 C0.72,20.8112903 1.206,21.2903226 1.8,21.2903226 L16.2,21.2903226 C16.794,21.2903226 17.28,20.8112903 17.28,20.2258065 L17.28,8.74677419 C17.28,8.46290323 17.172,8.19677419 16.956,8.0016129 L9.882,1.02903226 C9.684,0.816129032 9.414,0.709677419 9.126,0.709677419 L1.8,0.709677419 Z" id="Shape"></path>
                </g>
                <path d="M6.59091655,11.9254261 L6.59091655,15.6207386 C6.59091655,16.0426157 6.49846152,16.4124037 6.31354868,16.7301136 C6.12863584,17.0478236 5.86147267,17.2913107 5.51205116,17.4605824 C5.16262965,17.6298541 4.7494513,17.7144886 4.27250369,17.7144886 C3.5532565,17.7144886 2.99470058,17.5263395 2.59681915,17.1500355 C2.19893773,16.7737315 2,16.2587627 2,15.6051136 L2,11.9254261 L3.18216101,11.9254261 L3.18216101,15.4215199 C3.18216101,15.8616263 3.26887746,16.1845397 3.44231295,16.3902699 C3.61574844,16.5960001 3.90267786,16.6988636 4.3031098,16.6988636 C4.69078914,16.6988636 4.97197997,16.595349 5.14669072,16.3883168 C5.32140147,16.1812845 5.40875554,15.8564179 5.40875554,15.4137074 L5.40875554,11.9254261 L6.59091655,11.9254261 Z M8.85270809,14.4605824 L9.23528447,14.4605824 C9.6102112,14.4605824 9.88693868,14.3967809 10.0654752,14.2691761 C10.2440118,14.1415713 10.3332787,13.9410525 10.3332787,13.6676136 C10.3332787,13.3967789 10.2420989,13.2040725 10.0597366,13.0894886 C9.87737425,12.9749047 9.59490818,12.9176136 9.21232989,12.9176136 L8.85270809,12.9176136 L8.85270809,14.4605824 Z M8.85270809,15.4449574 L8.85270809,17.6363636 L7.66672132,17.6363636 L7.66672132,11.9254261 L9.29649669,11.9254261 C10.0565522,11.9254261 10.6189339,12.0667008 10.9836585,12.3492543 C11.3483832,12.6318078 11.5307427,13.0608399 11.5307427,13.6363636 C11.5307427,13.9723028 11.4402006,14.271128 11.2591135,14.532848 C11.0780265,14.7945681 10.8217029,14.9996441 10.490135,15.1480824 C11.3318072,16.431943 11.8801612,17.2613618 12.1352134,17.6363636 L10.8191507,17.6363636 L9.48395912,15.4449574 L8.85270809,15.4449574 Z M12.5453353,17.6363636 L12.5453353,11.9254261 L13.7313221,11.9254261 L13.7313221,16.6363636 L16,16.6363636 L16,17.6363636 L12.5453353,17.6363636 Z" id="URL"></path>
            </g>
        </g>
    </g>
</svg>