<?xml version="1.0" encoding="UTF-8" standalone="no"?>
<svg width="19px" height="23px" viewBox="0 0 19 23" version="1.1" xmlns="http://www.w3.org/2000/svg" xmlns:xlink="http://www.w3.org/1999/xlink">
    <defs></defs>
    <g id="Page-1" stroke="none" stroke-width="1" fill="none" fill-rule="evenodd">
        <g id="Attachments" transform="translate(-172.000000, -279.000000)" fill="#9B9B9B">
            <g id="Video" transform="translate(172.909091, 279.363636)">
                <g id="Group">
                    <path d="M16.2,22 L1.8,22 C0.81,22 0,21.2016129 0,20.2258065 L0,1.77419355 C0,0.798387097 0.81,0 1.8,0 L9.126,0 C9.612,0 10.062,0.177419355 10.404,0.514516129 L17.478,7.48709677 C17.82,7.82419355 18,8.26774194 18,8.74677419 L18,20.2258065 C18,21.2016129 17.19,22 16.2,22 Z M1.8,0.709677419 C1.206,0.709677419 0.72,1.18870968 0.72,1.77419355 L0.72,20.2258065 C0.72,20.8112903 1.206,21.2903226 1.8,21.2903226 L16.2,21.2903226 C16.794,21.2903226 17.28,20.8112903 17.28,20.2258065 L17.28,8.74677419 C17.28,8.46290323 17.172,8.19677419 16.956,8.0016129 L9.882,1.02903226 C9.684,0.816129032 9.414,0.709677419 9.126,0.709677419 L1.8,0.709677419 Z" id="Shape"></path>
                    <path d="M5.616,16.8790323 C5.49,16.8790323 5.346,16.8435484 5.238,16.7725806 C5.022,16.6483871 4.896,16.4177419 4.896,16.1693548 L4.896,9.51612903 C4.896,9.26774194 5.022,9.03709677 5.238,8.91290323 C5.454,8.78870968 5.724,8.77096774 5.94,8.89516129 L12.69,12.3725806 C12.942,12.4967742 13.086,12.7451613 13.068,13.0112903 C13.068,13.2774194 12.906,13.5258065 12.654,13.6322581 L5.94,16.8080645 C5.832,16.8612903 5.724,16.8790323 5.616,16.8790323 Z M5.616,9.51612903 L5.616,16.1693548 L12.366,12.9935484 L5.616,9.51612903 Z" id="Shape"></path>
                </g>
            </g>
        </g>
    </g>
</svg>