<?xml version="1.0" encoding="UTF-8" standalone="no"?>
<svg width="19px" height="23px" viewBox="0 0 19 23" version="1.1" xmlns="http://www.w3.org/2000/svg" xmlns:xlink="http://www.w3.org/1999/xlink">
    <defs></defs>
    <g id="Page-1" stroke="none" stroke-width="1" fill="none" fill-rule="evenodd">
        <g id="Attachments" transform="translate(-217.000000, -279.000000)" fill="#9B9B9B">
            <g id="Zip" transform="translate(217.272727, 279.363636)">
                <g id="Group">
                    <path d="M16.2,22 L1.8,22 C0.80748,22 0,21.2040968 0,20.2258065 L0,1.77419355 C0,0.795903226 0.80748,0 1.8,0 L9.12366,0 C9.60444,0 10.0566,0.184693548 10.39626,0.51966129 L17.47278,7.49472581 C17.8128,7.82987097 18,8.27519355 18,8.74908065 L18,20.2258065 C18,21.2040968 17.19252,22 16.2,22 Z M1.8,0.709677419 C1.20438,0.709677419 0.72,1.1871129 0.72,1.77419355 L0.72,20.2258065 C0.72,20.8128871 1.20438,21.2903226 1.8,21.2903226 L16.2,21.2903226 C16.79562,21.2903226 17.28,20.8128871 17.28,20.2258065 L17.28,8.74908065 C17.28,8.46893548 17.16462,8.19464516 16.96374,7.99646774 L9.88722,1.02140323 C9.68328,0.820387097 9.41202,0.709677419 9.12366,0.709677419 L1.8,0.709677419 Z" id="Shape"></path>
                    <rect id="Rectangle-path" x="6" y="20" width="1.8" height="1.06451613"></rect>
                    <rect id="Rectangle-path" x="4" y="21" width="1.8" height="0.5"></rect>
                    <rect id="Rectangle-path" x="6" y="18" width="1.8" height="1.06451613"></rect>
                    <rect id="Rectangle-path" x="4" y="19" width="1.8" height="1.06451613"></rect>
                    <rect id="Rectangle-path" x="6" y="16" width="1.8" height="1.06451613"></rect>
                    <rect id="Rectangle-path" x="4" y="17" width="1.8" height="1.06451613"></rect>
                    <rect id="Rectangle-path" x="6" y="14" width="1.8" height="1.06451613"></rect>
                    <rect id="Rectangle-path" x="4" y="15" width="1.8" height="1.06451613"></rect>
                    <rect id="Rectangle-path" x="6" y="12" width="1.8" height="1.06451613"></rect>
                    <rect id="Rectangle-path" x="4" y="13" width="1.8" height="1.06451613"></rect>
                    <path d="M7.24,5 L4.36,5 C4.162,5 4,5.15967742 4,5.35483871 L4,9.79032258 C4,9.98548387 4.162,10.1451613 4.36,10.1451613 L7.24,10.1451613 C7.438,10.1451613 7.6,9.98548387 7.6,9.79032258 L7.6,5.35483871 C7.6,5.15967742 7.438,5 7.24,5 Z M6.7,7.83870968 L4.9,7.83870968 L4.9,5.88709677 L6.7,5.88709677 L6.7,7.83870968 Z" id="Shape"></path>
                </g>
            </g>
        </g>
    </g>
</svg>