<?xml version="1.0" encoding="UTF-8"?>
<svg width="24px" height="24px" viewBox="0 0 24 24" version="1.1" xmlns="http://www.w3.org/2000/svg" xmlns:xlink="http://www.w3.org/1999/xlink">
    <!-- Generator: Sketch 63.1 (92452) - https://sketch.com -->
    <title>paypal</title>
    <desc>Created with Sketch.</desc>
    <g id="Changes" stroke="none" stroke-width="1" fill="none" fill-rule="evenodd">
        <g id="NEW_2Products_page" transform="translate(-1124.000000, -98.000000)">
            <g id="paypal" transform="translate(1124.000000, 98.000000)">
                <path d="M12.038247,0.00956175299 C18.5928287,0.0764940239 23.8565737,5.47888446 23.7848606,12.1290837 C23.7707228,13.5065068 23.5260037,14.8308172 23.0866121,16.0630875 L22.0974872,16.0626834 C22.5735326,14.842358 22.8392416,13.513588 22.8479798,12.1195219 C22.8812749,5.90438247 18,0.946557107 11.9091633,0.946557107 C5.96653386,0.92749004 1.02788845,5.77051793 0.960956175,11.8661355 C0.894023904,18.0860558 5.85657371,22.9960159 11.7944223,23.0533865 C13.1310071,23.0672095 14.4179288,22.8372102 15.6115855,22.403731 L16.3341698,23.1274187 C14.9651406,23.6816574 13.4664021,23.988152 11.8900398,23.9904382 C5.29721116,23.9904382 1.83901158e-12,18.6119522 0.0285693061,11.8900398 C0.0573705179,5.34501992 5.35458167,-0.0573705179 12.038247,0.00956175299 Z" id="Combined-Shape" fill="#042F8B" fill-rule="nonzero"></path>
                <path d="M18.5002564,22.749272 L18.5546058,22.817865 L18.4404559,22.696 L18.393655,22.6586151 L16.3004886,20.7215471 C16.0206445,20.4625725 15.9618856,20.0579605 16.1307397,19.7374466 L16.1784559,19.659 L16.2548621,19.6049236 C16.5354148,19.4315833 16.8971761,19.4359543 17.1728444,19.6223723 L17.2613157,19.69126 L18.9694559,21.214 L21.7560633,18.2411424 C22.0309841,17.9477024 22.4602238,17.9208363 22.7630673,18.167319 L22.7684559,18.173 L22.7831089,18.190682 C23.0063123,18.5116227 22.9818247,18.9668292 22.7088879,19.2581516 L19.5072604,22.6754485 C19.2323396,22.9688886 18.8031,22.9957547 18.5002564,22.749272 Z" id="Rectangle-205" fill="#003087"></path>
                <path d="M8.40478088,18.5641434 C7.38645418,18.5641434 6.36812749,18.5641434 5.34501992,18.5593625 C4.94342629,18.5593625 4.76653386,18.3633466 4.82868526,17.9808765 C5.07729084,16.3792829 5.33067729,14.7729084 5.57928287,13.1713147 C5.82310757,11.6223108 6.06215139,10.0733068 6.31075697,8.52908367 C6.52111554,7.2 6.73625498,5.87091633 6.9561753,4.54183267 C7.02788845,4.11633466 7.32430279,3.88207171 7.75936255,3.88207171 C9.50916335,3.88207171 11.263745,3.86294821 13.0135458,3.88685259 C13.9171315,3.90119522 14.8111554,4.02549801 15.6573705,4.3936255 C16.9290837,4.94820717 17.6366534,6.2438247 17.4645418,7.61593625 C17.4454183,7.75458167 17.4788845,7.90278884 17.3976096,8.03187251 C17.3498008,8.02231076 17.301992,8.02231076 17.2589641,8.00318725 C16.5418327,7.65418327 15.7721116,7.56812749 14.9928287,7.55856574 C13.5824701,7.53944223 12.1721116,7.55378486 10.761753,7.55378486 C10.3888446,7.55378486 10.1067729,7.76414343 10.0494024,8.12749004 C9.95856574,8.73466135 9.85338645,9.34661355 9.7625498,9.95378486 C9.62390438,10.8621514 9.46613546,11.7609562 9.33705179,12.6693227 C9.30358566,12.9179283 9.20796813,13.1713147 9.26533865,13.4294821 C9.23187251,13.5346614 9.18406375,13.6302789 9.16494024,13.7450199 C9.06932271,14.3952191 8.96414343,15.0454183 8.85896414,15.6956175 C8.71075697,16.6517928 8.55776892,17.6079681 8.40478088,18.5641434 Z" id="Path" fill="#012D8A" fill-rule="nonzero"></path>
                <path d="M8.40478088,18.5641434 C8.55776892,17.6079681 8.71075697,16.6517928 8.86374502,15.7003984 C8.9689243,15.0501992 9.07410359,14.4 9.16972112,13.7498008 C9.18884462,13.6350598 9.23665339,13.5394422 9.27011952,13.4342629 C9.44701195,13.1665339 9.70039841,13.0613546 10.0207171,13.0565737 C11.1250996,13.047012 12.2294821,13.1282869 13.3195219,12.8701195 C14.4573705,12.5976096 15.4422311,12.0812749 16.1832669,11.149004 C16.8908367,10.259761 17.2398406,9.22231076 17.4215139,8.11792829 C18.2820717,8.54342629 18.7027888,9.27968127 18.7792829,10.1880478 C18.8844622,11.3928287 18.6023904,12.5450199 18,13.5920319 C17.2541833,14.8972112 16.0541833,15.5282869 14.6055777,15.7290837 C14.1131474,15.7960159 13.6111554,15.8294821 13.1139442,15.8199203 C12.7123506,15.8103586 12.4828685,16.0207171 12.4207171,16.4223108 C12.2629482,17.4310757 12.1099602,18.4446215 11.9521912,19.4533865 C11.8517928,20.1035857 11.7800797,20.4478088 10.838247,20.4143426 C10.1306773,20.3904382 9.42310757,20.4095618 8.71075697,20.4095618 C8.33306773,20.4095618 8.18007968,20.2326693 8.22310757,19.859761 C8.27091633,19.4247012 8.39043825,18.9992032 8.40478088,18.5641434 Z" id="Path" fill="#019AE0" fill-rule="nonzero"></path>
                <path d="M17.4167331,8.11314741 C17.2398406,9.21752988 16.8860558,10.2549801 16.1784861,11.1442231 C15.4422311,12.076494 14.4525896,12.5928287 13.314741,12.8653386 C12.2247012,13.1282869 11.1155378,13.0422311 10.0159363,13.0517928 C9.69561753,13.0565737 9.44223108,13.161753 9.26533865,13.4294821 C9.20796813,13.1665339 9.30358566,12.9179283 9.33705179,12.6693227 C9.46135458,11.7609562 9.62390438,10.8573705 9.7625498,9.95378486 C9.85338645,9.34661355 9.95856574,8.73944223 10.0494024,8.12749004 C10.101992,7.76414343 10.3840637,7.55378486 10.761753,7.55378486 C12.1721116,7.55378486 13.5824701,7.53944223 14.9928287,7.55856574 C15.7673307,7.56812749 16.5418327,7.65896414 17.2589641,8.00318725 C17.301992,8.02231076 17.3498008,8.02231076 17.3976096,8.03187251 C17.4023904,8.06055777 17.4119522,8.08446215 17.4167331,8.11314741 Z" id="Path" fill="#001F6B" fill-rule="nonzero"></path>
            </g>
        </g>
    </g>
</svg>